<svg id="레이어_1" data-name="레이어 1" xmlns="http://www.w3.org/2000/svg" viewBox="0 0 48 42"><path d="M47.04,41.972H.96A.959.959,0,0,1,0,41.014V1A.959.959,0,0,1,.96.039H47.04A.959.959,0,0,1,48,1V41.014A.959.959,0,0,1,47.04,41.972ZM1.92,40.055H46.08V1.957H1.92Z"/><path d="M47.04,11.065H.96a.959.959,0,1,1,0-1.917H47.04a.959.959,0,1,1,0,1.917Z"/><path d="M24,36.456a10.9,10.9,0,1,1,10.911-10.9A10.916,10.916,0,0,1,24,36.456Zm0-19.875a8.979,8.979,0,1,0,8.991,8.979A9,9,0,0,0,24,16.581Z"/><path d="M21.26,31.155a.959.959,0,0,1-.96-.958V20.923a.96.96,0,0,1,1.44-.83l8.042,4.637a.958.958,0,0,1,0,1.661L21.74,31.027A.964.964,0,0,1,21.26,31.155Zm.96-8.571v5.952l5.162-2.976Z"/><path d="M7.451,4.307a1.356,1.356,0,0,0-.716-.2,1.4,1.4,0,0,0-.725.2,1.46,1.46,0,0,0-.529.524,1.319,1.319,0,0,0-.186.718,1.3,1.3,0,0,0,.186.715,1.525,1.525,0,0,0,.529.524,1.389,1.389,0,0,0,.725.2,1.343,1.343,0,0,0,.716-.2,1.6,1.6,0,0,0,.524-.524,1.328,1.328,0,0,0,.2-.715,1.348,1.348,0,0,0-.2-.718A1.528,1.528,0,0,0,7.451,4.307Z"/><path d="M12.44,4.307a1.35,1.35,0,0,0-.715-.2,1.4,1.4,0,0,0-.725.2,1.46,1.46,0,0,0-.529.524,1.31,1.31,0,0,0-.186.718,1.291,1.291,0,0,0,.186.715A1.525,1.525,0,0,0,11,6.788a1.389,1.389,0,0,0,.725.2,1.337,1.337,0,0,0,.715-.2,1.6,1.6,0,0,0,.525-.524,1.337,1.337,0,0,0,.2-.715,1.357,1.357,0,0,0-.2-.718A1.531,1.531,0,0,0,12.44,4.307Z"/><path d="M17.43,4.307a1.356,1.356,0,0,0-.716-.2,1.406,1.406,0,0,0-.725.2,1.468,1.468,0,0,0-.529.524,1.309,1.309,0,0,0-.185.718,1.29,1.29,0,0,0,.185.715,1.534,1.534,0,0,0,.529.524,1.392,1.392,0,0,0,.725.2,1.343,1.343,0,0,0,.716-.2,1.6,1.6,0,0,0,.525-.524,1.336,1.336,0,0,0,.2-.715,1.356,1.356,0,0,0-.2-.718A1.531,1.531,0,0,0,17.43,4.307Z"/></svg>