<svg id="레이어_1" data-name="레이어 1" xmlns="http://www.w3.org/2000/svg" viewBox="0 0 48 38"><path d="M44.39,30.823A3.326,3.326,0,1,1,47.705,27.5,3.324,3.324,0,0,1,44.39,30.823Zm0-4.726a1.4,1.4,0,1,0,1.4,1.4A1.4,1.4,0,0,0,44.39,26.1Z"/><path d="M46.949,38H41.832a.962.962,0,0,1-.9-1.287l2.558-7.177a.958.958,0,0,1,1.807,0l2.559,7.177a.962.962,0,0,1-.9,1.287Zm-3.755-1.926h2.392l-1.2-3.355Z"/><path d="M44.388,26.113a.961.961,0,0,1-.96-.963V14.8H24a.963.963,0,0,1,0-1.925H44.388a.96.96,0,0,1,.959.963V25.15A.961.961,0,0,1,44.388,26.113Z"/><path d="M24,27.67a.959.959,0,0,1-.467-.121L.493,14.677a.965.965,0,0,1,0-1.683L23.533.121a.963.963,0,0,1,.934,0l23.04,12.873a.965.965,0,0,1,0,1.683L24.467,27.549A.959.959,0,0,1,24,27.67ZM2.932,13.836,24,25.605,45.068,13.836,24,2.065Z"/><path d="M24.005,36.871A25.548,25.548,0,0,1,9.238,32.564a.965.965,0,0,1-.4-.784V18.771a.96.96,0,1,1,1.919,0v12.5a24.267,24.267,0,0,0,13.252,3.671,23.948,23.948,0,0,0,13.242-3.662V18.771a.96.96,0,1,1,1.919,0V31.79a.965.965,0,0,1-.4.786A25.611,25.611,0,0,1,24.005,36.871Z"/></svg>