<svg xmlns="http://www.w3.org/2000/svg" viewBox="0 0 114.66 102.053"><defs><style>.cls-1{fill:#fb3;}</style></defs><g id="레이어_2" data-name="레이어 2"><rect class="cls-1" x="30.37" y="68.366" width="0.609" height="0.74"/><path class="cls-1" d="M45.751,11.912a7.541,7.541,0,0,1-3.821,6.681.628.628,0,0,0-.317.541v2.137c-.089.012-.177.023-.271.029-.194.018-.394.024-.595.024a2.712,2.712,0,0,1-.312-.012,6.939,6.939,0,0,1-1-.106h1v-.688H37.41a7.026,7.026,0,0,1-1.419-.948,3.255,3.255,0,0,1-.259-.23A7.329,7.329,0,0,1,40.747,6.673a7.134,7.134,0,0,1,.942.059,7.289,7.289,0,0,1,2.543.818A7.457,7.457,0,0,1,45.751,11.912Z"/><path class="cls-1" d="M45.421,18.746l.471.471a7.582,7.582,0,0,1-.907.759l-.394-.4a.587.587,0,0,1,.83-.83Z"/><path class="cls-1" d="M48,12.953h-.176a.586.586,0,0,1-.094-1.165A7.071,7.071,0,0,1,48,12.953Z"/><rect class="cls-1" x="103.885" y="33.027" width="5.597" height="5.597"/><rect class="cls-1" x="103.885" y="42.466" width="5.597" height="5.597"/><rect class="cls-1" x="103.885" y="51.817" width="5.597" height="5.597"/><path class="cls-1" d="M50.21,62.933l1.52-5.99H32.09l-1.7,6.331-.27,1.019a.8.8,0,0,1,.14.111,2.455,2.455,0,0,1,.41.389,2.961,2.961,0,0,1,.41.571,2.4,2.4,0,0,1,.28,1.259,2.924,2.924,0,0,1-.41,1.25,2.038,2.038,0,0,1-.14.18,2.929,2.929,0,0,1,.04.311.8.8,0,0,1,.01.16v.08a1.1,1.1,0,0,1-.01.18,1.67,1.67,0,0,1-.03.32,2,2,0,0,1-.05.26H50.52l.08-.3.07-.28.29-1.17a.039.039,0,0,0,.01-.031l.3-1.16a.036.036,0,0,0,.01-.03l.39-1.529A3.7,3.7,0,0,0,50.21,62.933Zm-1.92,5.851a2.652,2.652,0,0,1,0-5.281,2.422,2.422,0,0,1,.54.071,2.333,2.333,0,0,1,1.06.6,2.732,2.732,0,0,1,.81,1.97A2.54,2.54,0,0,1,48.29,68.784Z"/><path d="M114.66,25.074V61.9a.585.585,0,0,1-.59.59H69.82a.59.59,0,1,1,0-1.18h43.66V25.663H70.93a10.266,10.266,0,0,0-.62-1.18h43.76A.591.591,0,0,1,114.66,25.074Z"/><path d="M44.23,7.554A7.529,7.529,0,0,0,38.57,4.5a7.539,7.539,0,0,0-7.43,10.15,7.443,7.443,0,0,0,1.3,2.23,7.62,7.62,0,0,0,1.96,1.66l.07.04a.647.647,0,0,1,.34.55v2.54a.215.215,0,0,0,.01.08.43.43,0,0,0,.01.16,3.2,3.2,0,0,0,3.19,2.97h.38a3.209,3.209,0,0,0,3.2-2.97.487.487,0,0,0,.01-.12v-2.66a.641.641,0,0,1,.32-.54,7.546,7.546,0,0,0,3.82-6.68A7.4,7.4,0,0,0,44.23,7.554Zm-2.88,10.02a1.76,1.76,0,0,0-.91,1.559v2.54a1.872,1.872,0,0,1-.14.71A2.023,2.023,0,0,1,38.4,23.7h-.38a2.01,2.01,0,0,1-1.89-1.321,1.872,1.872,0,0,1-.14-.71v-2.54a1.834,1.834,0,0,0-.93-1.579L35,17.523a5.476,5.476,0,0,1-1.03-.759,5.456,5.456,0,0,1-.63-.641,6.214,6.214,0,0,1-1.49-4.089,6.33,6.33,0,0,1,1.97-4.611,6.434,6.434,0,0,1,4.7-1.75,6.288,6.288,0,0,1,3.17,1.06,6.347,6.347,0,0,1-.34,10.841Z"/><path d="M50.578,12.365a.586.586,0,0,1-.589.588H47.823a.586.586,0,0,1-.094-1.165.238.238,0,0,1,.094-.012h2.166A.591.591,0,0,1,50.578,12.365Z"/><path d="M28.6,12.955H26.433a.589.589,0,1,1,0-1.177H28.6a.589.589,0,1,1,0,1.177Z"/><path d="M46.957,21.112a.61.61,0,0,1-.417.171.6.6,0,0,1-.418-.171l-1.137-1.136-.394-.4a.587.587,0,0,1,.83-.83l.471.471,1.065,1.059A.593.593,0,0,1,46.957,21.112Z"/><path d="M31.415,6.159A.587.587,0,0,1,31,5.987L29.466,4.454a.589.589,0,0,1,.833-.832l1.533,1.533a.588.588,0,0,1-.417,1Z"/><path d="M45.006,6.159a.588.588,0,0,1-.416-1l1.533-1.533a.588.588,0,1,1,.832.832L45.422,5.987A.587.587,0,0,1,45.006,6.159Z"/><path d="M29.882,21.283a.589.589,0,0,1-.416-1.005L31,18.746a.589.589,0,1,1,.833.832L30.3,21.111A.592.592,0,0,1,29.882,21.283Z"/><path d="M41.613,19.929a.591.591,0,0,1-.589.589H35.4a.589.589,0,0,1,0-1.178h5.621A.591.591,0,0,1,41.613,19.929Z"/><path d="M41.613,21.8a.725.725,0,0,1-.012.118v0a.587.587,0,0,1-.577.465H35.4a.582.582,0,0,1-.577-.465v0a.725.725,0,0,1-.012-.118.1.1,0,0,1,.006-.041.578.578,0,0,1,.583-.548h5.621a.6.6,0,0,1,.318.094.608.608,0,0,1,.259.371.36.36,0,0,1,.006.083A.1.1,0,0,1,41.613,21.8Z"/><path d="M61.16,40.4a7.557,7.557,0,0,1-2.33-.71.759.759,0,0,0,.13.071.749.749,0,0,1,.1.049c.11.051.22.1.34.15a.516.516,0,0,0,.08.02c.1.04.21.08.32.12.22.07.47.141.73.2.13.029.27.06.41.079h.04a3.39,3.39,0,0,0,.47.06,1.914,1.914,0,0,0,.25.02,6.169,6.169,0,0,0,.86,0,.9.9,0,0,0,.17-.02A8.2,8.2,0,0,1,61.16,40.4Zm-2.54-.81c.05.021.1.05.16.08-.07-.04-.15-.08-.22-.119A.2.2,0,0,0,58.62,39.593Zm2.54.81a7.557,7.557,0,0,1-2.33-.71.759.759,0,0,0,.13.071.749.749,0,0,1,.1.049c.11.051.22.1.34.15a.516.516,0,0,0,.08.02c.1.04.21.08.32.12.22.07.47.141.73.2.13.029.27.06.41.079h.04a3.39,3.39,0,0,0,.47.06,1.914,1.914,0,0,0,.25.02,6.169,6.169,0,0,0,.86,0,.9.9,0,0,0,.17-.02A8.2,8.2,0,0,1,61.16,40.4Zm-2.54-.81c.05.021.1.05.16.08-.07-.04-.15-.08-.22-.119A.2.2,0,0,0,58.62,39.593Zm2.54.81a2.331,2.331,0,0,0,.29.04,1.914,1.914,0,0,0,.25.02,6.169,6.169,0,0,0,.86,0,.9.9,0,0,0,.17-.02A8.2,8.2,0,0,1,61.16,40.4Zm-2.2-.639a.749.749,0,0,1,.1.049c.11.051.22.1.34.15a.516.516,0,0,0,.08.02c.1.04.21.08.32.12.22.07.47.141.73.2.13.029.27.06.41.079h.04a1.1,1.1,0,0,0,.18.02,7.557,7.557,0,0,1-2.33-.71A.759.759,0,0,0,58.96,39.764Zm-.34-.171c.05.021.1.05.16.08-.07-.04-.15-.08-.22-.119A.2.2,0,0,0,58.62,39.593Zm13.57-13.93a8.335,8.335,0,0,0-.52-1.18,9.031,9.031,0,0,0-1.52-2.09,9.692,9.692,0,0,0-2.76-1.99,12.781,12.781,0,0,0-10.44-.09c-5.82,2.551-6.12,8.29-6.07,9.991a1.413,1.413,0,0,0,1.2,1.359c.5.09,1.05.141,1.45.19a9.47,9.47,0,0,0-.07,1.07,8.718,8.718,0,0,0,2.86,6.45l.05.05c.19.17.38.321.58.47a8.548,8.548,0,0,0,5.22,1.75c.33,0,.67-.02,1.01-.05.07-.01.15-.019.22-.03.12-.02.23-.04.35-.049a8.959,8.959,0,0,0,2.82-1.051h.01a7.878,7.878,0,0,0,.85-.57,6.208,6.208,0,0,0,.63-.52,8.676,8.676,0,0,0,2.8-5.53,9.007,9.007,0,0,0-.07-2.38,3.792,3.792,0,0,0,1.22-.32,1.383,1.383,0,0,0,.79-1.169A10.364,10.364,0,0,0,72.19,25.663Zm-.56,4.23a.239.239,0,0,1-.12.181,3.277,3.277,0,0,1-1.44.25.561.561,0,0,0-.46.23.611.611,0,0,0-.11.509,7.409,7.409,0,0,1,.19,2.661,7.546,7.546,0,0,1-3.57,5.64c-.01.009-.02.009-.03.019s-.02.01-.03.02a7.221,7.221,0,0,1-2.47.93c-.19.031-.38.07-.57.09h-.06a1.5,1.5,0,0,1-.23.02,8.2,8.2,0,0,1-1.57-.04,7.557,7.557,0,0,1-2.33-.71.1.1,0,0,1-.05-.02c-.07-.04-.15-.08-.22-.119-.05-.031-.11-.06-.16-.091a1.059,1.059,0,0,1-.1-.07.664.664,0,0,0-.08-.05,7.964,7.964,0,0,1-1.07-.8,7.577,7.577,0,0,1-2.51-5.62,7.44,7.44,0,0,1,.15-1.489.609.609,0,0,0-.11-.471.62.62,0,0,0-.43-.23c-.01,0-1.07-.08-1.99-.23a.228.228,0,0,1-.2-.23,9.034,9.034,0,0,1,5.36-8.88,11.888,11.888,0,0,1,4.72-.97,10.955,10.955,0,0,1,4.74,1.04A8.677,8.677,0,0,1,69.3,23.2a8.31,8.31,0,0,1,1.01,1.279,10.266,10.266,0,0,1,.62,1.18A9.194,9.194,0,0,1,71.63,29.893ZM61.16,40.4a2.331,2.331,0,0,0,.29.04,1.914,1.914,0,0,0,.25.02,6.169,6.169,0,0,0,.86,0,.9.9,0,0,0,.17-.02A8.2,8.2,0,0,1,61.16,40.4Zm-2.2-.639a.749.749,0,0,1,.1.049c.11.051.22.1.34.15a.516.516,0,0,0,.08.02c.1.04.21.08.32.12.22.07.47.141.73.2.13.029.27.06.41.079h.04a1.1,1.1,0,0,0,.18.02,7.557,7.557,0,0,1-2.33-.71A.759.759,0,0,0,58.96,39.764Zm-.34-.171c.05.021.1.05.16.08-.07-.04-.15-.08-.22-.119A.2.2,0,0,0,58.62,39.593Zm2.54.81a7.557,7.557,0,0,1-2.33-.71.759.759,0,0,0,.13.071.749.749,0,0,1,.1.049c.11.051.22.1.34.15a.516.516,0,0,0,.08.02c.1.04.21.08.32.12.22.07.47.141.73.2.13.029.27.06.41.079h.04a3.39,3.39,0,0,0,.47.06,1.914,1.914,0,0,0,.25.02,6.169,6.169,0,0,0,.86,0,.9.9,0,0,0,.17-.02A8.2,8.2,0,0,1,61.16,40.4Zm-2.54-.81c.05.021.1.05.16.08-.07-.04-.15-.08-.22-.119A.2.2,0,0,0,58.62,39.593Z"/><path d="M49.116,55.05a.589.589,0,0,1-.589-.588V49.027c0-5.189,4.166-9.74,8.914-9.74h.52a.589.589,0,0,1,.342.109,7.429,7.429,0,0,0,7.82-.033.593.593,0,0,1,.291-.076h.52A8.815,8.815,0,0,1,74.275,43.7l1.907,2.769a.589.589,0,0,1-.97.668l-1.921-2.791a7.667,7.667,0,0,0-6.357-3.884h-.368a8.623,8.623,0,0,1-8.781,0h-.344c-4.049,0-7.736,4.081-7.736,8.563v5.435A.589.589,0,0,1,49.116,55.05Z"/><path d="M56.688,31.879a4.808,4.808,0,0,1-.612-.032.587.587,0,0,1-.507-.659.6.6,0,0,1,.658-.508,7.268,7.268,0,0,0,6.759-3.688.588.588,0,0,1,1.068.168A4.55,4.55,0,0,0,68.1,30.353a.589.589,0,0,1,.532.64.579.579,0,0,1-.64.532,5.7,5.7,0,0,1-4.632-3.02A8.428,8.428,0,0,1,56.688,31.879Z"/><circle cx="59.139" cy="33.813" r="0.834"/><circle cx="65.58" cy="33.813" r="0.834"/><path d="M62.313,36.373a.589.589,0,1,1,0-1.178.091.091,0,0,0,0-.182.589.589,0,1,1,0-1.177,1.269,1.269,0,0,1,0,2.537Z"/><path d="M62.313,39.307a2.435,2.435,0,0,1-2.432-2.433.589.589,0,0,1,1.177,0,1.255,1.255,0,1,0,2.509,0,.589.589,0,0,1,1.177,0A2.435,2.435,0,0,1,62.313,39.307Z"/><path d="M60.5,45.206a.59.59,0,0,1-.4-.154l-2.715-2.486a.588.588,0,0,1,.794-.868l2.327,2.129L61.8,42.692a.59.59,0,0,1,.777,0l1.293,1.135L66.195,41.7a.588.588,0,1,1,.794.868l-2.715,2.486a.591.591,0,0,1-.786.008l-1.3-1.142-1.3,1.142A.59.59,0,0,1,60.5,45.206Z"/><path d="M62.186,48.378a.588.588,0,0,1-.588-.589V43.9a.589.589,0,1,1,1.177,0v3.885A.588.588,0,0,1,62.186,48.378Z"/><path d="M34.174,55.085a.587.587,0,0,1-.464-.225c-.891-1.132-3.265-3.766-6.059-3.766h-.515a.589.589,0,0,1,0-1.178h.515c3.19,0,5.745,2.642,6.985,4.216a.589.589,0,0,1-.462.953Z"/><path d="M9.883,63.509a.589.589,0,0,1-.589-.589V59.631c0-5.175,4.155-9.715,8.892-9.715H18.7a.589.589,0,0,1,0,1.178h-.519c-4.038,0-7.714,4.069-7.714,8.537V62.92A.589.589,0,0,1,9.883,63.509Z"/><path d="M27.892,69.958H13.084A3.789,3.789,0,0,1,9.3,66.176V60a.589.589,0,1,1,1.177,0v6.174a2.61,2.61,0,0,0,2.61,2.6H27.892a2.255,2.255,0,0,0,.379-.028,2.65,2.65,0,0,0,2.257-2.608,2.621,2.621,0,0,0-.773-1.863,1.7,1.7,0,0,0-.2-.177,2.579,2.579,0,0,0-1.659-.6H17.148a.588.588,0,0,1-.588-.589V60.087a.589.589,0,1,1,1.177,0v2.244H27.892a3.709,3.709,0,0,1,2.374.839,2.583,2.583,0,0,1,.321.279,3.787,3.787,0,0,1,1.118,2.7,3.831,3.831,0,0,1-3.249,3.771A3.381,3.381,0,0,1,27.892,69.958Z"/><path d="M52.31,54.643l-.58,2.3-1.52,5.99-.16.6v.009l-.16.63a2.333,2.333,0,0,0-1.06-.6l.15-.561V63l.14-.57,1.39-5.49.48-1.86H30.6L28.63,62.4l-.17.67a.585.585,0,0,1-.52.429h-.05a.213.213,0,0,1-.08,0,.247.247,0,0,1-.07-.019.586.586,0,0,1-.42-.71l.12-.441,2.14-7.99a.6.6,0,0,1,.57-.44H51.74a.569.569,0,0,1,.47.23A.577.577,0,0,1,52.31,54.643Z"/><path d="M17.435,42.53a5.147,5.147,0,0,1-.611-.031.589.589,0,0,1-.507-.66.6.6,0,0,1,.658-.508,7.243,7.243,0,0,0,6.74-3.677.589.589,0,0,1,1.069.168,4.534,4.534,0,0,0,4.035,3.183.59.59,0,0,1,.533.641.581.581,0,0,1-.641.532,5.682,5.682,0,0,1-4.619-3.011A8.408,8.408,0,0,1,17.435,42.53Z"/><path d="M17.38,32.463c.22-.12.46-.239.71-.349A3.361,3.361,0,0,0,17.38,32.463Zm0,0c.22-.12.46-.239.71-.349A3.361,3.361,0,0,0,17.38,32.463Zm0,0c.22-.12.46-.239.71-.349A3.361,3.361,0,0,0,17.38,32.463Zm11.09-1.29a5.574,5.574,0,0,0-11.12-.03v.01c-.23.111-.45.23-.66.35a.174.174,0,0,0-.03.02h-.01c-4.79,2.73-5.06,7.85-5.01,9.44a1.432,1.432,0,0,0,1.19,1.361c.51.069,1.05.139,1.45.179a9.465,9.465,0,0,0-.06,1.071A8.708,8.708,0,0,0,17.06,50c.02.02.04.031.05.051a8.908,8.908,0,0,0,1.42,1.039,8.735,8.735,0,0,0,8.76,0,9.623,9.623,0,0,0,1.47-1.07,8.751,8.751,0,0,0,2.82-5.54,8.934,8.934,0,0,0-.08-2.369,3.817,3.817,0,0,0,1.22-.321,1.4,1.4,0,0,0,.79-1.17A9.88,9.88,0,0,0,28.47,31.173Zm3.86,9.381a.218.218,0,0,1-.11.179,3.575,3.575,0,0,1-1.44.25.587.587,0,0,0-.57.73,7.639,7.639,0,0,1,.19,2.66,7.522,7.522,0,0,1-3.59,5.641,7.391,7.391,0,0,1-3.03,1.029,7.472,7.472,0,0,1-4.74-1.02c-.01-.009-.03-.02-.04-.029a7.668,7.668,0,0,1-1.1-.821,7.5,7.5,0,0,1-2.36-7.09.591.591,0,0,0-.53-.7c-.02,0-1.08-.079-1.99-.23a.228.228,0,0,1-.2-.23,9.072,9.072,0,0,1,4.45-8.4l.06-.029a.034.034,0,0,1,.02-.011l.02-.02h.01c.22-.12.46-.239.71-.349a.128.128,0,0,1,.08-.031.608.608,0,0,0,.35-.549,4.57,4.57,0,0,1,.08-.83,4.389,4.389,0,0,1,8.7.83.6.6,0,0,0,.35.54A8.663,8.663,0,0,1,32.33,40.554ZM17.38,32.463c.22-.12.46-.239.71-.349A3.361,3.361,0,0,0,17.38,32.463Zm0,0c.22-.12.46-.239.71-.349A3.361,3.361,0,0,0,17.38,32.463Z"/><path d="M17.008,32.583a.588.588,0,0,1-.346-1.064,8.545,8.545,0,0,1,4.777-1.165.589.589,0,1,1,0,1.177,7.625,7.625,0,0,0-4.092.945A.594.594,0,0,1,17.008,32.583Z"/><circle cx="19.88" cy="44.458" r="0.832"/><circle cx="26.304" cy="44.458" r="0.832"/><path d="M23.045,47.012a.589.589,0,1,1,0-1.177.09.09,0,0,0,0-.179.589.589,0,1,1,0-1.177,1.267,1.267,0,1,1,0,2.533Z"/><path d="M23.045,49.939a2.429,2.429,0,0,1-2.427-2.427.589.589,0,1,1,1.177,0,1.25,1.25,0,0,0,2.5,0,.589.589,0,1,1,1.177,0A2.43,2.43,0,0,1,23.045,49.939Z"/><path d="M75.126,55.734a3.5,3.5,0,0,1-1.7-.433,7.5,7.5,0,0,1-2.305-2.341c-.166-.229-.331-.456-.5-.673L69.186,50.2a.589.589,0,0,1,.972-.665l1.407,2.056c.156.2.329.436.5.676A6.509,6.509,0,0,0,74,54.273a2.579,2.579,0,0,0,2.98-.474l8.559-8.542a2.636,2.636,0,0,0-3.729-3.728l-5.692,5.692a.588.588,0,0,1-.832-.832L80.973,40.7a3.813,3.813,0,0,1,5.393,5.393l-8.559,8.542A3.81,3.81,0,0,1,75.126,55.734Z"/><path d="M55.868,59.255a.588.588,0,0,1-.589-.588V49.734a.589.589,0,0,1,1.177,0v8.933A.588.588,0,0,1,55.868,59.255Z"/><path d="M69.524,69.959a.589.589,0,0,1-.589-.589V49.734a.589.589,0,0,1,1.178,0V69.37A.589.589,0,0,1,69.524,69.959Z"/><path d="M38.211,3.345a.588.588,0,0,1-.589-.589V.589a.589.589,0,1,1,1.177,0V2.756A.588.588,0,0,1,38.211,3.345Z"/><path d="M98.059,34.676h-16.5a.589.589,0,1,1,0-1.178h16.5a.589.589,0,0,1,0,1.178Z"/><path d="M98.059,53.5H85.843a.589.589,0,0,1,0-1.178H98.059a.589.589,0,1,1,0,1.178Z"/><path d="M98.059,44.089H90.575a.589.589,0,1,1,0-1.178h7.484a.589.589,0,0,1,0,1.178Z"/><path d="M107.73,30.7h-5.6a.59.59,0,0,0-.59.589v5.59a.592.592,0,0,0,.59.591h5.6a.592.592,0,0,0,.59-.591v-5.59A.59.59,0,0,0,107.73,30.7Zm-.59,5.6h-4.42V31.873h4.42Z"/><path d="M107.73,40.114h-5.6a.59.59,0,0,0-.59.59v5.6a.6.6,0,0,0,.59.589h5.6a.6.6,0,0,0,.59-.589V40.7A.59.59,0,0,0,107.73,40.114Zm-.59,5.6h-4.42v-4.42h4.42Z"/><path d="M107.73,49.523h-5.6a.6.6,0,0,0-.59.591v5.6a.6.6,0,0,0,.59.591h5.6a.6.6,0,0,0,.59-.591v-5.6A.6.6,0,0,0,107.73,49.523Zm-.59,5.6h-4.42V50.7h4.42Z"/><path d="M51.67,64.864a3.7,3.7,0,0,0-1.46-1.931,3.418,3.418,0,0,0-1.09-.5,3.3,3.3,0,0,0-.83-.1,3.709,3.709,0,0,0-3.59,3.81,3.946,3.946,0,0,0,1,2.641,3.438,3.438,0,0,0,1.64,1.03h.02a2.857,2.857,0,0,0,.93.14,3.13,3.13,0,0,0,1.02-.161h.01a3.652,3.652,0,0,0,1.28-.729c.1-.091.19-.181.28-.28a3.946,3.946,0,0,0,1-2.641A4.13,4.13,0,0,0,51.67,64.864Zm-3.38,3.92a2.652,2.652,0,0,1,0-5.281,2.422,2.422,0,0,1,.54.071,2.333,2.333,0,0,1,1.06.6,2.732,2.732,0,0,1,.81,1.97A2.54,2.54,0,0,1,48.29,68.784Z"/><path d="M78.82,68.784H.58a.582.582,0,0,0-.58.589v32.09a.588.588,0,0,0,.58.59H78.82a.6.6,0,0,0,.59-.59V69.373A.59.59,0,0,0,78.82,68.784Zm-.59,32.089H1.17V69.954H78.23Z"/></g></svg>