<svg xmlns="http://www.w3.org/2000/svg" viewBox="0 0 100.04 70.222"><defs><style>.cls-1{fill:#fb3;}.cls-2{fill:#fff;}</style></defs><g id="레이어_2" data-name="레이어 2"><path class="cls-1" d="M89.219,48.739a4.257,4.257,0,0,1-2.638.845,5.074,5.074,0,0,1-1.685-.3c.057-.151.126-.328.209-.523.056-.152.119-.291.17-.436l2.2-5.862,1.565,4.177c.051.133.107.265.164.4C89.578,47.969,89.667,48.322,89.219,48.739Z"/><path class="cls-1" d="M87.291,15.543l-.053-.088a.334.334,0,0,0-.048-.053.653.653,0,0,0-.206-.136.546.546,0,0,0-.211-.041H83.612L50.86,2.422,17.307,15.82,50.854,29.229l1.625.647,20-7.823.047-.017,13.65-5.345.806-.318a.592.592,0,0,0,.383-.553A.532.532,0,0,0,87.291,15.543ZM47.805,18.074a.7.7,0,0,1-.112-.006,2.205,2.205,0,0,1-.347.03,2.272,2.272,0,1,1,0-4.544,1.931,1.931,0,0,1,.37.035.444.444,0,0,1,.089-.006,2.246,2.246,0,1,1,0,4.491Z"/><path d="M47.807,31.658a.59.59,0,0,1-.215-.04L19.425,20.6a.589.589,0,1,1,.429-1.1L47.807,30.437,75.753,19.505a.589.589,0,1,1,.429,1.1L48.021,31.618A.584.584,0,0,1,47.807,31.658Z"/><path d="M47.807,45.572a.6.6,0,0,1-.216-.041L19.417,34.458a.589.589,0,0,1-.373-.548V20.054a.589.589,0,0,1,.588-.589.646.646,0,0,1,.222.04L47.807,30.437,75.753,19.505a.609.609,0,0,1,.809.549V33.967a.589.589,0,0,1-.374.549L48.021,45.531A.585.585,0,0,1,47.807,45.572ZM20.221,33.509,47.807,44.351,75.385,33.566V20.914l-27.364,10.7a.588.588,0,0,1-.429,0l-27.371-10.7Z"/><path d="M47.807,41.27a.591.591,0,0,1-.215-.041L19.418,30.214a.589.589,0,1,1,.429-1.1l27.96,10.932L75.76,29.117a.589.589,0,0,1,.429,1.1L48.021,41.229A.585.585,0,0,1,47.807,41.27Z"/><path d="M47.807,31.658a.59.59,0,0,1-.215-.04L19.425,20.6a.589.589,0,1,1,.429-1.1L47.807,30.437,75.753,19.505a.589.589,0,1,1,.429,1.1L48.021,31.618A.584.584,0,0,1,47.807,31.658Z"/><path class="cls-1" d="M91.058,35.248a4.405,4.405,0,0,1-3.152,4.188,3.191,3.191,0,1,1,3.152-4.188Z"/><path d="M86.779,31.06a4.277,4.277,0,0,0-.819,8.476,4.126,4.126,0,0,0,1.637,0,3.2,3.2,0,0,0,.4-.1,4.279,4.279,0,0,0,3.061-4.067v-.03A4.287,4.287,0,0,0,86.779,31.06Zm0,7.381a3.1,3.1,0,1,1,3.1-3.1A3.091,3.091,0,0,1,86.779,38.441Z"/><path d="M90.316,46.77c-.047-.112-.094-.229-.135-.347L87.6,39.536h-.006l-.265-.712a.584.584,0,0,0-.547-.383.593.593,0,0,0-.554.383l-.265.712-2.584,6.887c-.047.118-.094.235-.141.347-.33.813-.777,1.919.276,2.891a4.272,4.272,0,0,0,1.961.947,5.57,5.57,0,0,0,1.307.153,5.051,5.051,0,0,0,3.261-1.1,1.961,1.961,0,0,0,.618-1.025A3.256,3.256,0,0,0,90.316,46.77ZM89.239,48.8a3.962,3.962,0,0,1-2.46.789,4.72,4.72,0,0,1-1.572-.277,2.656,2.656,0,0,1-.895-.512c-.418-.382-.335-.718.018-1.577.047-.13.1-.253.147-.377l2.3-6.134.835,2.237,1.46,3.9c.047.124.1.247.153.371C89.575,48.077,89.657,48.407,89.239,48.8Z"/><path d="M25.707,56.908a.576.576,0,0,1-.252-.057L3.9,46.616A6.3,6.3,0,0,1,.515,42.605c-.994-3.614-1.4-10.089,7.051-12.858a5.206,5.206,0,0,1,3.574.122l22.82,9.144a.589.589,0,0,1-.1,1.124,15.446,15.446,0,0,0-4.781,2.016.589.589,0,0,1-.645-.985,16.181,16.181,0,0,1,3.5-1.7L10.7,30.961a4.022,4.022,0,0,0-2.767-.095C.786,33.207.572,38.372,1.65,42.292a5.13,5.13,0,0,0,2.757,3.261l20.244,9.613c-1.7-5.035-1.172-9.117,1.585-12.145a.589.589,0,0,1,.871.792c-2.673,2.937-2.96,7.07-.854,12.286a.588.588,0,0,1-.546.809Z"/><path d="M19.105,53.773a.589.589,0,0,1-.548-.374A19.466,19.466,0,0,1,17.2,47.812a.588.588,0,0,1,.543-.63.58.58,0,0,1,.631.543,18.266,18.266,0,0,0,1.284,5.245.589.589,0,0,1-.334.763A.6.6,0,0,1,19.105,53.773Z"/><path d="M17.888,45.6a.6.6,0,0,1-.094-.007.588.588,0,0,1-.488-.675c1.151-7.127,8.739-8.949,8.815-8.967a.588.588,0,0,1,.264,1.147c-.068.017-6.894,1.672-7.917,8.007A.587.587,0,0,1,17.888,45.6Z"/><path class="cls-1" d="M20.733,56.147h-.041c-2.749-.106-5.8-.259-7.988,1.484a5.356,5.356,0,0,0-1.778,6.175,4.74,4.74,0,0,0,.383.718,4.587,4.587,0,0,0,.93,1.048,5.692,5.692,0,0,0,1.142.111,6.391,6.391,0,0,0,2.943-.73c2.608-1.353,3.78-4.238,4.81-6.8l.053-.036c.235-.547.471-1.089.665-1.607.047-.111.088-.224.135-.335h-.024C21.563,56.177,21.157,56.159,20.733,56.147Z"/><path class="cls-1" d="M24.124,56.218c-.436-.024-.877-.03-1.319-.03.036.03.071.065.106.1.141.142.289.289.436.43"/><path class="cls-1" d="M29.639,63.6a7.37,7.37,0,0,0-1.295-3.32c-.953-.983-2-1.89-2.9-2.779-.435-.435-.871-.865-1.324-1.283-.13.294-.253.589-.371.889-.112.271-.218.547-.324.818-1.118,2.89-3.084,6.269-2.078,9.454a5.814,5.814,0,0,0,1.866,2.755h.006a5.348,5.348,0,0,0,2.055-.024.507.507,0,0,0,.1-.03,5.191,5.191,0,0,0,1.548-.629A5.993,5.993,0,0,0,29.639,63.6Z"/><path d="M22.587,54.617a.651.651,0,0,1-.052.218c-.189.477-.389.93-.572,1.342-.052.118-.105.235-.153.347-.223.512-.441,1.048-.665,1.6-.006.012-.006.018-.011.03-1.03,2.56-2.2,5.445-4.81,6.8a6.391,6.391,0,0,1-2.943.73,5.692,5.692,0,0,1-1.142-.111,5.393,5.393,0,0,1-3.514-2.314c-.012-.012-.017-.029-.03-.041a.587.587,0,0,1,.984-.642,4.254,4.254,0,0,0,2.089,1.649,4.992,4.992,0,0,0,4.015-.318c1.754-.907,2.766-2.691,3.608-4.621.236-.53.448-1.066.665-1.6s.418-1.042.636-1.537c.012-.035.029-.064.041-.1.124-.276.259-.577.395-.894.112-.254.217-.518.324-.783A.584.584,0,0,1,22,54h.023a.589.589,0,0,1,.506.341.5.5,0,0,1,.03.065A.6.6,0,0,1,22.587,54.617Z"/><path d="M9.183,63.484a.586.586,0,0,1-.494-.269,5.814,5.814,0,0,1,1.526-7.674c2.311-1.839,5.445-1.722,8.211-1.62.592.022,1.173.043,1.728.045.622,0,1.25.008,1.869.035a.588.588,0,0,1,.563.613.573.573,0,0,1-.613.563c-.605-.026-1.216-.031-1.823-.034-.567,0-1.161-.023-1.768-.046-2.685-.1-5.463-.2-7.434,1.364a4.646,4.646,0,0,0-1.272,6.114.589.589,0,0,1-.493.909Z"/><path d="M26.926,69.451a5.191,5.191,0,0,1-1.548.629.551.551,0,0,1-.095.024.428.428,0,0,1-.123.012.588.588,0,0,1-.153-1.154c.012,0,.017-.006.029-.006l.006-.006a4.048,4.048,0,0,0,1.619-.736,4.869,4.869,0,0,0,1.807-4.479c-.265-2.4-2.137-4.227-4.02-5.986l-.254-.236-.441-.406-.406-.389c-.147-.141-.3-.288-.436-.43-.035-.035-.07-.07-.106-.1-.194-.2-.394-.394-.588-.588-.153-.141-.306-.288-.459-.43-.054-.047-.106-.1-.159-.147a.572.572,0,0,1-.154-.63.1.1,0,0,1,.012-.035.621.621,0,0,1,.106-.165.417.417,0,0,1,.047-.047c.012-.012.03-.024.042-.035h.006a.327.327,0,0,1,.088-.053c.006,0,.012-.006.017-.006l.106-.036a.289.289,0,0,1,.065,0,.571.571,0,0,1,.171,0c.018,0,.029.006.047.006a.019.019,0,0,1,.017.006c.007,0,.007,0,.012.006h.012c.012.006.03.012.041.018l.042.018a0,0,0,0,1,0,.005c.012,0,.018.006.03.012s.006.006.012.006l0,.006.012.012c.012.011.024.017.03.023s.011.006.011.012a.006.006,0,0,1,.006.006c.006,0,.006,0,.012.006l.041.047h.006c.477.441.919.877,1.295,1.254.395.394.818.788,1.254,1.194a22.081,22.081,0,0,1,3.349,3.627,7.37,7.37,0,0,1,1.295,3.32A5.993,5.993,0,0,1,26.926,69.451Z"/><path d="M25.378,70.08a.507.507,0,0,1-.1.03,5.348,5.348,0,0,1-2.055.024h-.006a6.038,6.038,0,0,1-4.556-4.2,6.954,6.954,0,0,1-.282-2.632l.006-.006a13.97,13.97,0,0,1,1.053-4.038c.212-.535.442-1.059.659-1.571.224-.53.442-1.036.636-1.537.006-.017.018-.041.024-.059.106-.276.212-.553.323-.83.006-.011.013-.029.018-.041s.018-.047.024-.064h.006c.094-.242.194-.483.3-.719a.069.069,0,0,1,.017-.041.1.1,0,0,1,.012-.035.621.621,0,0,1,.106-.165.417.417,0,0,1,.047-.047c.012-.012.03-.024.042-.035h.006a.327.327,0,0,1,.088-.053l.006-.006c.023-.012.053-.018.076-.03s.03-.006.041-.006a.289.289,0,0,1,.065,0A.248.248,0,0,1,22,54a.276.276,0,0,1,.07.006.236.236,0,0,1,.059.011c.012,0,.018,0,.024.006a.019.019,0,0,1,.017.006c.007,0,.007,0,.012.006h.012c.012.006.03.012.041.018a.131.131,0,0,1,.03.018c.006,0,.012.005.017.005s.012.012.018.012a.021.021,0,0,1,.012.006.122.122,0,0,1,.029.018c.012.011.024.017.03.023s.011.006.011.012a.006.006,0,0,1,.006.006l.053.053a.1.1,0,0,1,.03.041.06.06,0,0,1,.023.029.536.536,0,0,1,.042.077.062.062,0,0,1,.011.029.553.553,0,0,1,0,.442c0,.006-.006.006-.006.012s-.012.029-.018.047c-.094.218-.183.43-.271.647a.354.354,0,0,0-.029.071.694.694,0,0,1-.041.088c-.059.165-.124.324-.189.489-.047.111-.088.224-.135.335-.194.518-.43,1.06-.665,1.607-.006.012-.006.018-.012.03-1.054,2.472-2.149,5.027-1.389,7.428a5.112,5.112,0,0,0,1.907,2.649,4.229,4.229,0,0,0,3.314.736c.012,0,.017-.006.029-.006a.591.591,0,0,1,.7.453A.6.6,0,0,1,25.378,70.08Z"/><path d="M45.376,66.194a.587.587,0,0,1-.25-.056L19.308,53.932a.588.588,0,1,1,.5-1.064L43.96,64.284a8.045,8.045,0,0,1-.481-3.166c.158-4.185,2.988-8.878,8.414-13.959L33.53,40.11a.589.589,0,0,1,.422-1.1L53.2,46.4a.588.588,0,0,1,.184.986c-6.99,6.332-8.6,10.957-8.727,13.722a5.8,5.8,0,0,0,1.15,4.1.59.59,0,0,1-.431.991Z"/><path d="M58.922,54.293a.577.577,0,0,1-.231-.048l-8.924-3.817a.589.589,0,0,1,.464-1.082l8.923,3.818a.588.588,0,0,1-.232,1.129Z"/><path d="M51.787,68.319a12.818,12.818,0,0,1-6.721-2.214.589.589,0,1,1,.623-1c2.932,1.832,5.64,2.431,8.042,1.78,3.3-.892,5.331-3.949,6.248-5.692a7.22,7.22,0,0,0,.858-3.263,3.558,3.558,0,0,0-1.832-3.553,3.761,3.761,0,0,0-3.741.337,6.043,6.043,0,0,0-2.6,6.5.589.589,0,0,1-.843.625L44.54,58.214a.589.589,0,1,1,.525-1.054L51.38,60.3a7.121,7.121,0,0,1,3.23-6.566,4.944,4.944,0,0,1,4.919-.411c1.149.572,2.513,1.838,2.485,4.619a8.407,8.407,0,0,1-.993,3.8c-1.006,1.912-3.252,5.272-6.983,6.281A8.606,8.606,0,0,1,51.787,68.319Z"/><path d="M91.359,29.572a.589.589,0,0,1-.49-.913l1.854-2.8a.589.589,0,1,1,.982.65l-1.855,2.8A.585.585,0,0,1,91.359,29.572Z"/><path d="M93.215,32.007a.588.588,0,0,1-.264-1.115l3.5-1.744a.588.588,0,1,1,.525,1.053l-3.495,1.744A.579.579,0,0,1,93.215,32.007Z"/><path d="M97.946,40.1a.58.58,0,0,1-.191-.032L93.493,38.6a.589.589,0,0,1,.383-1.113l4.261,1.464a.589.589,0,0,1-.191,1.145Z"/><path d="M93.685,35.268a.589.589,0,0,1-.007-1.178l4.635-.05h.006a.589.589,0,0,1,.006,1.177l-4.634.051Z"/><circle cx="99.16" cy="28.589" r="0.88"/><path class="cls-2" d="M50.577,15.249a2.832,2.832,0,1,0,0,1.165,2.643,2.643,0,0,0,0-1.165Zm-2.772,2.825a.7.7,0,0,1-.112-.006,2.241,2.241,0,0,1,.023-4.479.444.444,0,0,1,.089-.006,2.246,2.246,0,1,1,0,4.491Z"/><path d="M51.178,15.243a3.42,3.42,0,1,0,0,1.177,3.294,3.294,0,0,0,0-1.177Zm-3.373,2.831a.7.7,0,0,1-.112-.006,2.241,2.241,0,0,1,.023-4.479.444.444,0,0,1,.089-.006,2.246,2.246,0,1,1,0,4.491Z"/><path d="M87.367,15.826V31.648a.589.589,0,1,1-1.177,0V16.414H83.653l-32.475.006h-.536a.218.218,0,0,1-.065-.006.586.586,0,0,1,0-1.165.218.218,0,0,1,.065-.006h.536l32.475-.006h3.126a.546.546,0,0,1,.211.041.724.724,0,0,1,.2.13.334.334,0,0,1,.048.053l.053.088A.529.529,0,0,1,87.367,15.826Z"/><path d="M87.291,15.549l-.053-.088a.334.334,0,0,0-.048-.053.724.724,0,0,0-.2-.13L52.885,1.945,48.023.044a.544.544,0,0,0-.43,0L8.619,15.278a.587.587,0,0,0,0,1.1l14.286,5.592a.335.335,0,0,1,.047.018l24.641,9.636a.687.687,0,0,0,.212.041.7.7,0,0,0,.218-.041l4.856-1.9,19.772-7.735.047-.018,13.492-5.28.8-.312a.593.593,0,0,0,.377-.547A.529.529,0,0,0,87.291,15.549Zm-3.638.865L72.31,20.853l-.047.017L51.278,29.076l-3.473,1.36L23.341,20.87a.314.314,0,0,0-.047-.017L10.45,15.826l37.355-14.6,3.479,1.36L83.653,15.237l1.507.589Z"/></g></svg>