<svg xmlns="http://www.w3.org/2000/svg" viewBox="0 0 77.626 77.626"><defs><style>.cls-1{fill:#fb3;}.cls-2{fill:#fff;}</style></defs><g id="레이어_2" data-name="레이어 2"><path class="cls-1" d="M65.141,21.393A30.877,30.877,0,0,0,61,17.45c-.308-.238-.615-.476-.935-.7-.447-.331-.906-.644-1.37-.946a30.773,30.773,0,0,0-15.261-4.948,31.135,31.135,0,0,0-4.035.052c-.389.029-.779.064-1.162.117a30.884,30.884,0,0,0-17.925,8.466c-.279.267-.552.534-.825.813a30.923,30.923,0,0,0-8.466,17.931c-.041.383-.082.773-.105,1.162-.029.267-.046.534-.058.807a30.859,30.859,0,0,0,4.988,18.541c.29.447.592.883.906,1.313.226.313.464.626.708.934a31.067,31.067,0,0,0,3.966,4.175,31.524,31.524,0,0,0,39.615-3.931.841.841,0,0,0,.11-.087.526.526,0,0,0,.087-.11,31.518,31.518,0,0,0,3.908-39.643ZM38.813,36.508a2.262,2.262,0,0,1,1.161.319,2.329,2.329,0,0,1,1.138,1.986,2.3,2.3,0,1,1-4.6,0,2.207,2.207,0,0,1,.32-1.161,2.184,2.184,0,0,1,.819-.825A2.246,2.246,0,0,1,38.813,36.508Z"/><path d="M38.813,0A38.813,38.813,0,1,0,77.626,38.813,38.854,38.854,0,0,0,38.813,0Zm0,76.465A37.652,37.652,0,1,1,76.464,38.813,37.7,37.7,0,0,1,38.813,76.465Z"/><path d="M65.141,21.393a31.69,31.69,0,0,0-3.908-4.8.006.006,0,0,0-.006-.006c-.058-.063-.122-.127-.186-.185,0,0,0-.006,0-.006a31.53,31.53,0,0,0-44.446,0,.006.006,0,0,0-.006.006c-.064.058-.127.122-.185.185a.006.006,0,0,0-.006.006,31.528,31.528,0,0,0,0,44.446l.006.006c.069.069.127.127.2.191a.006.006,0,0,0,.006.006,31.521,31.521,0,0,0,44.434-.006c.069-.064.133-.127.2-.2a31.518,31.518,0,0,0,3.908-39.643ZM60.722,59.9c-.267.279-.54.551-.819.824a30.328,30.328,0,0,1-20.509,8.507c-.192.006-.389.006-.581.006s-.389,0-.581-.006a30.332,30.332,0,0,1-20.51-8.507c-.278-.273-.551-.545-.818-.824-.366-.378-.72-.761-1.063-1.156A30.3,30.3,0,0,1,8.4,39.394c-.006-.192-.006-.389-.006-.581s0-.389.006-.581A30.328,30.328,0,0,1,16.9,17.723c.273-.279.54-.546.818-.819A30.332,30.332,0,0,1,38.232,8.4c.192-.006.389-.006.581-.006s.389,0,.581.006a30.281,30.281,0,0,1,19.3,7.4c.412.354.818.726,1.213,1.1.279.273.546.54.819.819a30.328,30.328,0,0,1,8.507,20.509c.006.192.006.389.006.581s0,.389-.006.581A30.317,30.317,0,0,1,60.722,59.9Z"/><path d="M38.812,15.022a.579.579,0,0,1-.58-.58V7.808a.581.581,0,1,1,1.161,0v6.634A.58.58,0,0,1,38.812,15.022Z"/><path d="M38.812,15.022a.579.579,0,0,1-.58-.58V7.808a.581.581,0,1,1,1.161,0v6.634A.58.58,0,0,1,38.812,15.022Z"/><path d="M38.812,70.4a.58.58,0,0,1-.58-.581V63.182a.581.581,0,1,1,1.161,0v6.633A.581.581,0,0,1,38.812,70.4Z"/><path d="M69.816,39.392H63.182a.581.581,0,0,1,0-1.161h6.634a.581.581,0,1,1,0,1.161Z"/><path d="M14.442,39.392H7.809a.581.581,0,1,1,0-1.161h6.633a.581.581,0,1,1,0,1.161Z"/><path d="M61.233,61.036a.526.526,0,0,1-.087.11.841.841,0,0,1-.11.087.625.625,0,0,1-.3.082.586.586,0,0,1-.407-.169l-.424-.424-4.268-4.268a.579.579,0,0,1,.819-.819L60.722,59.9l.424.424A.589.589,0,0,1,61.233,61.036Z"/><path d="M21.58,22.16a.579.579,0,0,1-.41-.17L16.479,17.3a.581.581,0,1,1,.821-.821l4.691,4.691a.581.581,0,0,1-.411.991Z"/><path d="M56.045,22.16a.581.581,0,0,1-.411-.991l4.691-4.691a.581.581,0,0,1,.821.821L56.455,21.99A.579.579,0,0,1,56.045,22.16Z"/><path d="M16.889,61.315a.581.581,0,0,1-.41-.991l4.691-4.691a.581.581,0,1,1,.821.822L17.3,61.145A.577.577,0,0,1,16.889,61.315Z"/><path d="M37.233,36.409l.419.418a2.184,2.184,0,0,0-.819.825l-.424-.424-.418-.418-5.337-5.337a.579.579,0,1,1,.819-.819l5.337,5.337Z"/><path d="M52.111,26.334,41.635,36.81l-.418.418-.424.424a2.191,2.191,0,0,0-.819-.825l.418-.418.418-.418h.006L51.292,25.51a.578.578,0,0,1,.819,0A.585.585,0,0,1,52.111,26.334Z"/><path class="cls-2" d="M41.217,37.228a2.777,2.777,0,0,0-.825-.819,2.859,2.859,0,0,0-3.159,0,2.785,2.785,0,0,0-.824.819,2.846,2.846,0,0,0-.476,1.585,2.88,2.88,0,1,0,5.76,0A2.846,2.846,0,0,0,41.217,37.228Zm-2.4,3.885a2.3,2.3,0,0,1-2.3-2.3,2.207,2.207,0,0,1,.32-1.161,2.184,2.184,0,0,1,.819-.825,2.272,2.272,0,0,1,2.322,0,2.329,2.329,0,0,1,1.138,1.986A2.3,2.3,0,0,1,38.813,41.113Z"/><path d="M41.635,36.81a3.407,3.407,0,0,0-.819-.819H40.81a3.456,3.456,0,0,0-4.819.819,3.461,3.461,0,1,0,5.644,0Zm-2.822,4.3a2.3,2.3,0,0,1-2.3-2.3,2.207,2.207,0,0,1,.32-1.161,2.184,2.184,0,0,1,.819-.825,2.272,2.272,0,0,1,2.322,0,2.329,2.329,0,0,1,1.138,1.986A2.3,2.3,0,0,1,38.813,41.113Z"/></g></svg>