<svg xmlns="http://www.w3.org/2000/svg" viewBox="0 0 97.697 86.017"><defs><style>.cls-1{fill:#fb3;}</style></defs><g id="레이어_2" data-name="레이어 2"><path class="cls-1" d="M20.9,71.3a3.452,3.452,0,0,1-.036.5,4.767,4.767,0,0,1-8.282.165,3.607,3.607,0,0,1-.059-.665Z"/><path class="cls-1" d="M95.068,40.2a5.612,5.612,0,0,1-3.938,5.35v-10.7A5.613,5.613,0,0,1,95.068,40.2Z"/><path class="cls-1" d="M73.447,43.282v2.4A5.831,5.831,0,0,1,67.626,51.5H65.371a5.77,5.77,0,0,1-1.895-.318,5.146,5.146,0,0,1-1.389-2.219l-.006-.006a5.2,5.2,0,0,1-.241-1.578v-4.1Z"/><path class="cls-1" d="M12.259,39.321a10.5,10.5,0,0,0-1.178.418,10.285,10.285,0,0,0-5.274,4.885,5.109,5.109,0,0,1-1.313-5.1,5.257,5.257,0,0,1,.377-.913,5.179,5.179,0,0,1,.971-1.289,5.68,5.68,0,0,1,6.417,2Z"/><path class="cls-1" d="M29.229,47.155a11.838,11.838,0,0,0-.4-1.212,10.7,10.7,0,0,0-4.657-5.363,5.106,5.106,0,0,1,3.085-1.371,4.931,4.931,0,0,1,1.389.077,5.028,5.028,0,0,1,2.225,1.041,5.52,5.52,0,0,1,.242.607A5.725,5.725,0,0,1,29.229,47.155Z"/><path class="cls-1" d="M8.909,85.817a5.27,5.27,0,0,1-2.649.059,6.881,6.881,0,0,1-1.96-2.3,7.994,7.994,0,0,1-.747-2.043c-.83-3.756,1.012-7.488,4.12-8.341a4.922,4.922,0,0,1,2.243-.083,5.657,5.657,0,0,1,2.666,1.378,8.553,8.553,0,0,1,.866,2.29C14.348,80.831,12.311,84.887,8.909,85.817Z"/><path class="cls-1" d="M32.378,80.131a7.778,7.778,0,0,1-3.443,5.033,5.73,5.73,0,0,1-2.979.853,5.327,5.327,0,0,1-1.053-.1,6.116,6.116,0,0,1-1.714-2.061,7.984,7.984,0,0,1-.659-5.41c.795-3.555,3.714-5.856,6.664-5.35.159.029.318.065.477.106a5.147,5.147,0,0,1,1.93,1.012A8.579,8.579,0,0,1,32.378,80.131Z"/><path d="M12.87,77.5a.588.588,0,0,1-.574-.461A6.61,6.61,0,0,0,9.4,72.76a4.468,4.468,0,0,0-3.508-.529A.589.589,0,0,1,5.575,71.1,5.63,5.63,0,0,1,10,71.751a7.791,7.791,0,0,1,3.443,5.032.589.589,0,0,1-.447.7A.627.627,0,0,1,12.87,77.5Z"/><path d="M13.448,76.782a8.553,8.553,0,0,0-.866-2.29A7.283,7.283,0,0,0,10,71.749,5.646,5.646,0,0,0,5.577,71.1c-3.4.935-5.439,4.991-4.538,9.035a7.779,7.779,0,0,0,3.444,5.033,5.74,5.74,0,0,0,1.777.712,5.27,5.27,0,0,0,2.649-.059C12.311,84.887,14.348,80.831,13.448,76.782ZM8.6,84.687a4.486,4.486,0,0,1-3.508-.53,5.34,5.34,0,0,1-.789-.576,6.872,6.872,0,0,1-2.113-3.7c-.765-3.444.9-6.875,3.7-7.647a4.316,4.316,0,0,1,1.13-.152,4.6,4.6,0,0,1,2.378.682,5.2,5.2,0,0,1,.518.353,6.777,6.777,0,0,1,2.378,3.921C13.059,80.484,11.405,83.916,8.6,84.687Z"/><path d="M31.6,74.209A6.2,6.2,0,0,0,27.846,71.1a5.642,5.642,0,0,0-4.427.653,7.79,7.79,0,0,0-3.443,5.033c-.9,4.049,1.13,8.105,4.532,9.035.13.036.265.071.395.1a5.327,5.327,0,0,0,1.053.1,5.73,5.73,0,0,0,2.979-.853,7.778,7.778,0,0,0,3.443-5.033A8.579,8.579,0,0,0,31.6,74.209Zm-.371,5.669a6.611,6.611,0,0,1-2.9,4.279,4.478,4.478,0,0,1-3.508.53,4.573,4.573,0,0,1-1.631-.836,6.863,6.863,0,0,1-2.066-6.816,6.607,6.607,0,0,1,2.9-4.274,4.586,4.586,0,0,1,2.378-.682,4.364,4.364,0,0,1,1.131.152,4.624,4.624,0,0,1,1.66.86A6.855,6.855,0,0,1,31.23,79.878Z"/><path d="M8.037,72.186h0a.588.588,0,0,1-.586-.591,9.334,9.334,0,0,1,2.312-6.074.588.588,0,0,1,.888.772A8.161,8.161,0,0,0,8.626,71.6.589.589,0,0,1,8.037,72.186Z"/><path d="M25.368,72.189a.588.588,0,0,1-.589-.586,8.055,8.055,0,0,0-2.024-5.31.589.589,0,0,1,.889-.772A9.34,9.34,0,0,1,25.956,71.6a.589.589,0,0,1-.586.591Z"/><path d="M16.71,62.849c-7-.113-10.248-3.736-11.741-6.756a12.668,12.668,0,0,1-.941-2.574,13.133,13.133,0,0,1-.254-1.338,12.774,12.774,0,0,1-.111-1.355c-.006-.225-.006-.452,0-.678a13.131,13.131,0,0,1,.125-1.464,12.556,12.556,0,0,1,.633-2.538c.08-.218.166-.435.258-.649s.2-.426.3-.632c.044-.085.09-.17.136-.255s.1-.169.144-.249a12.089,12.089,0,0,1,9.449-5.644,17.6,17.6,0,0,1,1.971-.091,17.933,17.933,0,0,1,2.016.091,12.092,12.092,0,0,1,9.452,5.649c.046.076.094.158.14.242s.093.171.137.258c.106.2.207.413.3.63s.179.432.259.65a12.6,12.6,0,0,1,.632,2.536h0a12.743,12.743,0,0,1,.125,1.466c.006.225,0,.451,0,.678a12.76,12.76,0,0,1-.111,1.354,12.707,12.707,0,0,1-1.2,3.913,12.9,12.9,0,0,1-.671,1.191A11.448,11.448,0,0,1,21.188,62.2c-.162.048-.327.095-.5.138a16.043,16.043,0,0,1-2.75.454Q17.347,62.838,16.71,62.849ZM16.492,39.8a16.254,16.254,0,0,0-1.663.085,10.937,10.937,0,0,0-8.557,5.071c-.044.075-.086.146-.126.219s-.08.147-.12.225c-.093.183-.184.367-.266.559s-.162.391-.234.589a11.344,11.344,0,0,0-.573,2.3,11.469,11.469,0,0,0-.114,1.328c-.005.2-.005.41,0,.616a11.179,11.179,0,0,0,.1,1.23,11.394,11.394,0,0,0,1.084,3.548c1.347,2.726,4.3,6,10.685,6.1.379-.006.765-.025,1.138-.055A14.878,14.878,0,0,0,20.4,61.2c.154-.04.306-.082.454-.127a10.306,10.306,0,0,0,5.919-4.418,11.617,11.617,0,0,0,.608-1.082,11.488,11.488,0,0,0,1.084-3.549,11.227,11.227,0,0,0,.1-1.229c.006-.2.007-.41,0-.615a11.245,11.245,0,0,0-.113-1.329h0a11.5,11.5,0,0,0-.573-2.3q-.11-.3-.234-.59c-.082-.19-.172-.374-.266-.556-.04-.079-.08-.154-.122-.23s-.081-.142-.122-.211a10.939,10.939,0,0,0-8.56-5.076,15.818,15.818,0,0,0-1.836-.084.3.3,0,0,1-.03,0h-.214Z"/><path d="M12.264,40.386a.587.587,0,0,1-.812-.171,4.1,4.1,0,0,0-.371-.476A4.5,4.5,0,0,0,3.405,41.3a4.531,4.531,0,0,0,1.719,5.1A.586.586,0,0,1,4.8,47.473a.573.573,0,0,1-.336-.1,5.683,5.683,0,1,1,7.8-8.052c.064.082.123.165.176.247A.6.6,0,0,1,12.264,40.386Z"/><path d="M29.229,47.155a3.158,3.158,0,0,1-.282.213.617.617,0,0,1-.336.1.6.6,0,0,1-.489-.253.588.588,0,0,1,.153-.818,3.741,3.741,0,0,0,.554-.459A4.533,4.533,0,0,0,29.994,41.3a4.483,4.483,0,0,0-1.348-2.013,4.188,4.188,0,0,0-.895-.607,4.5,4.5,0,0,0-5.8,1.536.6.6,0,0,1-.819.171.588.588,0,0,1-.164-.818,5.679,5.679,0,0,1,9.906.759,5.52,5.52,0,0,1,.242.607A5.725,5.725,0,0,1,29.229,47.155Z"/><path d="M16.7,85.179a13.571,13.571,0,0,1-5.51-1.145.588.588,0,1,1,.474-1.077,12.653,12.653,0,0,0,10.084-.008.589.589,0,0,1,.476,1.077A13.561,13.561,0,0,1,16.7,85.179Z"/><path d="M3.044,74.013a.576.576,0,0,1-.154-.02c-.091-.024-.178-.05-.263-.079a3.556,3.556,0,0,1-2.152-1.9,7.517,7.517,0,0,1,.107-5.476,10.06,10.06,0,0,1,3.1-4.223A13.9,13.9,0,0,1,9.056,59.6a.589.589,0,1,1,.281,1.144,12.676,12.676,0,0,0-4.912,2.479,8.9,8.9,0,0,0-2.74,3.723,6.446,6.446,0,0,0-.148,4.56A2.394,2.394,0,0,0,3,72.8c.061.02.127.041.194.058a.589.589,0,0,1-.152,1.157Z"/><path d="M30.353,74a.589.589,0,0,1-.2-1.142c.07-.025.135-.045.2-.064A2.386,2.386,0,0,0,31.814,71.5a6.427,6.427,0,0,0-.147-4.559,8.967,8.967,0,0,0-2.741-3.724,12.658,12.658,0,0,0-4.911-2.479.589.589,0,0,1,.279-1.144,13.886,13.886,0,0,1,5.379,2.713,10.139,10.139,0,0,1,3.1,4.221,7.525,7.525,0,0,1,.108,5.479,3.563,3.563,0,0,1-2.153,1.9c-.079.024-.123.037-.171.055A.587.587,0,0,1,30.353,74Z"/><path d="M16.667,55.053a2.075,2.075,0,1,1,2.076-2.075A2.076,2.076,0,0,1,16.667,55.053Zm0-2.972a.9.9,0,1,0,.9.9A.9.9,0,0,0,16.667,52.081Z"/><path d="M18.757,58.345a2.637,2.637,0,0,1-2.056-.983A2.643,2.643,0,0,1,12,55.7a.589.589,0,1,1,1.177,0,1.467,1.467,0,0,0,2.934,0,.589.589,0,1,1,1.177,0,1.468,1.468,0,0,0,2.935,0,.589.589,0,1,1,1.177,0A2.647,2.647,0,0,1,18.757,58.345Z"/><path d="M16.7,56.289a.588.588,0,0,1-.589-.588V54.465a.589.589,0,1,1,1.177,0V55.7A.588.588,0,0,1,16.7,56.289Z"/><circle cx="11.937" cy="50.247" r="1.245"/><circle cx="21.464" cy="50.247" r="1.245"/><path d="M45.479,34.852a16.639,16.639,0,0,1-15.5-11.271c-2.548-.322-4.488-2.836-4.488-5.923,0-2.977,1.867-5.479,4.318-5.9a16.316,16.316,0,0,1,31.332-.012c2.5.372,4.4,2.879,4.4,5.908,0,3.087-2.013,5.652-4.567,5.935A16.641,16.641,0,0,1,45.479,34.852Zm0-33.675A15.446,15.446,0,0,0,30.823,12.471a.588.588,0,0,1-.521.416c-2.036.15-3.632,2.246-3.632,4.771,0,2.568,1.687,4.712,3.76,4.779a.589.589,0,0,1,.54.4A15.487,15.487,0,0,0,45.479,33.674,15.489,15.489,0,0,0,59.987,22.843a.588.588,0,0,1,.551-.4c2.11-.024,3.825-2.17,3.825-4.783,0-2.568-1.624-4.665-3.7-4.774a.589.589,0,0,1-.533-.417A15.446,15.446,0,0,0,45.479,1.177Z"/><path d="M30.869,20.528a2.665,2.665,0,0,1-2.447-2.834,2.665,2.665,0,0,1,2.447-2.833.589.589,0,0,1,0,1.178,1.5,1.5,0,0,0-1.27,1.655,1.5,1.5,0,0,0,1.27,1.656.589.589,0,0,1,0,1.178Z"/><path d="M59.935,20.528a.589.589,0,0,1,0-1.178,1.5,1.5,0,0,0,1.27-1.656,1.5,1.5,0,0,0-1.27-1.655.589.589,0,0,1,0-1.178,2.664,2.664,0,0,1,2.447,2.833A2.664,2.664,0,0,1,59.935,20.528Z"/><path d="M51.9,11.979a.589.589,0,0,1-.243-.053A9.3,9.3,0,0,1,46.679,6.2a.589.589,0,0,1,1.14-.294h0a8.255,8.255,0,0,0,4.323,4.951.589.589,0,0,1-.244,1.125Z"/><path d="M47.183,12.887a.59.59,0,0,1-.405-.161,9.319,9.319,0,0,1-2.85-6.7.589.589,0,0,1,1.176.05h0a8.276,8.276,0,0,0,2.483,5.795.589.589,0,0,1-.4,1.017Z"/><path d="M41.991,11.512a.589.589,0,0,1-.558-.4,9.428,9.428,0,0,1-.22-5.226.589.589,0,0,1,1.131.331,8.376,8.376,0,0,0,.2,4.519.588.588,0,0,1-.557.777Z"/><circle cx="40.094" cy="19.971" r="1.405"/><circle cx="50.94" cy="19.971" r="1.405"/><path d="M45.438,23.879a.589.589,0,1,1,0-1.177.557.557,0,0,0,0-1.113.589.589,0,1,1,0-1.177,1.734,1.734,0,1,1,0,3.467Z"/><path d="M45.438,28.819a3.7,3.7,0,0,1-3.693-3.693.589.589,0,0,1,1.177,0,2.516,2.516,0,1,0,5.031,0,.589.589,0,0,1,1.178,0A3.7,3.7,0,0,1,45.438,28.819Z"/><path d="M81.042,66.679a.589.589,0,0,1-.538-.347,13.453,13.453,0,0,0-24.182-.7.588.588,0,0,1-1.119-.25v-.005a.589.589,0,0,1,.067-.273,14.631,14.631,0,0,1,26.308.747.589.589,0,0,1-.536.831Z"/><path d="M72.859,41H60.138a.587.587,0,0,0-.588.589v4.091a5.833,5.833,0,0,0,3.926,5.5,5.77,5.77,0,0,0,1.895.318h2.255a5.831,5.831,0,0,0,5.821-5.822V41.587A.586.586,0,0,0,72.859,41Zm-.589,4.68a4.65,4.65,0,0,1-4.644,4.645H65.371a4.65,4.65,0,0,1-3.284-1.36l-.006-.006a4.669,4.669,0,0,1-1.354-3.279v-3.5H72.27Z"/><path d="M67.027,48.127H65.968a3.05,3.05,0,0,1-3.047-3.046v-3.5A.589.589,0,0,1,63.51,41h5.975a.589.589,0,0,1,.589.588v3.5A3.05,3.05,0,0,1,67.027,48.127ZM64.1,42.173v2.908a1.871,1.871,0,0,0,1.869,1.869h1.059A1.871,1.871,0,0,0,68.9,45.081V42.173Z"/><path class="cls-1" d="M97.694,61.159a2.685,2.685,0,0,1-.907,1.854c-6.793,6.022-16.729,9.477-27.26,9.477a44.3,44.3,0,0,1-20.473-4.832A.165.165,0,0,1,49,67.622a32.533,32.533,0,0,1-4.8-3.514,2.109,2.109,0,0,1-.182-2.978,2.084,2.084,0,0,1,1.718-.7,2.123,2.123,0,0,1,1.254.524,28.248,28.248,0,0,0,4.244,3.09.126.126,0,0,0,.036.024,38.786,38.786,0,0,0,19.8,5.151c9.371,0,18.147-3.014,24.075-8.265a2.114,2.114,0,0,1,2.555-.182A3.14,3.14,0,0,1,97.694,61.159Z"/><path d="M97.688,60.771A2.711,2.711,0,0,0,95.162,58.3a2.707,2.707,0,0,0-1.948.677C87.392,64.138,78.757,67.1,69.527,67.1s-17.865-2.961-23.681-8.118a2.7,2.7,0,0,0-3.808.23,2.7,2.7,0,0,0,.229,3.8A33.791,33.791,0,0,0,49,67.622a.165.165,0,0,0,.059.036A44.3,44.3,0,0,0,69.527,72.49c10.531,0,20.467-3.455,27.26-9.477a2.685,2.685,0,0,0,.907-1.854A3.14,3.14,0,0,0,97.688,60.771ZM96.01,62.136c-6.587,5.834-16.241,9.177-26.483,9.177-10.03,0-19.484-3.2-26.047-8.806-.147-.123-.289-.247-.43-.371a1.52,1.52,0,0,1,.913-2.655c.035,0,.064-.005.094-.005a1.52,1.52,0,0,1,1.006.382c.218.2.442.383.665.571a30.2,30.2,0,0,0,5.5,3.614.126.126,0,0,0,.036.024,40.218,40.218,0,0,0,18.265,4.209c9.512,0,18.431-3.067,24.47-8.418a1.544,1.544,0,0,1,1.095-.377,1.528,1.528,0,0,1,1.048.507,1.53,1.53,0,0,1,.376,1.1A1.519,1.519,0,0,1,96.01,62.136Z"/><path d="M86.715,64.529a.584.584,0,0,1-.453-.213,18.84,18.84,0,0,1-4.708-13.335c0-1.691.124-3.924.325-5.825a.588.588,0,0,1,.585-.527h7a.589.589,0,0,1,0,1.178H83c-.166,1.737-.266,3.675-.266,5.174a17.779,17.779,0,0,0,4.437,12.584.588.588,0,0,1-.453.964Z"/><path d="M50.639,63.65a.578.578,0,0,1-.3-.084.586.586,0,0,1-.2-.806c1.874-3.143,1.725-9.518,1.723-9.582a10.568,10.568,0,0,1,8.152-10.32.589.589,0,1,1,.256,1.149,9.379,9.379,0,0,0-7.231,9.155c.008.259.16,6.764-1.89,10.2A.588.588,0,0,1,50.639,63.65Z"/><path d="M69,54H64a.588.588,0,0,1-.588-.589V50.872a.589.589,0,1,1,1.177,0V52.82h3.826V50.872a.589.589,0,1,1,1.177,0v2.536A.588.588,0,0,1,69,54Z"/><path d="M71.219,42.173a.578.578,0,0,1-.349-.116.587.587,0,0,1-.123-.823l5.937-8.028a3.046,3.046,0,0,1,4.049-.769.6.6,0,0,1,.209.818.573.573,0,0,1-.794.2,1.88,1.88,0,0,0-2.521.45l-5.934,8.024A.587.587,0,0,1,71.219,42.173Z"/><path d="M89.465,45.807a.589.589,0,0,1-.589-.589V35.188a.589.589,0,1,1,1.177,0v10.03A.589.589,0,0,1,89.465,45.807Z"/><path d="M95.068,40.2a5.612,5.612,0,0,1-3.938,5.35,5.534,5.534,0,0,1-1.666.253.589.589,0,0,1,0-1.177,4.335,4.335,0,0,0,1.666-.33,4.419,4.419,0,0,0,0-8.193,4.354,4.354,0,0,0-1.666-.33H84.231a.583.583,0,0,1-.453-.212.6.6,0,0,1-.129-.488,7.624,7.624,0,0,0-.836-4.733.52.52,0,0,0-.454-.253.514.514,0,0,0-.453.253,7.674,7.674,0,0,0-.841,4.727.59.59,0,0,1-.106.459L74.99,43.565a.6.6,0,0,1-.477.235h-1.66a.589.589,0,1,1,0-1.177h1.366l5.65-7.6a8.618,8.618,0,0,1,1.025-5.28,1.709,1.709,0,0,1,2.931,0A8.586,8.586,0,0,1,84.891,34.6h4.573a5.534,5.534,0,0,1,1.666.253A5.613,5.613,0,0,1,95.068,40.2Z"/><circle cx="83.663" cy="38.979" r="1.362"/><path d="M20.864,68.918H12.488a.586.586,0,0,0-.588.588,4.709,4.709,0,0,0,.682,2.455,4.767,4.767,0,0,0,8.282-.165,4.7,4.7,0,0,0,.589-2.29A.59.59,0,0,0,20.864,68.918Zm-4.191,4.191a3.6,3.6,0,0,1-3.12-1.813,3.542,3.542,0,0,1-.429-1.2h7.1a3.544,3.544,0,0,1-.43,1.2A3.612,3.612,0,0,1,16.673,73.109Z"/></g></svg>