<svg id="레이어_1" data-name="레이어 1" xmlns="http://www.w3.org/2000/svg" viewBox="0 0 89.44 30"><defs><style>.cls-1{fill:#fff;}</style></defs><path id="패스_52158" data-name="패스 52158" class="cls-1" d="M6.577,2.016V0H5.7V4.84h.88v-2.1h1.2V2.016Zm-4.038.655a3.353,3.353,0,0,0,1.939,1.8l.477-.689A2.778,2.778,0,0,1,2.942,1.2V.429H2.071v.789A2.973,2.973,0,0,1,0,4.016l.474.693A3.463,3.463,0,0,0,2.539,2.671Zm4.038,5.52V5.2h-5.3V8.191Zm-.87-2.283v1.57H2.14V5.907ZM15.167,4.9V0H14.29V1.692H12.543v.724H14.29V4.9ZM10.782,2.74a3.285,3.285,0,0,0,1.944,1.8l.477-.689a2.737,2.737,0,0,1-2-2.6V.463h-.877v.821a2.951,2.951,0,0,1-2.1,2.8l.471.707A3.451,3.451,0,0,0,10.782,2.74Zm1.606,2.389c-1.74,0-2.807.582-2.8,1.586-.007,1,1.06,1.568,2.8,1.568s2.8-.566,2.805-1.568-1.067-1.586-2.8-1.586Zm0,2.46c-1.213,0-1.938-.32-1.93-.873-.007-.573.717-.9,1.93-.9s1.931.324,1.934.9c0,.552-.722.873-1.933.873Zm8.271-4.25h2.365V.2h-.87v.891H18.312V.2h-.874V3.337h2.349V4.23H16.45v.717h7.559V4.232H20.661Zm1.5-1.585v.877H18.312V1.754ZM22.2,6.388V8.3h.883V5.685H17.286v.7ZM30.629,8.3h.883V0h-.883Zm-2.936-6.73h1.891V.838H24.91v.728H26.8v.887A4.17,4.17,0,0,1,24.619,6.02l.514.693A4.473,4.473,0,0,0,27.26,4.059,4.142,4.142,0,0,0,29.4,6.507l.481-.694a3.789,3.789,0,0,1-2.186-3.359ZM39.156,3.3h-.991V.165h-.832V7.887h.832V4.039h.99V8.3H40V0h-.84Zm-3.8-1.637H36.8V.949h-3.85v.717H34.5V2.2a4.077,4.077,0,0,1-1.781,3.757l.547.67a3.868,3.868,0,0,0,1.68-2.461A3.542,3.542,0,0,0,36.6,6.335l.517-.674A3.7,3.7,0,0,1,35.356,2.2ZM47.546,0h-.88V6.005h.88V3.132h1.206V2.4H47.546ZM45.835,3.575a16.38,16.38,0,0,1-3.564.265V1.418h2.834V.705H41.4V4.566h.657a18.58,18.58,0,0,0,3.877-.272ZM42.291,5.384V8.126H47.9v-.72H43.165V5.387Z"/><path id="패스_52157" data-name="패스 52157" class="cls-1" d="M2.664,18.786a2.633,2.633,0,0,1-1.332-.318A2.131,2.131,0,0,1,.219,16.6v-.047H1.3V16.6a1.387,1.387,0,0,0,.142.6,1.233,1.233,0,0,0,.455.5,1.426,1.426,0,0,0,.788.2,1.457,1.457,0,0,0,.942-.294.964.964,0,0,0,.364-.8.838.838,0,0,0-.279-.664,1.483,1.483,0,0,0-.706-.331l-.91-.18a3.14,3.14,0,0,1-1.151-.507,1.452,1.452,0,0,1-.555-1.284,1.842,1.842,0,0,1,.28-1.014,1.8,1.8,0,0,1,.782-.668A2.692,2.692,0,0,1,2.6,11.934a2.583,2.583,0,0,1,1.27.294,2.027,2.027,0,0,1,.8.763,1.936,1.936,0,0,1,.27.981v.038H3.858v-.029a1.3,1.3,0,0,0-.123-.53,1.112,1.112,0,0,0-.413-.47,1.329,1.329,0,0,0-.753-.194,1.212,1.212,0,0,0-.867.3.982.982,0,0,0-.318.744.816.816,0,0,0,.271.635,1.427,1.427,0,0,0,.706.332l.843.172a3.19,3.19,0,0,1,1.275.56,1.472,1.472,0,0,1,.544,1.261,1.851,1.851,0,0,1-.3,1.042,1.984,1.984,0,0,1-.835.7A2.86,2.86,0,0,1,2.664,18.786Zm7.117-1.905H7.212L6.578,18.71h-1l2.455-6.633h.929l2.461,6.633h-1Zm-.275-.775-1-2.786H8.463L7.487,16.1Zm2.852-4.029h1.45l1.809,4.747h.029l1.8-4.747H18.9V18.71h-.965V13.545h-.038L15.969,18.71h-.683l-1.923-5.165h-.04V18.71h-.965ZM22.65,18.786a2.633,2.633,0,0,1-1.332-.318A2.131,2.131,0,0,1,20.2,16.6v-.047h1.08V16.6a1.387,1.387,0,0,0,.142.6,1.233,1.233,0,0,0,.455.5,1.418,1.418,0,0,0,.788.2,1.459,1.459,0,0,0,.943-.294.967.967,0,0,0,.363-.8.838.838,0,0,0-.279-.664,1.483,1.483,0,0,0-.706-.331l-.91-.18a3.14,3.14,0,0,1-1.151-.507,1.452,1.452,0,0,1-.555-1.284,1.842,1.842,0,0,1,.28-1.014,1.8,1.8,0,0,1,.782-.668,2.7,2.7,0,0,1,1.147-.233,2.583,2.583,0,0,1,1.27.294,2.034,2.034,0,0,1,.8.763,1.945,1.945,0,0,1,.269.981v.038h-1.08v-.029a1.3,1.3,0,0,0-.123-.53,1.123,1.123,0,0,0-.413-.469,1.322,1.322,0,0,0-.753-.195,1.217,1.217,0,0,0-.867.3.98.98,0,0,0-.318.744.82.82,0,0,0,.27.635,1.442,1.442,0,0,0,.706.331l.844.173a3.166,3.166,0,0,1,1.274.56,1.468,1.468,0,0,1,.545,1.257,1.852,1.852,0,0,1-.3,1.043,1.973,1.973,0,0,1-.834.706A2.868,2.868,0,0,1,22.65,18.786Zm6.036.01a2.521,2.521,0,0,1-1.961-.767,3.212,3.212,0,0,1-.7-2.237V12.077h.967v3.676a3.045,3.045,0,0,0,.345,1.455,1.385,1.385,0,0,0,1.351.649,1.36,1.36,0,0,0,1.322-.646,3.037,3.037,0,0,0,.345-1.459V12.077h.975v3.714a3.192,3.192,0,0,1-.706,2.237A2.5,2.5,0,0,1,28.686,18.8Zm3.924-6.719h1.119l3.278,5.088h.028V12.077h.976V18.71H36.874l-3.26-4.985h-.028V18.71H32.61Zm9.41,6.7a2.578,2.578,0,0,1-1.607-.492,2.937,2.937,0,0,1-.961-1.27,4.487,4.487,0,0,1,0-3.3,2.946,2.946,0,0,1,.986-1.279,2.708,2.708,0,0,1,1.663-.5,2.654,2.654,0,0,1,1.815.612,3.154,3.154,0,0,1,.962,1.55H43.848a1.786,1.786,0,0,0-.611-.938,1.812,1.812,0,0,0-1.133-.332,1.71,1.71,0,0,0-1.454.692,3.066,3.066,0,0,0-.517,1.877,2.979,2.979,0,0,0,.543,1.894,1.783,1.783,0,0,0,1.478.682,1.869,1.869,0,0,0,.962-.237,1.553,1.553,0,0,0,.611-.646,2.056,2.056,0,0,0,.218-.91l.01-.227H42.249v-.719h2.644V18.71h-.758V17.649h-.076a4.181,4.181,0,0,1-.3.45,1.9,1.9,0,0,1-.6.439A2.4,2.4,0,0,1,42.02,18.776Zm5.742-6.7h.977l1.374,5.411h.057l1.723-5.411h.881L54.5,17.488h.057l1.387-5.411h.974L55.164,18.71h-1.25l-1.544-4.9h-.057l-1.558,4.9H49.506Zm11.06.871v1.99H61.6v.787H58.822v2.113h3.193v.872H57.827V12.077h4.188v.871Zm8.4,4.89v.872H63.209V12.077H64.2l-.009,5.761Zm2.009-4.89v2l2.7-.019v.8h-2.7V18.71h-.986V12.077h4.037v.871Zm7.553,3.933H74.211l-.634,1.829h-1l2.456-6.633h.928l2.463,6.633h-.995Zm-.275-.775L75.51,13.32h-.048L74.486,16.1Zm4.918.038h-1.09V18.71h-.976V12.077h2.322a2.648,2.648,0,0,1,1.327.3,1.857,1.857,0,0,1,.758.763,2.139,2.139,0,0,1,.237.985,2.046,2.046,0,0,1-.388,1.223,1.915,1.915,0,0,1-1.194.72l1.667,2.644H83.025Zm-1.09-.825h1.213a1.991,1.991,0,0,0,1.071-.27,1,1,0,0,0,.436-.924.98.98,0,0,0-.436-.91,2.035,2.035,0,0,0-1.071-.265H80.333Zm5.914-2.369v1.99h2.776v.785H86.247v2.113H89.44v.872H85.252V12.077H89.44v.871ZM1.4,24.15v2l2.7-.019v.794H1.4V29.91H.418V23.276H4.455v.872Zm6.691,5.826a2.935,2.935,0,0,1-1.637-.441,2.777,2.777,0,0,1-1.028-1.213,4.188,4.188,0,0,1-.351-1.748,4.25,4.25,0,0,1,.351-1.758,2.825,2.825,0,0,1,1.034-1.232,2.891,2.891,0,0,1,1.631-.45,2.877,2.877,0,0,1,1.616.444,2.8,2.8,0,0,1,1.029,1.228,4.307,4.307,0,0,1,.35,1.777,4.176,4.176,0,0,1-.35,1.753,2.756,2.756,0,0,1-1.029,1.2A2.921,2.921,0,0,1,8.094,29.976Zm-.01-.891a1.743,1.743,0,0,0,1.052-.322,2.03,2.03,0,0,0,.683-.9,3.715,3.715,0,0,0,0-2.606,2.106,2.106,0,0,0-.683-.9,1.835,1.835,0,0,0-2.1,0,2.086,2.086,0,0,0-.682.91,3.41,3.41,0,0,0-.237,1.3,3.361,3.361,0,0,0,.237,1.292,2.06,2.06,0,0,0,.682.9A1.727,1.727,0,0,0,8.084,29.085ZM14.813,30a2.524,2.524,0,0,1-1.964-.769,3.207,3.207,0,0,1-.7-2.236V23.276h.968v3.677a3.056,3.056,0,0,0,.345,1.455,1.388,1.388,0,0,0,1.35.649,1.362,1.362,0,0,0,1.322-.646,3.038,3.038,0,0,0,.345-1.46V23.276h.98v3.715a3.189,3.189,0,0,1-.706,2.236A2.5,2.5,0,0,1,14.813,30Zm3.923-6.72h1.12l3.279,5.089h.028V23.276h.976V29.91H23l-3.261-4.985h-.028V29.91h-.977Zm6.776,0h2.473a2.991,2.991,0,0,1,1.559.4,2.683,2.683,0,0,1,1.038,1.147,3.939,3.939,0,0,1,.369,1.762,3.989,3.989,0,0,1-.369,1.777,2.672,2.672,0,0,1-1.043,1.152,3.024,3.024,0,0,1-1.563.4H25.513Zm2.312,5.733A1.977,1.977,0,0,0,29.34,28.4a2.573,2.573,0,0,0,.567-1.82,2.586,2.586,0,0,0-.564-1.819,1.975,1.975,0,0,0-1.521-.607H26.469v4.852Zm7.534-.928H32.79l-.635,1.829h-1l2.455-6.634h.929l2.463,6.634h-.995Zm-.275-.776-.995-2.786h-.046L33.064,27.3ZM41.7,24.15H39.793v5.76h-.976V24.148H36.912v-.872H41.7Zm1.042-.872h.995V29.91H42.74Zm5.155,6.7a2.937,2.937,0,0,1-1.637-.441,2.783,2.783,0,0,1-1.028-1.213,4.188,4.188,0,0,1-.351-1.748,4.266,4.266,0,0,1,.351-1.758,2.825,2.825,0,0,1,1.034-1.232,3.168,3.168,0,0,1,3.246,0,2.811,2.811,0,0,1,1.028,1.227,4.291,4.291,0,0,1,.35,1.777,4.176,4.176,0,0,1-.35,1.753,2.754,2.754,0,0,1-1.028,1.2A2.922,2.922,0,0,1,47.9,29.976Zm-.009-.891a1.745,1.745,0,0,0,1.052-.322,2.035,2.035,0,0,0,.682-.9,3.7,3.7,0,0,0,0-2.606,2.1,2.1,0,0,0-.682-.9,1.835,1.835,0,0,0-2.1,0,2.1,2.1,0,0,0-.683.91,3.671,3.671,0,0,0,0,2.59,2.062,2.062,0,0,0,.683.9A1.725,1.725,0,0,0,47.886,29.085Zm4.131-5.809h1.12l3.279,5.089h.029V23.276h.976V29.91H56.284l-3.26-4.985H53V29.91h-.978Z"/></svg>