<svg id="레이어_1" data-name="레이어 1" xmlns="http://www.w3.org/2000/svg" viewBox="0 0 100 13.171"><defs><style>.cls-1{fill:#111;}.cls-2{fill:#f2a380;}.cls-3{fill:#fff;}.cls-4{fill:#fb3;}</style></defs><path id="패스_52145" data-name="패스 52145" class="cls-1" d="M0,.005H21.259V13.166H0Z"/><path id="패스_52147" data-name="패스 52147" class="cls-2" d="M21.259.005H59.727V13.166H21.259Z"/><path id="패스_52146" data-name="패스 52146" class="cls-3" d="M9.373,4.176v-2.1h-1.1V7.262h1.1V5.074H10.62v-.9Zm-4.367.9a3.509,3.509,0,0,0,2.03,1.842l.59-.86A2.873,2.873,0,0,1,5.519,3.312v-.78h-1.1v.81A3.087,3.087,0,0,1,2.227,6.305l.591.866A3.639,3.639,0,0,0,5.006,5.074ZM9.373,10.9V7.629H3.6V10.9ZM8.285,8.509v1.5h-3.6v-1.5ZM18.358,7.328V2.075h-1.1V3.8H15.479v.9H17.26V7.326ZM13.616,5.14a3.416,3.416,0,0,0,2.038,1.846l.59-.861a2.833,2.833,0,0,1-2.1-2.775V2.557h-1.1V3.4a3.075,3.075,0,0,1-2.227,2.974l.587.885A3.622,3.622,0,0,0,13.616,5.14Zm1.716,2.426c-1.887,0-3.044.633-3.041,1.721S13.445,11,15.332,11s3.049-.62,3.049-1.711-1.157-1.72-3.048-1.72Zm0,2.566c-1.245,0-1.954-.3-1.947-.846-.007-.562.7-.863,1.947-.863s1.954.3,1.957.863c0,.546-.709.85-1.956.846Z"/><path id="패스_52148" data-name="패스 52148" class="cls-1" d="M28.193,5.707h2.48V2.288H29.579V3.18H25.72V2.288H24.633V5.707h2.461v.86H23.58v.888h8.142V6.567H28.193ZM29.577,4v.835H25.72V4Zm.046,5.03V11h1.106V8.155H24.482v.87ZM38.457,11h1.108V2.075H38.458ZM35.5,3.858h1.952v-.9H32.418v.9h1.968v.754a4.334,4.334,0,0,1-2.3,3.832l.632.867a4.567,4.567,0,0,0,2.241-2.755,4.252,4.252,0,0,0,2.241,2.531l.6-.867a3.954,3.954,0,0,1-2.3-3.608ZM47.377,5.57h-.911V2.23H45.428v8.346h1.038v-4.1h.911V11h1.057V2.075H47.377ZM43.454,3.931h1.468V3.046H40.8v.885h1.591v.426c0,1.741-.532,3.3-1.863,4.05l.681.841a4.02,4.02,0,0,0,1.737-2.531A3.7,3.7,0,0,0,44.68,8.933l.637-.839a3.949,3.949,0,0,1-1.86-3.737ZM56.285,2.075H55.178v6.46h1.107V5.494H57.54V4.583H56.285ZM54.367,5.847a16.764,16.764,0,0,1-3.667.279V3.7h2.912V2.812H49.6V7.021h.727a19.77,19.77,0,0,0,4.158-.284Zm-3.81,2.01v2.98h6.074V9.943h-4.98V7.857Z"/><path id="패스_52149" data-name="패스 52149" class="cls-1" d="M64.579,10.206a2.231,2.231,0,0,1-2.142-1.351,3.29,3.29,0,0,1,0-2.578,2.287,2.287,0,0,1,.81-.976,2.312,2.312,0,0,1,1.342-.375,2.153,2.153,0,0,1,1.676.683,2.836,2.836,0,0,1,.62,1.974V7.9H63.31v.077a1.318,1.318,0,0,0,.158.633,1.227,1.227,0,0,0,.442.476,1.19,1.19,0,0,0,.649.178,1.171,1.171,0,0,0,1.136-.732h1.144a2.309,2.309,0,0,1-.779,1.2A2.268,2.268,0,0,1,64.579,10.206Zm1.183-3.078a1.447,1.447,0,0,0-.341-1.012,1.267,1.267,0,0,0-1.731.038,1.462,1.462,0,0,0-.351.977Zm3.9,3.078a2.353,2.353,0,0,1-1.1-.241,1.756,1.756,0,0,1-.7-.63,1.536,1.536,0,0,1-.24-.822V8.455h1.144v.058a.75.75,0,0,0,.24.539.928.928,0,0,0,.683.24.965.965,0,0,0,.6-.173.565.565,0,0,0,.231-.481.5.5,0,0,0-.2-.423.979.979,0,0,0-.486-.192l-.607-.116a2.274,2.274,0,0,1-1.034-.438,1.2,1.2,0,0,1-.447-1.024,1.331,1.331,0,0,1,.519-1.113A2.108,2.108,0,0,1,69.6,4.927a2.269,2.269,0,0,1,1.034.221,1.637,1.637,0,0,1,.663.577,1.408,1.408,0,0,1,.226.769v.039H70.378V6.5a.737.737,0,0,0-.2-.49.769.769,0,0,0-.62-.231.849.849,0,0,0-.568.178.579.579,0,0,0-.211.467.486.486,0,0,0,.2.405,1.15,1.15,0,0,0,.5.211l.664.116a2.344,2.344,0,0,1,1.048.471,1.206,1.206,0,0,1,.423.99,1.406,1.406,0,0,1-.253.832,1.653,1.653,0,0,1-.7.557,2.457,2.457,0,0,1-1,.2ZM74.2,5.964V8.455a2.724,2.724,0,0,0,.036.51.392.392,0,0,0,.188.259.954.954,0,0,0,.49.1,2.636,2.636,0,0,0,.443-.05v.82a2.268,2.268,0,0,1-.327.051,5.209,5.209,0,0,1-.529.029,1.954,1.954,0,0,1-.981-.193.83.83,0,0,1-.4-.491,3.049,3.049,0,0,1-.082-.779V5.964h-.885V5.053h.885V3.4h1.164V5.051H75.36v.911Zm3,4.242a.656.656,0,0,1-.486-.2.709.709,0,0,1,0-.981.652.652,0,0,1,.486-.2.666.666,0,0,1,.5.2.681.681,0,0,1,.2.491.693.693,0,0,1-.693.693Zm5.982-1.1v1.02H79.37V9.109h1.413V4.782h-.038L79.351,6.07V4.676l1.4-1.279H81.9V9.109Zm4.175-2-.04-.017-.144.152a1.758,1.758,0,0,1-.519.354,1.825,1.825,0,0,1-.741.135,2.028,2.028,0,0,1-1.067-.279,1.928,1.928,0,0,1-.722-.779,2.422,2.422,0,0,1-.259-1.134,2.273,2.273,0,0,1,.322-1.235,2.08,2.08,0,0,1,.86-.779,2.8,2.8,0,0,1,2.366-.005,2.107,2.107,0,0,1,.89.8,2.425,2.425,0,0,1,.341,1.327,3.581,3.581,0,0,1-.293,1.462,9.562,9.562,0,0,1-.842,1.471L86.5,10.129h-1.25Zm-1.078-.22a1.124,1.124,0,0,0,.923-.4,1.448,1.448,0,0,0,.327-.947,1.423,1.423,0,0,0-.332-.938,1.138,1.138,0,0,0-.928-.4,1.234,1.234,0,0,0-.7.192,1.219,1.219,0,0,0-.433.5,1.478,1.478,0,0,0-.144.64,1.522,1.522,0,0,0,.144.654,1.21,1.21,0,0,0,1.145.7Zm5.693,3.374a3.063,3.063,0,0,1-1.389-.279,1.872,1.872,0,0,1-.813-.73,1.913,1.913,0,0,1-.26-.962,1.653,1.653,0,0,1,.2-.827,1.754,1.754,0,0,1,.452-.539,1.435,1.435,0,0,1,.467-.25V6.628a1.484,1.484,0,0,1-.611-.51,1.517,1.517,0,0,1-.293-.952,1.837,1.837,0,0,1,.24-.913,1.8,1.8,0,0,1,.745-.709,3.053,3.053,0,0,1,2.539,0,1.807,1.807,0,0,1,.742.713,1.864,1.864,0,0,1,.234.906,1.564,1.564,0,0,1-.152.712,1.619,1.619,0,0,1-.365.5,1.352,1.352,0,0,1-.385.253v.048a1.435,1.435,0,0,1,.467.25,1.727,1.727,0,0,1,.452.539,1.643,1.643,0,0,1,.2.827,1.9,1.9,0,0,1-.259.962,1.876,1.876,0,0,1-.815.73A3.067,3.067,0,0,1,91.978,10.263Zm0-3.981a1.124,1.124,0,0,0,.86-.3,1.058,1.058,0,0,0,0-1.447,1.35,1.35,0,0,0-1.717,0,1.032,1.032,0,0,0-.283.721,1.018,1.018,0,0,0,.283.731A1.138,1.138,0,0,0,91.978,6.282Zm-.009,3.01a1.282,1.282,0,0,0,.976-.342,1.13,1.13,0,0,0,.323-.8,1.147,1.147,0,0,0-.323-.813,1.553,1.553,0,0,0-1.942,0,1.155,1.155,0,0,0-.323.822,1.112,1.112,0,0,0,.323.8A1.288,1.288,0,0,0,91.969,9.292ZM98.71,7.109l-.039-.017-.144.152a1.758,1.758,0,0,1-.519.354,1.825,1.825,0,0,1-.741.135A2.031,2.031,0,0,1,96.2,7.454a1.919,1.919,0,0,1-.721-.779,2.418,2.418,0,0,1-.26-1.135A2.285,2.285,0,0,1,95.541,4.3a2.082,2.082,0,0,1,.861-.779,2.806,2.806,0,0,1,2.366,0,2.11,2.11,0,0,1,.889.8A2.431,2.431,0,0,1,100,5.646a3.579,3.579,0,0,1-.293,1.461,9.572,9.572,0,0,1-.842,1.472l-1.02,1.55h-1.25Zm-1.077-.22a1.124,1.124,0,0,0,.923-.4,1.448,1.448,0,0,0,.327-.947,1.423,1.423,0,0,0-.332-.938,1.138,1.138,0,0,0-.928-.4,1.236,1.236,0,0,0-.7.192,1.219,1.219,0,0,0-.433.5,1.478,1.478,0,0,0-.144.64,1.522,1.522,0,0,0,.144.654,1.21,1.21,0,0,0,1.145.7Z"/><path id="패스_52145-2" data-name="패스 52145" class="cls-1" d="M0,.005H21.259V13.166H0Z"/><g id="패스_52147-2" data-name="패스 52147"><rect class="cls-4" x="21.259" y="0.005" width="38.468" height="13.16"/></g><path id="패스_52146-2" data-name="패스 52146" class="cls-3" d="M9.373,4.176v-2.1h-1.1V7.262h1.1V5.074H10.62v-.9Zm-4.367.9a3.509,3.509,0,0,0,2.03,1.842l.59-.86A2.873,2.873,0,0,1,5.519,3.312v-.78h-1.1v.81A3.087,3.087,0,0,1,2.227,6.305l.591.866A3.639,3.639,0,0,0,5.006,5.074ZM9.373,10.9V7.629H3.6V10.9ZM8.285,8.509v1.5h-3.6v-1.5ZM18.358,7.328V2.075h-1.1V3.8H15.479v.9H17.26V7.326ZM13.616,5.14a3.416,3.416,0,0,0,2.038,1.846l.59-.861a2.833,2.833,0,0,1-2.1-2.775V2.557h-1.1V3.4a3.075,3.075,0,0,1-2.227,2.974l.587.885A3.622,3.622,0,0,0,13.616,5.14Zm1.716,2.426c-1.887,0-3.044.633-3.041,1.721S13.445,11,15.332,11s3.049-.62,3.049-1.711-1.157-1.72-3.048-1.72Zm0,2.566c-1.245,0-1.954-.3-1.947-.846-.007-.562.7-.863,1.947-.863s1.954.3,1.957.863c0,.546-.709.85-1.956.846Z"/><path id="패스_52148-2" data-name="패스 52148" class="cls-1" d="M28.193,5.707h2.48V2.288H29.579V3.18H25.72V2.288H24.633V5.707h2.461v.86H23.58v.888h8.142V6.567H28.193ZM29.577,4v.835H25.72V4Zm.046,5.03V11h1.106V8.155H24.482v.87ZM38.457,11h1.108V2.075H38.458ZM35.5,3.858h1.952v-.9H32.418v.9h1.968v.754a4.334,4.334,0,0,1-2.3,3.832l.632.867a4.567,4.567,0,0,0,2.241-2.755,4.252,4.252,0,0,0,2.241,2.531l.6-.867a3.954,3.954,0,0,1-2.3-3.608ZM47.377,5.57h-.911V2.23H45.428v8.346h1.038v-4.1h.911V11h1.057V2.075H47.377ZM43.454,3.931h1.468V3.046H40.8v.885h1.591v.426c0,1.741-.532,3.3-1.863,4.05l.681.841a4.02,4.02,0,0,0,1.737-2.531A3.7,3.7,0,0,0,44.68,8.933l.637-.839a3.949,3.949,0,0,1-1.86-3.737ZM56.285,2.075H55.178v6.46h1.107V5.494H57.54V4.583H56.285ZM54.367,5.847a16.764,16.764,0,0,1-3.667.279V3.7h2.912V2.812H49.6V7.021h.727a19.77,19.77,0,0,0,4.158-.284Zm-3.81,2.01v2.98h6.074V9.943h-4.98V7.857Z"/><path id="패스_52149-2" data-name="패스 52149" class="cls-1" d="M64.579,10.206a2.231,2.231,0,0,1-2.142-1.351,3.29,3.29,0,0,1,0-2.578,2.287,2.287,0,0,1,.81-.976,2.312,2.312,0,0,1,1.342-.375,2.153,2.153,0,0,1,1.676.683,2.836,2.836,0,0,1,.62,1.974V7.9H63.31v.077a1.318,1.318,0,0,0,.158.633,1.227,1.227,0,0,0,.442.476,1.19,1.19,0,0,0,.649.178,1.171,1.171,0,0,0,1.136-.732h1.144a2.309,2.309,0,0,1-.779,1.2A2.268,2.268,0,0,1,64.579,10.206Zm1.183-3.078a1.447,1.447,0,0,0-.341-1.012,1.267,1.267,0,0,0-1.731.038,1.462,1.462,0,0,0-.351.977Zm3.9,3.078a2.353,2.353,0,0,1-1.1-.241,1.756,1.756,0,0,1-.7-.63,1.536,1.536,0,0,1-.24-.822V8.455h1.144v.058a.75.75,0,0,0,.24.539.928.928,0,0,0,.683.24.965.965,0,0,0,.6-.173.565.565,0,0,0,.231-.481.5.5,0,0,0-.2-.423.979.979,0,0,0-.486-.192l-.607-.116a2.274,2.274,0,0,1-1.034-.438,1.2,1.2,0,0,1-.447-1.024,1.331,1.331,0,0,1,.519-1.113A2.108,2.108,0,0,1,69.6,4.927a2.269,2.269,0,0,1,1.034.221,1.637,1.637,0,0,1,.663.577,1.408,1.408,0,0,1,.226.769v.039H70.378V6.5a.737.737,0,0,0-.2-.49.769.769,0,0,0-.62-.231.849.849,0,0,0-.568.178.579.579,0,0,0-.211.467.486.486,0,0,0,.2.405,1.15,1.15,0,0,0,.5.211l.664.116a2.344,2.344,0,0,1,1.048.471,1.206,1.206,0,0,1,.423.99,1.406,1.406,0,0,1-.253.832,1.653,1.653,0,0,1-.7.557,2.457,2.457,0,0,1-1,.2ZM74.2,5.964V8.455a2.724,2.724,0,0,0,.036.51.392.392,0,0,0,.188.259.954.954,0,0,0,.49.1,2.636,2.636,0,0,0,.443-.05v.82a2.268,2.268,0,0,1-.327.051,5.209,5.209,0,0,1-.529.029,1.954,1.954,0,0,1-.981-.193.83.83,0,0,1-.4-.491,3.049,3.049,0,0,1-.082-.779V5.964h-.885V5.053h.885V3.4h1.164V5.051H75.36v.911Zm3,4.242a.656.656,0,0,1-.486-.2.709.709,0,0,1,0-.981.652.652,0,0,1,.486-.2.666.666,0,0,1,.5.2.681.681,0,0,1,.2.491.693.693,0,0,1-.693.693Zm5.982-1.1v1.02H79.37V9.109h1.413V4.782h-.038L79.351,6.07V4.676l1.4-1.279H81.9V9.109Zm4.175-2-.04-.017-.144.152a1.758,1.758,0,0,1-.519.354,1.825,1.825,0,0,1-.741.135,2.028,2.028,0,0,1-1.067-.279,1.928,1.928,0,0,1-.722-.779,2.422,2.422,0,0,1-.259-1.134,2.273,2.273,0,0,1,.322-1.235,2.08,2.08,0,0,1,.86-.779,2.8,2.8,0,0,1,2.366-.005,2.107,2.107,0,0,1,.89.8,2.425,2.425,0,0,1,.341,1.327,3.581,3.581,0,0,1-.293,1.462,9.562,9.562,0,0,1-.842,1.471L86.5,10.129h-1.25Zm-1.078-.22a1.124,1.124,0,0,0,.923-.4,1.448,1.448,0,0,0,.327-.947,1.423,1.423,0,0,0-.332-.938,1.138,1.138,0,0,0-.928-.4,1.234,1.234,0,0,0-.7.192,1.219,1.219,0,0,0-.433.5,1.478,1.478,0,0,0-.144.64,1.522,1.522,0,0,0,.144.654,1.21,1.21,0,0,0,1.145.7Zm5.693,3.374a3.063,3.063,0,0,1-1.389-.279,1.872,1.872,0,0,1-.813-.73,1.913,1.913,0,0,1-.26-.962,1.653,1.653,0,0,1,.2-.827,1.754,1.754,0,0,1,.452-.539,1.435,1.435,0,0,1,.467-.25V6.628a1.484,1.484,0,0,1-.611-.51,1.517,1.517,0,0,1-.293-.952,1.837,1.837,0,0,1,.24-.913,1.8,1.8,0,0,1,.745-.709,3.053,3.053,0,0,1,2.539,0,1.807,1.807,0,0,1,.742.713,1.864,1.864,0,0,1,.234.906,1.564,1.564,0,0,1-.152.712,1.619,1.619,0,0,1-.365.5,1.352,1.352,0,0,1-.385.253v.048a1.435,1.435,0,0,1,.467.25,1.727,1.727,0,0,1,.452.539,1.643,1.643,0,0,1,.2.827,1.9,1.9,0,0,1-.259.962,1.876,1.876,0,0,1-.815.73A3.067,3.067,0,0,1,91.978,10.263Zm0-3.981a1.124,1.124,0,0,0,.86-.3,1.058,1.058,0,0,0,0-1.447,1.35,1.35,0,0,0-1.717,0,1.032,1.032,0,0,0-.283.721,1.018,1.018,0,0,0,.283.731A1.138,1.138,0,0,0,91.978,6.282Zm-.009,3.01a1.282,1.282,0,0,0,.976-.342,1.13,1.13,0,0,0,.323-.8,1.147,1.147,0,0,0-.323-.813,1.553,1.553,0,0,0-1.942,0,1.155,1.155,0,0,0-.323.822,1.112,1.112,0,0,0,.323.8A1.288,1.288,0,0,0,91.969,9.292ZM98.71,7.109l-.039-.017-.144.152a1.758,1.758,0,0,1-.519.354,1.825,1.825,0,0,1-.741.135A2.031,2.031,0,0,1,96.2,7.454a1.919,1.919,0,0,1-.721-.779,2.418,2.418,0,0,1-.26-1.135A2.285,2.285,0,0,1,95.541,4.3a2.082,2.082,0,0,1,.861-.779,2.806,2.806,0,0,1,2.366,0,2.11,2.11,0,0,1,.889.8A2.431,2.431,0,0,1,100,5.646a3.579,3.579,0,0,1-.293,1.461,9.572,9.572,0,0,1-.842,1.472l-1.02,1.55h-1.25Zm-1.077-.22a1.124,1.124,0,0,0,.923-.4,1.448,1.448,0,0,0,.327-.947,1.423,1.423,0,0,0-.332-.938,1.138,1.138,0,0,0-.928-.4,1.236,1.236,0,0,0-.7.192,1.219,1.219,0,0,0-.433.5,1.478,1.478,0,0,0-.144.64,1.522,1.522,0,0,0,.144.654,1.21,1.21,0,0,0,1.145.7Z"/></svg>