<svg xmlns="http://www.w3.org/2000/svg" viewBox="0 0 100 71.204"><defs><style>.cls-1{fill:#11a668;}.cls-2{fill:#fff;}</style></defs><g id="레이어_2" data-name="레이어 2"><path class="cls-1" d="M54.534,21.745h-2.75v-2.74a.521.521,0,0,0-.529-.53H48.744a.52.52,0,0,0-.529.53v2.74h-2.75a.534.534,0,0,0-.531.53V24.8a.534.534,0,0,0,.531.53h2.75v2.75a.526.526,0,0,0,.529.53h2.511a.527.527,0,0,0,.529-.53v-2.75h2.75a.527.527,0,0,0,.53-.53v-2.52A.527.527,0,0,0,54.534,21.745Zm-.529,2.52h-2.75a.534.534,0,0,0-.531.53v2.75h-1.45V24.8a.534.534,0,0,0-.53-.53h-2.75v-1.46h2.75a.534.534,0,0,0,.53-.53v-2.74h1.45v2.74a.534.534,0,0,0,.531.53h2.75Zm.529-2.52h-2.75v-2.74a.521.521,0,0,0-.529-.53H48.744a.52.52,0,0,0-.529.53v2.74h-2.75a.534.534,0,0,0-.531.53V24.8a.534.534,0,0,0,.531.53h2.75v2.75a.526.526,0,0,0,.529.53h2.511a.527.527,0,0,0,.529-.53v-2.75h2.75a.527.527,0,0,0,.53-.53v-2.52A.527.527,0,0,0,54.534,21.745Zm-.529,2.52h-2.75a.534.534,0,0,0-.531.53v2.75h-1.45V24.8a.534.534,0,0,0-.53-.53h-2.75v-1.46h2.75a.534.534,0,0,0,.53-.53v-2.74h1.45v2.74a.534.534,0,0,0,.531.53h2.75Zm33.229,45.88V33.1H63.614V13.135H39.394V33.1H16.255v37.57h73.4v-.53ZM50.005,16.5a7.04,7.04,0,1,1-7.04,7.04A7.042,7.042,0,0,1,50.005,16.5Zm-6.941,53.65V51.865h6.41v18.28Zm7.47,0V51.865h6.4v18.28Zm-5.069-44.82h2.75v2.75a.526.526,0,0,0,.529.53h2.511a.527.527,0,0,0,.529-.53v-2.75h2.75a.527.527,0,0,0,.53-.53v-2.52a.527.527,0,0,0-.53-.53h-2.75v-2.74a.521.521,0,0,0-.529-.53H48.744a.52.52,0,0,0-.529.53v2.74h-2.75a.534.534,0,0,0-.531.53V24.8A.534.534,0,0,0,45.465,25.325Zm.529-2.52h2.75a.534.534,0,0,0,.53-.53v-2.74h1.45v2.74a.534.534,0,0,0,.531.53h2.75v1.46h-2.75a.534.534,0,0,0-.531.53v2.75h-1.45V24.8a.534.534,0,0,0-.53-.53h-2.75Z"/><path class="cls-1" d="M89.651,55.245v3.292a5.226,5.226,0,0,1,0-3.292Z"/><path class="cls-2" d="M42.544,51.335v19.34H57.465V51.335Zm.52,18.81V51.865h6.41v18.28Zm7.47,0V51.865h6.4v18.28Z"/><path d="M57.465,50.805H42.534a.533.533,0,0,0-.529.53v19.34a.532.532,0,0,0,.529.53H57.465a.533.533,0,0,0,.529-.53V51.335A.533.533,0,0,0,57.465,50.805Zm-.531,19.34H43.064V51.865h13.87Z"/><path d="M64.064,10.025a.76.76,0,0,0-.04-.11l-.01-.01c0-.01-.009-.02-.009-.03a.3.3,0,0,0-.051-.06c0-.01,0-.01-.01-.01a.382.382,0,0,0-.09-.09h-.01a.486.486,0,0,0-.3-.09H36.454a.5.5,0,0,0-.3.09h-.011a.572.572,0,0,0-.08.07.035.035,0,0,1-.01.02l-.03.03a.262.262,0,0,0-.03.05.307.307,0,0,0-.05.13.508.508,0,0,0-.019.13v60.53a.521.521,0,0,0,.529.53h27.09a.521.521,0,0,0,.53-.53V10.155A.57.57,0,0,0,64.064,10.025Zm-27.08,60.12V10.685h26.03v59.46Z"/><path d="M36.454,29.585H13.3a.534.534,0,0,0-.53.53v40.56a.534.534,0,0,0,.53.53h23.15a.533.533,0,0,0,.53-.53V30.115A.534.534,0,0,0,36.454,29.585Zm-.529,40.56H13.834v-39.5H35.925Z"/><path d="M86.7,29.585H63.544a.534.534,0,0,0-.53.53v40.56a.534.534,0,0,0,.53.53H86.7a.533.533,0,0,0,.53-.53V30.115A.534.534,0,0,0,86.7,29.585Zm-.529,40.56h-22.1v-39.5h22.1Z"/><path d="M47.114,36.415h-4.58a.533.533,0,0,0-.529.53V45.5a.535.535,0,0,0,.529.54h4.58a.529.529,0,0,0,.53-.54v-8.55A.527.527,0,0,0,47.114,36.415Zm-.53,8.55h-3.52v-7.49h3.52Z"/><path d="M57.465,36.415H52.884a.534.534,0,0,0-.53.53V45.5a.536.536,0,0,0,.53.54h4.581a.535.535,0,0,0,.529-.54v-8.55A.533.533,0,0,0,57.465,36.415Zm-.531,8.55h-3.52v-7.49h3.52Z"/><path d="M72.244,36.415h-4.58a.534.534,0,0,0-.53.53V45.5a.536.536,0,0,0,.53.54h4.58a.536.536,0,0,0,.53-.54v-8.55A.534.534,0,0,0,72.244,36.415Zm-.529,8.55H68.194v-7.49h3.521Z"/><path d="M82.584,36.415H78.005a.534.534,0,0,0-.531.53V45.5a.537.537,0,0,0,.531.54h4.579a.529.529,0,0,0,.53-.54v-8.55A.527.527,0,0,0,82.584,36.415Zm-.53,8.55h-3.52v-7.49h3.52Z"/><path d="M21.994,36.415h-4.58a.534.534,0,0,0-.53.53V45.5a.536.536,0,0,0,.53.54h4.58a.529.529,0,0,0,.53-.54v-8.55A.527.527,0,0,0,21.994,36.415Zm-.529,8.55H17.944v-7.49h3.521Z"/><path d="M32.334,36.415h-4.57a.528.528,0,0,0-.53.53V45.5a.53.53,0,0,0,.53.54h4.57a.529.529,0,0,0,.53-.54v-8.55A.527.527,0,0,0,32.334,36.415Zm-.53,8.55h-3.51v-7.49H31.8Z"/><path d="M21.994,50.625h-4.58a.527.527,0,0,0-.53.53v8.55a.534.534,0,0,0,.53.53h4.58a.527.527,0,0,0,.53-.53v-8.55A.521.521,0,0,0,21.994,50.625Zm-.529,8.55H17.944v-7.49h3.521Z"/><path d="M32.334,50.625h-4.57a.522.522,0,0,0-.53.53v8.55a.528.528,0,0,0,.53.53h4.57a.527.527,0,0,0,.53-.53v-8.55A.521.521,0,0,0,32.334,50.625Zm-.53,8.55h-3.51v-7.49H31.8Z"/><path d="M72.244,50.625h-4.58a.527.527,0,0,0-.53.53v8.55a.534.534,0,0,0,.53.53h4.58a.534.534,0,0,0,.53-.53v-8.55A.527.527,0,0,0,72.244,50.625Zm-.529,8.55H68.194v-7.49h3.521Z"/><path d="M82.584,50.625H78.005a.528.528,0,0,0-.531.53v8.55a.534.534,0,0,0,.531.53h4.579a.527.527,0,0,0,.53-.53v-8.55A.521.521,0,0,0,82.584,50.625Zm-.53,8.55h-3.52v-7.49h3.52Z"/><path d="M50.534,51.335v19.34a.533.533,0,0,1-.529.53.527.527,0,0,1-.531-.53V51.335a.527.527,0,0,1,.531-.53A.533.533,0,0,1,50.534,51.335Z"/><path class="cls-2" d="M54.534,21.745h-2.75v-2.74a.521.521,0,0,0-.529-.53H48.744a.52.52,0,0,0-.529.53v2.74h-2.75a.534.534,0,0,0-.531.53V24.8a.534.534,0,0,0,.531.53h2.75v2.75a.526.526,0,0,0,.529.53h2.511a.527.527,0,0,0,.529-.53v-2.75h2.75a.527.527,0,0,0,.53-.53v-2.52A.527.527,0,0,0,54.534,21.745Zm-.529,2.52h-2.75a.534.534,0,0,0-.531.53v2.75h-1.45V24.8a.534.534,0,0,0-.53-.53h-2.75v-1.46h2.75a.534.534,0,0,0,.53-.53v-2.74h1.45v2.74a.534.534,0,0,0,.531.53h2.75Z"/><path class="cls-2" d="M50.005,15.965a7.57,7.57,0,1,0,7.569,7.57A7.571,7.571,0,0,0,50.005,15.965Zm0,14.61a7.04,7.04,0,1,1,7.029-7.04A7.043,7.043,0,0,1,50.005,30.575Z"/><path d="M50.005,15.435a8.1,8.1,0,1,0,8.089,8.1A8.1,8.1,0,0,0,50.005,15.435Zm0,15.14a7.04,7.04,0,1,1,7.029-7.04A7.043,7.043,0,0,1,50.005,30.575Z"/><path d="M54.534,21.745h-2.75v-2.74a.521.521,0,0,0-.529-.53H48.744a.52.52,0,0,0-.529.53v2.74h-2.75a.534.534,0,0,0-.531.53V24.8a.534.534,0,0,0,.531.53h2.75v2.75a.526.526,0,0,0,.529.53h2.511a.527.527,0,0,0,.529-.53v-2.75h2.75a.527.527,0,0,0,.53-.53v-2.52A.527.527,0,0,0,54.534,21.745Zm-.529,2.52h-2.75a.534.534,0,0,0-.531.53v2.75h-1.45V24.8a.534.534,0,0,0-.53-.53h-2.75v-1.46h2.75a.534.534,0,0,0,.53-.53v-2.74h1.45v2.74a.534.534,0,0,0,.531.53h2.75Z"/><path d="M63.55,10.682a.533.533,0,0,1-.307-.1L50,1.181l-13.242,9.4a.53.53,0,0,1-.614-.865L49.694.1a.529.529,0,0,1,.614,0L63.857,9.719a.53.53,0,0,1-.307.963Z"/><path d="M94.694,70.145H5.834v-7.98a5.323,5.323,0,0,0,4.78-5.28,5.248,5.248,0,0,0-1.2-3.35,4.359,4.359,0,0,0,.35-1.71,4.455,4.455,0,0,0-8.91,0,4.535,4.535,0,0,0,.34,1.71,5.309,5.309,0,0,0,3.58,8.63v8.51a.534.534,0,0,0,.53.53h89.39a.534.534,0,0,0,.53-.53A.527.527,0,0,0,94.694,70.145ZM5.3,53.165a.534.534,0,0,0-.53.53v3.66l-.76-.98a.534.534,0,1,0-.839.66l1.6,2.04V61.1a4.246,4.246,0,0,1-3.71-4.21,4.186,4.186,0,0,1,1.151-2.9.527.527,0,0,0,.079-.61,3.32,3.32,0,0,1-.38-1.55,3.4,3.4,0,0,1,6.79,0,3.213,3.213,0,0,1-.39,1.55.547.547,0,0,0,.091.61A4.24,4.24,0,0,1,5.834,61.1V53.7A.527.527,0,0,0,5.3,53.165Z"/><path d="M98.8,53.535a4.35,4.35,0,0,0,.34-1.71,4.45,4.45,0,0,0-8.9,0,4.35,4.35,0,0,0,.34,1.71,5.239,5.239,0,0,0-.929,5,5.3,5.3,0,0,0,4.509,3.63v8.51a.53.53,0,0,0,1.06,0v-8.51a5.3,5.3,0,0,0,3.58-8.63Zm-3.58,7.56V53.7a.53.53,0,0,0-1.06,0v3.66l-.77-.98a.525.525,0,0,0-.739-.09.538.538,0,0,0-.091.75l1.6,2.04V61.1a4.239,4.239,0,0,1-2.57-7.11.527.527,0,0,0,.09-.61,3.32,3.32,0,0,1-.38-1.55,3.39,3.39,0,0,1,6.78,0,3.32,3.32,0,0,1-.38,1.55.543.543,0,0,0,.08.61,4.2,4.2,0,0,1,1.16,2.9A4.255,4.255,0,0,1,95.224,61.1Z"/></g></svg>