<svg id="레이어_1" data-name="레이어 1" xmlns="http://www.w3.org/2000/svg" viewBox="0 0 48 48"><path d="M24,48H.96A.96.96,0,0,1,0,47.04V24a.96.96,0,0,1,.96-.96H24a.96.96,0,0,1,.96.96V47.04A.959.959,0,0,1,24,48ZM1.92,46.08H23.04V24.96H1.92Z"/><path d="M47.04,48H24a.96.96,0,0,1-.96-.96V24a.96.96,0,0,1,.96-.96H47.04A.96.96,0,0,1,48,24V47.04A.959.959,0,0,1,47.04,48ZM24.96,46.08H46.08V24.96H24.96Z"/><path d="M35.52,24.96H12.48a.96.96,0,0,1-.96-.96V.96A.96.96,0,0,1,12.48,0H35.52a.96.96,0,0,1,.96.96V24A.959.959,0,0,1,35.52,24.96ZM13.44,23.04H34.56V1.92H13.44Z"/><path d="M24,20.589a8.109,8.109,0,1,1,8.109-8.109A8.118,8.118,0,0,1,24,20.589Zm0-14.3a6.189,6.189,0,1,0,6.189,6.189A6.2,6.2,0,0,0,24,6.291Z"/><path d="M19.909,42.914H5.051a.96.96,0,0,1-.832-1.44l7.43-12.868a.959.959,0,0,1,.831-.48h0a.962.962,0,0,1,.832.48l7.429,12.868a.96.96,0,0,1-.832,1.44ZM6.714,40.994H18.246L12.48,31.006Z"/><path d="M19.909,42.914H5.051a.96.96,0,0,1-.832-1.44l7.43-12.868a.959.959,0,0,1,.831-.48h0a.962.962,0,0,1,.832.48l7.429,12.868a.96.96,0,0,1-.832,1.44ZM6.714,40.994H18.246L12.48,31.006Z"/><path d="M35.52,43.947a.953.953,0,0,1-.678-.281L27.374,36.2a.959.959,0,0,1,0-1.357l7.468-7.468a.959.959,0,0,1,1.357,0l7.467,7.468a.959.959,0,0,1,0,1.357L36.2,43.666A.954.954,0,0,1,35.52,43.947ZM29.411,35.52l6.109,6.11,6.11-6.11-6.11-6.109Z"/></svg>