<svg id="레이어_1" data-name="레이어 1" xmlns="http://www.w3.org/2000/svg" viewBox="0 0 48 40"><path d="M14.122,40a7.6,7.6,0,1,1,7.564-7.6A7.591,7.591,0,0,1,14.122,40Zm0-13.271A5.671,5.671,0,1,0,19.766,32.4,5.664,5.664,0,0,0,14.122,26.729Z"/><path d="M35.43,40A7.6,7.6,0,1,1,43,32.4,7.59,7.59,0,0,1,35.43,40Zm0-13.271A5.671,5.671,0,1,0,41.075,32.4,5.664,5.664,0,0,0,35.43,26.729Z"/><path d="M30.086,37.263H19.46a.965.965,0,0,1,0-1.93H30.086a.965.965,0,0,1,0,1.93Z"/><path d="M30.08,29.474H19.462a.965.965,0,0,1,0-1.929H30.08a.965.965,0,0,1,0,1.929Z"/><path d="M47.04,37.259H40.775a.965.965,0,0,1,0-1.929H46.08V29.474h-5.3a.965.965,0,0,1,0-1.929H47.04a.961.961,0,0,1,.96.965v7.784A.962.962,0,0,1,47.04,37.259Z"/><path d="M8.788,37.263H.96A.962.962,0,0,1,0,36.3V28.506a.962.962,0,0,1,.96-.965H8.788a.965.965,0,0,1,0,1.929H1.92v5.863H8.788a.965.965,0,0,1,0,1.93Z"/><path d="M47.04,1.929H21.928a.965.965,0,0,1,0-1.929H47.04a.965.965,0,0,1,0,1.929Z"/><path d="M44.084,29.47a.961.961,0,0,1-.96-.964V1.929H25.843V28.506a.96.96,0,1,1-1.92,0V.965A.962.962,0,0,1,24.883,0h19.2a.961.961,0,0,1,.96.965V28.506A.961.961,0,0,1,44.084,29.47Z"/><path d="M3.915,29.47a.961.961,0,0,1-.96-.964V15.937a.962.962,0,0,1,.96-.965H24.883a.965.965,0,0,1,0,1.929H4.875V28.506A.961.961,0,0,1,3.915,29.47Z"/><path d="M17.907,16.9a.962.962,0,0,1-.96-.964V7.885h-5.1v8.052a.96.96,0,1,1-1.92,0V6.92a.962.962,0,0,1,.96-.965h7.016a.962.962,0,0,1,.96.965v9.017A.961.961,0,0,1,17.907,16.9Z"/><path d="M38.147,18.009H30.821a.962.962,0,0,1-.96-.965V9.684a.963.963,0,0,1,.96-.965h7.326a.963.963,0,0,1,.96.965v7.36A.962.962,0,0,1,38.147,18.009ZM31.781,16.08h5.406V10.648H31.781Z"/></svg>