<svg xmlns="http://www.w3.org/2000/svg" viewBox="0 0 87.7 77.215"><defs><style>.cls-1{fill:#11a668;}</style></defs><g id="레이어_2" data-name="레이어 2"><path class="cls-1" d="M18.761,64a3.175,3.175,0,0,1-.032.449A4.279,4.279,0,0,1,11.3,64.6a3.21,3.21,0,0,1-.053-.6Z"/><path class="cls-1" d="M85.34,36.09a5.038,5.038,0,0,1-3.535,4.8V31.287A5.038,5.038,0,0,1,85.34,36.09Z"/><path class="cls-1" d="M65.931,38.853V41a5.234,5.234,0,0,1-5.225,5.226H58.682a5.208,5.208,0,0,1-1.7-.285,4.624,4.624,0,0,1-1.247-1.993l0,0a4.658,4.658,0,0,1-.216-1.416V38.853Z"/><path class="cls-1" d="M11,35.3a9.7,9.7,0,0,0-1.057.375,9.232,9.232,0,0,0-4.734,4.386A4.57,4.57,0,0,1,5.245,33.5,5.1,5.1,0,0,1,11,35.3Z"/><path class="cls-1" d="M26.238,42.33a10.487,10.487,0,0,0-.359-1.088,9.6,9.6,0,0,0-4.18-4.814A4.581,4.581,0,0,1,24.468,35.2a4.418,4.418,0,0,1,1.247.069,4.513,4.513,0,0,1,2,.935,4.853,4.853,0,0,1,.217.544A5.139,5.139,0,0,1,26.238,42.33Z"/><path class="cls-1" d="M8,77.036a4.748,4.748,0,0,1-2.378.053,6.175,6.175,0,0,1-1.76-2.061,7.207,7.207,0,0,1-.671-1.834c-.745-3.371.909-6.721,3.7-7.487A4.409,4.409,0,0,1,8.9,65.633,5.066,5.066,0,0,1,11.3,66.869a7.721,7.721,0,0,1,.777,2.056C12.88,72.56,11.052,76.2,8,77.036Z"/><path class="cls-1" d="M29.065,71.931a6.981,6.981,0,0,1-3.091,4.518,5.137,5.137,0,0,1-2.674.766,4.707,4.707,0,0,1-.946-.095,5.463,5.463,0,0,1-1.537-1.849,7.164,7.164,0,0,1-.592-4.856c.713-3.192,3.334-5.258,5.981-4.8.143.026.286.058.428.095a4.621,4.621,0,0,1,1.733.908A7.7,7.7,0,0,1,29.065,71.931Z"/><path d="M11.553,69.568a.53.53,0,0,1-.516-.413,5.934,5.934,0,0,0-2.6-3.841,4.011,4.011,0,0,0-3.15-.474.528.528,0,1,1-.279-1.019,5.053,5.053,0,0,1,3.974.588,6.99,6.99,0,0,1,3.09,4.516.529.529,0,0,1-.4.631A.569.569,0,0,1,11.553,69.568Z"/><path d="M12.072,68.925a7.721,7.721,0,0,0-.777-2.056A6.54,6.54,0,0,0,8.98,64.407a5.071,5.071,0,0,0-3.973-.587C1.952,64.661.124,68.3.933,71.931a6.981,6.981,0,0,0,3.091,4.518,5.159,5.159,0,0,0,1.6.64A4.748,4.748,0,0,0,8,77.036C11.052,76.2,12.88,72.56,12.072,68.925Zm-4.355,7.1a4.027,4.027,0,0,1-3.149-.475,4.824,4.824,0,0,1-.708-.518,6.168,6.168,0,0,1-1.9-3.324c-.687-3.091.8-6.172,3.324-6.864A3.872,3.872,0,0,1,6.3,64.7a4.124,4.124,0,0,1,2.135.613,4.488,4.488,0,0,1,.465.317,6.081,6.081,0,0,1,2.135,3.519C11.723,72.248,10.238,75.329,7.717,76.021Z"/><path d="M28.367,66.615A5.57,5.57,0,0,0,25,63.82a5.068,5.068,0,0,0-3.973.587,7,7,0,0,0-3.092,4.518C17.123,72.56,18.946,76.2,22,77.036c.116.031.238.063.354.084a4.707,4.707,0,0,0,.946.095,5.137,5.137,0,0,0,2.674-.766,6.981,6.981,0,0,0,3.091-4.518A7.7,7.7,0,0,0,28.367,66.615ZM28.035,71.7a5.937,5.937,0,0,1-2.606,3.842,4.019,4.019,0,0,1-3.149.475,4.1,4.1,0,0,1-1.463-.75,6.158,6.158,0,0,1-1.855-6.119,5.927,5.927,0,0,1,2.605-3.836A4.111,4.111,0,0,1,23.7,64.7a3.9,3.9,0,0,1,1.014.137,4.125,4.125,0,0,1,1.49.772A6.153,6.153,0,0,1,28.035,71.7Z"/><path d="M7.215,64.8h0a.528.528,0,0,1-.527-.53,8.381,8.381,0,0,1,2.076-5.452.528.528,0,0,1,.8.692,7.328,7.328,0,0,0-1.817,4.764A.528.528,0,0,1,7.215,64.8Z"/><path d="M22.772,64.8a.529.529,0,0,1-.529-.526,7.228,7.228,0,0,0-1.816-4.767.528.528,0,1,1,.8-.692A8.383,8.383,0,0,1,23.3,64.271a.528.528,0,0,1-.526.531Z"/><path d="M15,56.418c-6.286-.1-9.2-3.354-10.539-6.065a11.373,11.373,0,0,1-.845-2.311,11.817,11.817,0,0,1-.229-1.2,11.7,11.7,0,0,1-.1-1.216q-.007-.3,0-.609A11.85,11.85,0,0,1,3.4,43.7a11.306,11.306,0,0,1,.569-2.278q.108-.294.231-.583c.083-.194.175-.382.27-.567.039-.076.081-.153.122-.229s.086-.151.129-.224A10.854,10.854,0,0,1,13.2,34.755a15.938,15.938,0,0,1,1.77-.081,15.987,15.987,0,0,1,1.809.081,10.855,10.855,0,0,1,8.485,5.071c.041.069.084.142.126.217s.083.154.123.232c.094.183.186.371.269.566s.161.388.232.583a11.278,11.278,0,0,1,.568,2.277h0a11.4,11.4,0,0,1,.112,1.315q.007.3,0,.609a11.5,11.5,0,0,1-.1,1.216,11.1,11.1,0,0,1-.229,1.2,11.322,11.322,0,0,1-.844,2.311,11.6,11.6,0,0,1-.6,1.07,10.276,10.276,0,0,1-5.9,4.411c-.146.043-.294.085-.446.124a14.481,14.481,0,0,1-2.468.408C15.75,56.394,15.382,56.411,15,56.418Zm-.2-20.689a14.37,14.37,0,0,0-1.492.077,9.815,9.815,0,0,0-7.681,4.552c-.041.067-.078.131-.114.2s-.072.132-.107.2c-.084.164-.166.33-.24.5s-.145.351-.209.528a10.191,10.191,0,0,0-.515,2.064,10.406,10.406,0,0,0-.1,1.193c0,.183,0,.367,0,.552a10.114,10.114,0,0,0,.09,1.105,10.493,10.493,0,0,0,.207,1.089,10.332,10.332,0,0,0,.766,2.1c1.21,2.447,3.856,5.384,9.592,5.476.341,0,.687-.022,1.022-.049a13.381,13.381,0,0,0,2.287-.376c.138-.036.274-.074.407-.114a9.256,9.256,0,0,0,5.314-3.966,10.8,10.8,0,0,0,.546-.972,10.352,10.352,0,0,0,.973-3.185,10.694,10.694,0,0,0,.09-1.1c0-.184,0-.369,0-.553a10.144,10.144,0,0,0-.1-1.192h0a10.308,10.308,0,0,0-.515-2.064q-.1-.267-.21-.529c-.073-.17-.154-.336-.238-.5-.036-.071-.073-.139-.11-.206s-.072-.128-.11-.19a9.814,9.814,0,0,0-7.684-4.556,14.131,14.131,0,0,0-1.648-.076.224.224,0,0,1-.026,0H14.8Z"/><path d="M11.009,36.253a.526.526,0,0,1-.729-.153,3.576,3.576,0,0,0-.333-.428,4.027,4.027,0,0,0-5.912-.2,3.968,3.968,0,0,0-.978,1.6A4.067,4.067,0,0,0,4.6,41.654a.526.526,0,0,1-.3.961.518.518,0,0,1-.3-.089,5.1,5.1,0,0,1,4.475-9.052A5.072,5.072,0,0,1,11,35.3q.087.111.159.222A.535.535,0,0,1,11.009,36.253Z"/><path d="M26.238,42.33a2.9,2.9,0,0,1-.254.191.549.549,0,0,1-.3.094.538.538,0,0,1-.439-.227.527.527,0,0,1,.138-.734,3.441,3.441,0,0,0,.5-.412,4.069,4.069,0,0,0,1.046-4.169,4.024,4.024,0,0,0-1.21-1.807,3.776,3.776,0,0,0-.8-.545A4.042,4.042,0,0,0,19.7,36.1a.529.529,0,1,1-.883-.581,5.1,5.1,0,0,1,8.893.682,4.853,4.853,0,0,1,.217.544A5.139,5.139,0,0,1,26.238,42.33Z"/><path d="M14.991,76.462a12.187,12.187,0,0,1-4.946-1.027.528.528,0,1,1,.426-.967,11.347,11.347,0,0,0,9.051-.007.528.528,0,0,1,.428.966A12.169,12.169,0,0,1,14.991,76.462Z"/><path d="M2.732,66.44a.545.545,0,0,1-.138-.018c-.081-.022-.159-.046-.235-.071A3.2,3.2,0,0,1,.426,64.643a6.75,6.75,0,0,1,.1-4.916A9.042,9.042,0,0,1,3.3,55.936,12.47,12.47,0,0,1,8.13,53.5a.529.529,0,0,1,.251,1.027,11.383,11.383,0,0,0-4.409,2.226A7.977,7.977,0,0,0,1.513,60.1a5.782,5.782,0,0,0-.133,4.093A2.146,2.146,0,0,0,2.7,65.349c.055.018.114.036.174.052a.529.529,0,0,1-.137,1.039Z"/><path d="M27.247,66.431a.529.529,0,0,1-.18-1.026c.064-.023.121-.04.179-.058a2.144,2.144,0,0,0,1.313-1.16,5.777,5.777,0,0,0-.132-4.093,8.056,8.056,0,0,0-2.461-3.342,11.372,11.372,0,0,0-4.408-2.226.528.528,0,1,1,.25-1.026,12.443,12.443,0,0,1,4.828,2.435,9.108,9.108,0,0,1,2.781,3.789,6.751,6.751,0,0,1,.1,4.918A3.2,3.2,0,0,1,27.58,66.35c-.07.021-.109.033-.153.049A.538.538,0,0,1,27.247,66.431Z"/><path d="M14.962,49.42a1.863,1.863,0,1,1,1.863-1.863A1.865,1.865,0,0,1,14.962,49.42Zm0-2.668a.806.806,0,1,0,.806.8A.806.806,0,0,0,14.962,46.752Z"/><path d="M16.837,52.375a2.37,2.37,0,0,1-1.845-.883A2.372,2.372,0,0,1,10.773,50a.529.529,0,0,1,1.057,0,1.317,1.317,0,1,0,2.633,0,.529.529,0,0,1,1.057,0,1.317,1.317,0,0,0,2.634,0,.529.529,0,0,1,1.057,0A2.377,2.377,0,0,1,16.837,52.375Z"/><path d="M14.992,50.529A.528.528,0,0,1,14.463,50V48.892a.529.529,0,1,1,1.057,0V50A.527.527,0,0,1,14.992,50.529Z"/><circle cx="10.716" cy="45.106" r="1.118"/><circle cx="19.268" cy="45.106" r="1.118"/><path d="M40.825,31.285A14.937,14.937,0,0,1,26.913,21.168c-2.287-.289-4.029-2.546-4.029-5.317,0-2.672,1.676-4.919,3.877-5.292a14.646,14.646,0,0,1,28.125-.011c2.242.334,3.948,2.584,3.948,5.3,0,2.771-1.807,5.074-4.1,5.327A14.936,14.936,0,0,1,40.825,31.285Zm0-30.228A13.867,13.867,0,0,0,27.668,11.2a.527.527,0,0,1-.467.373c-1.828.134-3.26,2.015-3.26,4.282,0,2.306,1.514,4.23,3.375,4.29a.528.528,0,0,1,.484.36,13.9,13.9,0,0,0,13.025,9.727,13.9,13.9,0,0,0,13.023-9.722.528.528,0,0,1,.5-.361c1.894-.022,3.434-1.948,3.434-4.294,0-2.305-1.458-4.187-3.319-4.285a.529.529,0,0,1-.478-.375A13.866,13.866,0,0,0,40.825,1.057Z"/><path d="M27.71,18.427a2.391,2.391,0,0,1-2.2-2.543,2.391,2.391,0,0,1,2.2-2.543.528.528,0,0,1,0,1.056,1.349,1.349,0,0,0-1.139,1.487A1.348,1.348,0,0,0,27.71,17.37a.529.529,0,0,1,0,1.057Z"/><path d="M53.8,18.427a.529.529,0,0,1,0-1.057,1.35,1.35,0,0,0,1.14-1.486A1.351,1.351,0,0,0,53.8,14.4a.528.528,0,1,1,0-1.056A2.392,2.392,0,0,1,56,15.884,2.392,2.392,0,0,1,53.8,18.427Z"/><path d="M46.587,10.753a.528.528,0,0,1-.217-.047A8.348,8.348,0,0,1,41.9,5.563.528.528,0,0,1,42.926,5.3h0a7.41,7.41,0,0,0,3.88,4.444.529.529,0,0,1-.219,1.01Z"/><path d="M42.354,11.568a.529.529,0,0,1-.363-.144,8.37,8.37,0,0,1-2.558-6.016.528.528,0,0,1,1.056.045h0a7.427,7.427,0,0,0,2.228,5.2.528.528,0,0,1-.363.912Z"/><path d="M37.694,10.334a.53.53,0,0,1-.5-.36A8.464,8.464,0,0,1,37,5.283a.529.529,0,0,1,1.015.3h0a7.53,7.53,0,0,0,.183,4.058.528.528,0,0,1-.5.7Z"/><circle cx="35.991" cy="17.927" r="1.261"/><circle cx="45.727" cy="17.927" r="1.261"/><path d="M40.788,21.435a.528.528,0,0,1,0-1.056.5.5,0,0,0,0-1,.529.529,0,0,1,0-1.057,1.556,1.556,0,1,1,0,3.112Z"/><path d="M40.788,25.87a3.318,3.318,0,0,1-3.314-3.314.528.528,0,1,1,1.056,0,2.259,2.259,0,0,0,4.517,0,.528.528,0,1,1,1.056,0A3.318,3.318,0,0,1,40.788,25.87Z"/><path d="M72.749,59.855a.528.528,0,0,1-.483-.311,12.077,12.077,0,0,0-21.707-.631.528.528,0,0,1-1-.224v-.005a.537.537,0,0,1,.06-.245,13.134,13.134,0,0,1,23.616.671.529.529,0,0,1-.265.7A.535.535,0,0,1,72.749,59.855Z"/><path d="M65.4,36.8H53.984a.527.527,0,0,0-.528.528V41a5.226,5.226,0,0,0,5.226,5.226h2.024A5.234,5.234,0,0,0,65.931,41V37.331A.526.526,0,0,0,65.4,36.8ZM64.875,41a4.174,4.174,0,0,1-4.169,4.169H58.682a4.174,4.174,0,0,1-2.949-1.221l0,0A4.187,4.187,0,0,1,54.513,41V37.86H64.875Z"/><path d="M60.168,43.2h-.95a2.738,2.738,0,0,1-2.735-2.734V37.329a.527.527,0,0,1,.528-.528h5.364a.527.527,0,0,1,.528.528v3.139A2.738,2.738,0,0,1,60.168,43.2Zm-2.629-5.344v2.61a1.68,1.68,0,0,0,1.679,1.678h.95a1.68,1.68,0,0,0,1.678-1.678v-2.61Z"/><path class="cls-1" d="M87.7,54.9a2.411,2.411,0,0,1-.814,1.664c-6.1,5.406-15.017,8.508-24.471,8.508a39.764,39.764,0,0,1-18.378-4.339.138.138,0,0,1-.052-.031,29.135,29.135,0,0,1-4.312-3.155,1.894,1.894,0,0,1-.164-2.673,1.868,1.868,0,0,1,1.543-.629,1.9,1.9,0,0,1,1.126.47,25.3,25.3,0,0,0,3.809,2.774.1.1,0,0,0,.032.021,34.813,34.813,0,0,0,17.77,4.624c8.413,0,16.291-2.706,21.612-7.419a1.9,1.9,0,0,1,2.293-.164A2.542,2.542,0,0,1,87.7,54.9Z"/><path d="M87.691,54.552a2.431,2.431,0,0,0-2.267-2.214,2.427,2.427,0,0,0-1.749.608C78.45,57.575,70.7,60.233,62.412,60.233s-16.037-2.658-21.257-7.287a2.423,2.423,0,0,0-3.419.206,2.422,2.422,0,0,0,.206,3.413,30.361,30.361,0,0,0,6.04,4.138.138.138,0,0,0,.052.031,39.764,39.764,0,0,0,18.378,4.339c9.454,0,18.373-3.1,24.471-8.508A2.411,2.411,0,0,0,87.7,54.9,2.542,2.542,0,0,0,87.691,54.552Zm-1.506,1.226c-5.913,5.237-14.578,8.238-23.773,8.238-9,0-17.49-2.875-23.381-7.905-.132-.111-.259-.222-.386-.333a1.363,1.363,0,0,1,.819-2.383c.032,0,.058-.005.084-.005a1.367,1.367,0,0,1,.9.343c.2.175.4.344.6.513a27.124,27.124,0,0,0,4.935,3.244.1.1,0,0,0,.032.021,36.109,36.109,0,0,0,16.4,3.778c8.539,0,16.545-2.753,21.966-7.556a1.369,1.369,0,0,1,1.924.116,1.424,1.424,0,0,1,.243.4,1.4,1.4,0,0,1,.095.592A1.365,1.365,0,0,1,86.185,55.778Z"/><path d="M77.842,57.926a.525.525,0,0,1-.407-.191,16.911,16.911,0,0,1-4.227-11.971c0-1.518.112-3.522.292-5.228a.529.529,0,0,1,.525-.474H80.31a.529.529,0,0,1,0,1.057H74.5c-.149,1.56-.239,3.3-.239,4.645a15.959,15.959,0,0,0,3.983,11.3.529.529,0,0,1-.406.866Z"/><path d="M45.457,57.136a.518.518,0,0,1-.269-.074A.528.528,0,0,1,45,56.338c1.683-2.821,1.549-8.544,1.547-8.6a9.487,9.487,0,0,1,7.319-9.265A.529.529,0,0,1,54.1,39.5a8.42,8.42,0,0,0-6.491,8.218c.007.233.144,6.072-1.7,9.156A.526.526,0,0,1,45.457,57.136Z"/><path d="M61.939,48.472H57.448a.529.529,0,0,1-.529-.529V45.666a.529.529,0,0,1,1.057,0v1.749H61.41V45.666a.529.529,0,0,1,1.057,0v2.277A.528.528,0,0,1,61.939,48.472Z"/><path d="M63.931,37.858a.529.529,0,0,1-.424-.843l5.33-7.207a2.735,2.735,0,0,1,3.635-.69.542.542,0,0,1,.187.734.514.514,0,0,1-.712.184,1.69,1.69,0,0,0-2.264.4l-5.326,7.2A.53.53,0,0,1,63.931,37.858Z"/><path d="M80.31,41.119a.528.528,0,0,1-.529-.528v-9a.529.529,0,0,1,1.057,0v9A.527.527,0,0,1,80.31,41.119Z"/><path d="M85.34,36.09a5.038,5.038,0,0,1-3.535,4.8,4.97,4.97,0,0,1-1.5.227.529.529,0,0,1,0-1.057,3.9,3.9,0,0,0,1.5-.3,3.968,3.968,0,0,0,0-7.355,3.917,3.917,0,0,0-1.5-.3h-4.7a.525.525,0,0,1-.407-.19.544.544,0,0,1-.116-.439,6.84,6.84,0,0,0-.751-4.248.477.477,0,0,0-.813,0,6.893,6.893,0,0,0-.756,4.243.523.523,0,0,1-.095.412l-5.358,7.213a.538.538,0,0,1-.428.211H65.4a.528.528,0,0,1,0-1.056h1.226L71.7,31.44a7.738,7.738,0,0,1,.92-4.74,1.534,1.534,0,0,1,2.631,0,7.7,7.7,0,0,1,.957,4.359h4.105a4.97,4.97,0,0,1,1.5.228A5.038,5.038,0,0,1,85.34,36.09Z"/><circle cx="75.102" cy="34.991" r="1.223"/><path d="M18.729,61.865H11.21a.526.526,0,0,0-.528.529,4.221,4.221,0,0,0,.613,2.2,4.279,4.279,0,0,0,7.434-.148,4.219,4.219,0,0,0,.529-2.055A.53.53,0,0,0,18.729,61.865Zm-3.762,3.763A3.237,3.237,0,0,1,12.166,64a3.166,3.166,0,0,1-.385-1.078h6.378A3.189,3.189,0,0,1,17.773,64,3.244,3.244,0,0,1,14.967,65.628Z"/></g></svg>