<svg id="레이어_1" data-name="레이어 1" xmlns="http://www.w3.org/2000/svg" viewBox="0 0 38.5 48"><path d="M12.42,48h-.051a.989.989,0,0,1-.847-.575L8.761,41.382l-6.629.526A.986.986,0,0,1,1.2,40.427L6.568,31.3a.986.986,0,0,1,1.7,1L3.863,39.794l5.431-.431a.986.986,0,0,1,.976.573l2.26,4.947L18.4,34.9a.987.987,0,0,1,1.7,1L13.27,47.514A.987.987,0,0,1,12.42,48Z"/><path d="M26.366,48a.987.987,0,0,1-.85-.486L18.553,35.672a.986.986,0,0,1,1.7-1l6,10.21,2.262-4.947a.991.991,0,0,1,.975-.573l5.432.431-4.487-7.63a.986.986,0,0,1,1.7-1l5.445,9.262a.984.984,0,0,1-.929,1.481l-6.629-.526-2.763,6.042a.986.986,0,0,1-.846.575Z"/><path d="M16.683,38.027a3.743,3.743,0,0,1-3.452-2.185A3.875,3.875,0,0,1,8.486,34.6a3.543,3.543,0,0,1-.642-1.828c-.068.008-.136.015-.2.02a.959.959,0,0,1-.153.011,3.8,3.8,0,0,1-3.468-2.21,3.562,3.562,0,0,1-.2-2.551,3.692,3.692,0,0,1-2.723-2.686A3.6,3.6,0,0,1,1.66,22.22,3.656,3.656,0,0,1,0,19.111a3.7,3.7,0,0,1,1.615-3.1,3.518,3.518,0,0,1-.724-2.169,3.871,3.871,0,0,1,1.354-2.931,3.544,3.544,0,0,1,1.461-.737,3.523,3.523,0,0,1-.159-1.046A3.852,3.852,0,0,1,5.466,5.866a3.536,3.536,0,0,1,2.2-.468,3.741,3.741,0,0,1,2.491-3.276,3.6,3.6,0,0,1,2.871.14,3.777,3.777,0,0,1,6.119-1.117A3.572,3.572,0,0,1,21.816,0a3.74,3.74,0,0,1,3.451,2.184A3.532,3.532,0,0,1,26.885,1.8,3.887,3.887,0,0,1,30.02,3.431a3.539,3.539,0,0,1,.638,1.822,3.77,3.77,0,0,1,3.822,2.18,3.567,3.567,0,0,1,.2,2.551,3.69,3.69,0,0,1,2.723,2.686,3.6,3.6,0,0,1-.567,3.135,3.66,3.66,0,0,1,1.66,3.11,3.7,3.7,0,0,1-1.615,3.1,3.516,3.516,0,0,1,.724,2.168,3.869,3.869,0,0,1-1.355,2.931,3.536,3.536,0,0,1-1.46.738,3.494,3.494,0,0,1,.159,1.045,3.781,3.781,0,0,1-1.272,2.8,3.681,3.681,0,0,1-2.81.941l-.038,0a3.738,3.738,0,0,1-2.492,3.278,3.6,3.6,0,0,1-2.869-.144,3.777,3.777,0,0,1-6.116,1.124A3.6,3.6,0,0,1,16.683,38.027Zm-2.9-4.836A1.116,1.116,0,0,1,14.9,34.308a1.717,1.717,0,0,0,1.784,1.749,1.632,1.632,0,0,0,1.33-.636c.014-.022.028-.043.043-.064a1.859,1.859,0,0,0,.244-.477,1.13,1.13,0,0,1,1.05-.741,1.106,1.106,0,0,1,.96.552,1.151,1.151,0,0,1,.086.181h0a1.67,1.67,0,0,0,1.944,1.121,1.69,1.69,0,0,0,1.448-1.718,1.118,1.118,0,0,1,1.914-.818,1.7,1.7,0,0,0,1.963.6,1.76,1.76,0,0,0,1.2-1.6,1.888,1.888,0,0,0-.131-.666,1.114,1.114,0,0,1,1.624-1.344,1.777,1.777,0,0,0,.707.232,1.684,1.684,0,0,0,1.295-.443,1.838,1.838,0,0,0,.621-1.333,1.719,1.719,0,0,0-.447-1.129,1.08,1.08,0,0,1-.178-1.159,1.149,1.149,0,0,1,1.216-.657,1.674,1.674,0,0,0,1.412-.346,1.9,1.9,0,0,0,.652-1.423A1.65,1.65,0,0,0,34.73,22.7a1.082,1.082,0,0,1-.565-.968,1.107,1.107,0,0,1,.917-1.1,1.75,1.75,0,0,0-.023-3.45,1.112,1.112,0,0,1-.32-2.089,1.645,1.645,0,0,0,.762-1.918A1.72,1.72,0,0,0,33.473,11.9a1.083,1.083,0,0,1-.9-.232,1.114,1.114,0,0,1-.408-.864,1.263,1.263,0,0,1,.226-.671,1.669,1.669,0,0,0,.3-1.867,1.74,1.74,0,0,0-2.5-.8,1.115,1.115,0,0,1-1.684-.958,1.319,1.319,0,0,1,.057-.358A1.648,1.648,0,0,0,28.4,4.562a1.909,1.909,0,0,0-1.519-.8,1.668,1.668,0,0,0-1.307.658A1.118,1.118,0,0,1,23.6,3.718a1.716,1.716,0,0,0-1.784-1.747A1.65,1.65,0,0,0,20.2,3.142a1.088,1.088,0,0,1-1.052.746A1.1,1.1,0,0,1,18.084,3.1a1.652,1.652,0,0,0-1.926-1.065,1.69,1.69,0,0,0-1.449,1.718,1.113,1.113,0,0,1-1.983.733,1.644,1.644,0,0,0-1.893-.512,1.762,1.762,0,0,0-1.2,1.605,1.9,1.9,0,0,0,.132.669,1.1,1.1,0,0,1-.117,1.011,1.115,1.115,0,0,1-.926.494,1.3,1.3,0,0,1-.505-.121,1.69,1.69,0,0,0-1.764-.059,1.848,1.848,0,0,0-.935,1.56,1.71,1.71,0,0,0,.447,1.123,1.116,1.116,0,0,1,.167,1.189,1.149,1.149,0,0,1-1.206.634,1.674,1.674,0,0,0-1.411.345,1.9,1.9,0,0,0-.652,1.423,1.653,1.653,0,0,0,.906,1.479,1.08,1.08,0,0,1,.565.967,1.108,1.108,0,0,1-.928,1.1,1.746,1.746,0,0,0,.031,3.441,1.116,1.116,0,0,1,.4,2.051A1.678,1.678,0,0,0,3,24.843a1.725,1.725,0,0,0,2.033,1.284,1.084,1.084,0,0,1,.894.232,1.112,1.112,0,0,1,.409.865,1.253,1.253,0,0,1-.239.687,1.654,1.654,0,0,0-.29,1.849,1.827,1.827,0,0,0,1.575,1.072c.026,0,.053,0,.079-.006a1.807,1.807,0,0,0,.854-.265,1.1,1.1,0,0,1,1.1-.019,1.116,1.116,0,0,1,.576.976,1.319,1.319,0,0,1-.057.358,1.656,1.656,0,0,0,.166,1.59,1.905,1.905,0,0,0,1.514.793,1.669,1.669,0,0,0,1.308-.657A1.113,1.113,0,0,1,13.787,33.191Zm.664,1.655-.012.016Zm-1.525-.535v0ZM9.337,32.244c-.015.01-.031.019-.047.028A.364.364,0,0,0,9.337,32.244Zm20.01-.113.049.028ZM5.4,28.064l-.055.008ZM34,26.451l.063.075A.736.736,0,0,0,34,26.451Zm1.253-4.842h0Zm.4-.646.089.052A.794.794,0,0,0,35.656,20.963Zm-32.9-3.952a.816.816,0,0,0,.09.053C2.814,17.047,2.784,17.03,2.754,17.011Zm33-.225-.081.048A.556.556,0,0,0,35.756,16.786ZM3.071,15.449l-.023,0ZM33.15,9.956l-.043.007ZM7.911,6.916l.018.048Zm21.3-1.158-.04.023Zm-3.637-2.05v0Zm-11.348-.5.024.028A.322.322,0,0,0,14.225,3.205Zm4.133-.763c-.012.03-.023.06-.033.091Zm1.564-.051.033.088A.663.663,0,0,0,19.922,2.391Z"/><path d="M19.253,31.936q-.48,0-.958-.038a12.968,12.968,0,1,1,1.9,0C19.892,31.923,19.572,31.936,19.253,31.936Zm0-23.874a10.95,10.95,0,0,0-.808,21.871,9.86,9.86,0,0,0,1.6,0,10.95,10.95,0,0,0-.795-21.871Z"/></svg>