<svg xmlns="http://www.w3.org/2000/svg" viewBox="0 0 86.74 63.459"><defs><style>.cls-1{fill:#11a668;}.cls-2{isolation:isolate;}.cls-3{fill:#fff;}</style></defs><g id="레이어_2" data-name="레이어 2"><path class="cls-1" d="M80.49,29.729,75.37,43.79l-.99-.361L60.79,38.49l4.94-13.571.36-.989,14.08,5.13a.523.523,0,0,1,.32.669Z"/><path class="cls-1" d="M67.75,58.28,53.64,63.419a.38.38,0,0,1-.18.04.538.538,0,0,1-.5-.349L47.84,49.03l.99-.361,13.62-4.95L67.39,57.3Z"/><path class="cls-1" d="M86.74,47.28v15a.533.533,0,0,1-.53.529h-15V47.28Z"/><path d="M86.21,44.969H69.42a.526.526,0,0,0-.53.521V62.28a.533.533,0,0,0,.53.529H86.21a.533.533,0,0,0,.53-.529V45.49A.526.526,0,0,0,86.21,44.969Zm-.53,16.78H69.95V46.019H85.68Z"/><path d="M69.73,57.009,68.89,54.7,64.38,42.29l-.39-1.06a.536.536,0,0,0-.34-.32.557.557,0,0,0-.34.009l-1.35.491L47.54,46.66a.519.519,0,0,0-.32.67l.62,1.7,5.12,14.08a.538.538,0,0,0,.5.349.38.38,0,0,0,.18-.04L67.75,58.28l1.14-.41.52-.191A.519.519,0,0,0,69.73,57.009Zm-2.34.29-13.62,4.95-4.94-13.58-.44-1.2,14.79-5.38L68.56,56.87Z"/><path d="M80.47,29.33a.5.5,0,0,0-.3-.27L66.09,23.93l-1.69-.62a.53.53,0,0,0-.68.319L57.98,39.4a.527.527,0,0,0,.32.68l3.66,1.33,2.42.88,7.35,2.679,2.34.851a.594.594,0,0,0,.18.029.525.525,0,0,0,.5-.35l.19-.53.43-1.179,5.12-14.061A.5.5,0,0,0,80.47,29.33Zm-6.09,14.1-.44,1.221L63.65,40.91l-4.5-1.641,5.38-14.79,1.2.44,13.59,4.94Z"/><g class="cls-2"><path d="M73.61,35.109l-.81-.29,1.11-3.04a.663.663,0,0,0,.04-.239.722.722,0,0,0-1.4-.25L69.52,39.6a.672.672,0,0,0-.04.24.72.72,0,0,0,1.4.25l1.51-4.15.81.29a.6.6,0,0,0,.77-.35A.6.6,0,0,0,73.61,35.109ZM70.64,30.95l-3.49-1.27a.694.694,0,0,0-.2-.031.585.585,0,0,0-.56.38.6.6,0,0,0,.36.761l2.67.969a6.187,6.187,0,0,1-4.79,3.37.682.682,0,0,0-.56.661.649.649,0,0,0,.03.2.674.674,0,0,0,.75.489,7.577,7.577,0,0,0,6.13-4.739A.6.6,0,0,0,70.64,30.95Z"/></g><g class="cls-2"><path d="M82.14,53.15h-.93V50.04a.72.72,0,0,0-1.44,0v8.889a.72.72,0,1,0,1.44,0v-4.6h.93a.592.592,0,0,0,.59-.59A.585.585,0,0,0,82.14,53.15Zm-3.04,3.1a.6.6,0,0,0-.68-.519,25.68,25.68,0,0,1-3.49.229V51.44h2.81a.58.58,0,1,0,0-1.16H74.07a.58.58,0,0,0-.58.58v5.71a.581.581,0,0,0,.58.58h.29a29.492,29.492,0,0,0,4.23-.221.609.609,0,0,0,.52-.59C79.11,56.309,79.1,56.28,79.1,56.249Z"/></g><g class="cls-2"><path d="M63.28,55.509l-1.53-4.2.81-.3a.59.59,0,1,0-.4-1.109l-.82.29L60.25,47.2a.706.706,0,0,0-.67-.481.767.767,0,0,0-.25.05.709.709,0,0,0-.43.921L61.92,56a.731.731,0,0,0,.69.481.7.7,0,0,0,.24-.04A.736.736,0,0,0,63.28,55.509Zm-2.9-1.92a.6.6,0,0,0-.84-.25,25.013,25.013,0,0,1-3.26,1.54L54.61,50.3a.708.708,0,0,0-.67-.469.67.67,0,0,0-.25.04.711.711,0,0,0-.43.92l1.87,5.16a.582.582,0,0,0,.75.34l.29-.1a26.384,26.384,0,0,0,3.98-1.8.6.6,0,0,0,.3-.519A.556.556,0,0,0,60.38,53.589Z"/></g><path d="M50.72,2.719H.53a.534.534,0,0,0-.53.53V37.61a.533.533,0,0,0,.53.529H50.72a.524.524,0,0,0,.52-.529V21.81l-1.05-1.051v1.49l.29.291-.29.109v14.44H1.05V3.779H50.19V18.3l1.05-1.05v-14A.525.525,0,0,0,50.72,2.719Z"/><path d="M5.005,6.485a.525.525,0,0,1-.526-.526V.527a.527.527,0,1,1,1.053,0V5.959A.526.526,0,0,1,5.005,6.485Z"/><path d="M7.587,6.485a.526.526,0,0,1-.527-.526V.527a.527.527,0,1,1,1.053,0V5.959A.525.525,0,0,1,7.587,6.485Z"/><path d="M43.655,6.485a.525.525,0,0,1-.526-.526V.527a.527.527,0,1,1,1.053,0V5.959A.526.526,0,0,1,43.655,6.485Z"/><path d="M46.238,6.485a.526.526,0,0,1-.527-.526V.527a.527.527,0,1,1,1.053,0V5.959A.525.525,0,0,1,46.238,6.485Z"/><path d="M14.668,6.485a.526.526,0,0,1-.527-.526V.527a.527.527,0,1,1,1.053,0V5.959A.525.525,0,0,1,14.668,6.485Z"/><path d="M17.25,6.485a.526.526,0,0,1-.527-.526V.527a.527.527,0,1,1,1.054,0V5.959A.526.526,0,0,1,17.25,6.485Z"/><path d="M24.33,6.485a.525.525,0,0,1-.526-.526V.527a.527.527,0,1,1,1.053,0V5.959A.526.526,0,0,1,24.33,6.485Z"/><path d="M26.912,6.485a.525.525,0,0,1-.526-.526V.527a.527.527,0,1,1,1.053,0V5.959A.526.526,0,0,1,26.912,6.485Z"/><path d="M33.993,6.485a.526.526,0,0,1-.527-.526V.527a.527.527,0,0,1,1.054,0V5.959A.526.526,0,0,1,33.993,6.485Z"/><path d="M36.575,6.485a.526.526,0,0,1-.527-.526V.527a.527.527,0,0,1,1.054,0V5.959A.526.526,0,0,1,36.575,6.485Z"/><path class="cls-1" d="M9.668,16.165a1.213,1.213,0,0,0-.661.2l-1.673,1.08a.632.632,0,0,0,.684,1.064l1.161-.736h.052v6.7a.825.825,0,1,0,1.65,0V17.384a1.224,1.224,0,0,0-.357-.862A1.21,1.21,0,0,0,9.668,16.165Z"/><path class="cls-1" d="M18.882,20.35h-1.7V18.66a.7.7,0,1,0-1.391,0v1.69H14.111a.693.693,0,1,0,0,1.385H15.8v1.7a.7.7,0,1,0,1.391,0v-1.7h1.7a.693.693,0,1,0,0-1.385Z"/><path class="cls-1" d="M26.74,23.919H23.377v-.068l1.615-1.6c1.8-1.7,2.294-2.529,2.3-3.564,0-1.529-1.264-2.638-3.121-2.638a2.934,2.934,0,0,0-2.943,1.81.73.73,0,0,0-.046.265.769.769,0,0,0,1.506.224,1.422,1.422,0,0,1,1.46-.966,1.425,1.425,0,0,1,1.575,1.391c-.006.759-.489,1.305-1.408,2.225l-2.966,2.862a.815.815,0,0,0-.253.6.834.834,0,0,0,.833.833H26.74a.687.687,0,1,0,0-1.374Z"/><path class="cls-1" d="M34.4,18.936H30.15a.684.684,0,0,0,0,1.368H34.4a.684.684,0,0,0,0-1.368Z"/><path class="cls-1" d="M34.4,21.787H30.15a.684.684,0,0,0,0,1.368H34.4a.684.684,0,0,0,0-1.368Z"/><path class="cls-1" d="M41.587,20.614V20.54a1.95,1.95,0,0,0,1.667-1.972c.011-1.4-1.19-2.523-3.035-2.523a3.261,3.261,0,0,0-2.886,1.414.767.767,0,1,0,1.351.724,1.639,1.639,0,0,1,1.529-.8,1.3,1.3,0,0,1,1.46,1.282c0,.8-.678,1.339-1.65,1.339h-.115a.4.4,0,0,0-.126,0,.634.634,0,0,0,.063,1.265h.178c1.19,0,1.9.586,1.9,1.414.006.8-.724,1.356-1.73,1.356a1.742,1.742,0,0,1-1.6-.77.82.82,0,0,0-.718-.448.8.8,0,0,0-.69,1.218,3.436,3.436,0,0,0,3.012,1.38c1.971,0,3.414-1.115,3.4-2.656A2.085,2.085,0,0,0,41.587,20.614Z"/><path class="cls-3" d="M50.19,21.5l-1.98-1.97-.2.54-1.77,4.65,1.23-.47.56-.209,2.16-.831.7-.259.35-.14.19-.07Zm0,1.15-2.55.971c-.1-.1-.2-.21-.3-.31l1.08-2.831,2.06,2.061Z"/><path d="M51.8,22.37l-1.61-1.611v-.01l-1.23-1.22-.37-.38a.548.548,0,0,0-.49-.14.567.567,0,0,0-.23.12c-.02.011-.03.031-.05.051a.564.564,0,0,0-.09.15l-.01.009-1.97,5.19a.5.5,0,0,0,.12.56.523.523,0,0,0,.37.16.38.38,0,0,0,.18-.04l3.77-1.43,1.05-.4.38-.139.01-.011a.537.537,0,0,0,.16-.1l.01-.009.03-.031a.518.518,0,0,0-.03-.719Zm-1.61.279-2.55.971v.009l-.49.181.19-.5,1.08-2.831,2.06,2.061Z"/><path class="cls-3" d="M48.96,19.529l1.23,1.23v-.01Zm0,0,1.23,1.23v-.01ZM64.26,7.29l-.59-.59a1.851,1.851,0,0,0-2.63,0l-.65.65-.74.739L51.24,16.5l-1.05,1.05-1.6,1.6-.38.38,1.98,1.97,1.24,1.241L62.86,11.31l.75-.741.65-.659A1.841,1.841,0,0,0,64.26,7.29ZM51.43,22l-1.24-1.24v-.01l-1.23-1.22,1.23-1.23,1.05-1.05,8.78-8.78,2.47,2.47ZM63.59,9.839l-.35.361L60.77,7.729l.35-.359a1.786,1.786,0,0,1,2.47,0,1.749,1.749,0,0,1,0,2.469Zm-14.63,9.69,1.23,1.23v-.01Zm0,0,1.23,1.23v-.01Z"/><path d="M64.34,6.62a2.81,2.81,0,0,0-3.97,0l-.72.73-8.41,8.4L50.19,16.8l-2.32,2.33-.03.02c-.01.011-.02.02-.02.031a.564.564,0,0,0-.09.15.527.527,0,0,0,.11.569l.17.17.41.41,2.06,2.061.41.41.17.17a.5.5,0,0,0,.18.109.433.433,0,0,0,.19.04.448.448,0,0,0,.2-.04.537.537,0,0,0,.16-.1l.01-.009.03-.031L63.61,11.31l.73-.73a2.8,2.8,0,0,0,0-3.96Zm-.75,3.219-.35.361-.75.739L51.43,22l-2.47-2.47,1.23-1.23,1.05-1.05,8.78-8.78.75-.74.35-.359a1.786,1.786,0,0,1,2.47,0,1.749,1.749,0,0,1,0,2.469Z"/><path d="M63.61,11.31a.54.54,0,0,1-.37.159.564.564,0,0,1-.38-.159L60.02,8.469l-.37-.38a.523.523,0,1,1,.74-.739l3.22,3.219A.515.515,0,0,1,63.61,11.31Z"/><path d="M48.09,24.1l-.62.149-.95.23.43-1.58c.02.02.19.2.39.411.1.1.2.209.3.31v.009c.17.181.32.33.39.411Z"/><path class="cls-3" d="M39.67,44.45l-.64.13-3.01.58-.56.109,2.62,3.721.3-.5,2.54-4.281Zm-1.63,3.569-1.68-2.39,2.99-.58c.08.12.17.25.24.361Z"/><path d="M41.35,43.9a.533.533,0,0,0-.54-.21l-5.45,1.059h-.01c-.03.01-.05.02-.08.031a.3.3,0,0,0-.11.059l-.06.04a.633.633,0,0,0-.13.191.523.523,0,0,0,.06.5l.3.429,2.02,2.861.3.43a.528.528,0,0,0,.43.219h.02a.519.519,0,0,0,.25-.069l.03-.021a.441.441,0,0,0,.19-.24l2.8-4.7A.573.573,0,0,0,41.35,43.9Zm-4.99,1.729,2.99-.58.51-.1-.27.46-1.55,2.609Z"/><path class="cls-3" d="M35.46,45.269l-.43.3L22.24,54.58l-.86.61-.75.529a1.859,1.859,0,0,0-.45,2.59l.48.681a1.861,1.861,0,0,0,2.59.45l.75-.53.86-.611L37.65,49.29l.43-.3Zm-12.17,13.5a1.747,1.747,0,1,1-2.01-2.859l.41-.29,2.01,2.86Zm1.27-.9-2.01-2.851L35.33,46l2.02,2.861Z"/><path d="M38.51,48.679l-.13-.189-.34-.471-1.68-2.39-.34-.469-.13-.191a.522.522,0,0,0-.53-.22h-.01c-.03.01-.05.02-.08.031a.3.3,0,0,0-.11.059l-.06.04-13.59,9.58-.84.59A2.8,2.8,0,0,0,21.8,60.1a2.842,2.842,0,0,0,2.1-.47l.83-.589h.01l.01-.01,13.6-9.59.03-.021a.441.441,0,0,0,.19-.24.164.164,0,0,0,.03-.1A.571.571,0,0,0,38.51,48.679ZM24.56,57.87l-.86.61-.41.289a1.747,1.747,0,1,1-2.01-2.859l.41-.29.86-.6L35.33,46l2.02,2.861Z"/><path d="M24.75,59.03l-.01.01h-.01a.538.538,0,0,1-.73-.13l-.3-.43-2.01-2.86-.31-.43a.518.518,0,0,1,.13-.731.524.524,0,0,1,.73.121l.31.439,2.01,2.851.3.429A.534.534,0,0,1,24.75,59.03Z"/><path d="M40.6,44.389l-.69,1.49c-.02-.03-.16-.229-.32-.469-.07-.111-.16-.241-.24-.361-.13-.2-.25-.38-.32-.469-.03-.05-.05-.081-.05-.081l.69-.049Z"/></g></svg>