<svg id="레이어_1" data-name="레이어 1" xmlns="http://www.w3.org/2000/svg" viewBox="0 0 48 44.5"><path d="M15.745,30.919h-.1a5.182,5.182,0,0,0-5.193,5.161v7.591a.959.959,0,0,0,.471.829h9.533a.959.959,0,0,0,.471-.829V36.08A5.175,5.175,0,0,0,15.745,30.919ZM12.414,42.7V36.08a3.222,3.222,0,0,1,3.233-3.21h.1a3.22,3.22,0,0,1,3.224,3.21V42.7Z"/><path d="M27.643,44.4a.978.978,0,0,1-.98-.976V22.511L15.694,14.005,4.725,22.511V43.419a.98.98,0,0,1-1.959,0V22.034a.975.975,0,0,1,.377-.77L15.092,12a.982.982,0,0,1,1.2,0l11.949,9.265a.976.976,0,0,1,.378.77V43.419A.977.977,0,0,1,27.643,44.4Z"/><path d="M48,43.6a.9.9,0,0,1-.9.9H.9a.9.9,0,0,1,0-1.8H47.1A.912.912,0,0,1,48,43.6Z"/><path d="M41.474,27.365a.976.976,0,0,1-.979-.975V9.627L31.224,2.218,21.964,9.36v7.511a.98.98,0,0,1-1.959,0V8.882a.977.977,0,0,1,.38-.772L30.634.2a.985.985,0,0,1,1.214.011L42.088,8.4a.977.977,0,0,1,.366.761V26.39A.977.977,0,0,1,41.474,27.365Z"/><path d="M41.477,44.4a.978.978,0,0,1-.98-.976V32.239a.98.98,0,0,1,1.96,0v11.18A.977.977,0,0,1,41.477,44.4Z"/><path d="M41.047,42.014c-3.834,0-6.954-2.719-6.954-6.062a5.544,5.544,0,0,1,1.412-3.659,4.591,4.591,0,0,1-.342-1.727c0-2.841,2.639-5.152,5.884-5.152s5.883,2.311,5.883,5.152a4.59,4.59,0,0,1-.341,1.727A5.548,5.548,0,0,1,48,35.952C48,39.3,44.881,42.014,41.047,42.014Zm0-14.649c-2.164,0-3.924,1.436-3.924,3.2a2.7,2.7,0,0,0,.406,1.408.972.972,0,0,1-.178,1.224,3.731,3.731,0,0,0-1.3,2.754c0,2.266,2.24,4.111,4.994,4.111s4.993-1.845,4.993-4.111a3.731,3.731,0,0,0-1.3-2.754.973.973,0,0,1-.178-1.224,2.687,2.687,0,0,0,.407-1.408C44.971,28.8,43.21,27.365,41.047,27.365Z"/><path d="M41.476,38.552a.981.981,0,0,1-.612-.215l-2.576-2.059a.973.973,0,0,1-.151-1.372.986.986,0,0,1,1.378-.15l2.576,2.059a.976.976,0,0,1-.615,1.737Z"/><path d="M11.628,26.517h1.01a.938.938,0,0,0,.941-.936V23.247a.938.938,0,0,0-.941-.936h-1.01a.938.938,0,0,0-.941.936v2.334A.938.938,0,0,0,11.628,26.517Z"/><path d="M18.749,26.517H19.76a.938.938,0,0,0,.941-.936V23.247a.938.938,0,0,0-.941-.936H18.749a.937.937,0,0,0-.94.936v2.334A.937.937,0,0,0,18.749,26.517Z"/><path d="M27.279,14.473h1.01a.938.938,0,0,0,.941-.936V11.2a.938.938,0,0,0-.941-.936h-1.01a.938.938,0,0,0-.941.936v2.334A.938.938,0,0,0,27.279,14.473Z"/><path d="M34.4,14.473h1.011a.938.938,0,0,0,.941-.936V11.2a.938.938,0,0,0-.941-.936H34.4a.938.938,0,0,0-.941.936v2.334A.938.938,0,0,0,34.4,14.473Z"/><path d="M34.4,22.311h1.011a.938.938,0,0,0,.941-.937V19.041a.938.938,0,0,0-.941-.937H34.4a.938.938,0,0,0-.941.937v2.333A.938.938,0,0,0,34.4,22.311Z"/></svg>