<svg id="레이어_1" data-name="레이어 1" xmlns="http://www.w3.org/2000/svg" viewBox="0 0 48 48"><path d="M24,48A24,24,0,1,1,48,24,24.027,24.027,0,0,1,24,48ZM24,1.92A22.08,22.08,0,1,0,46.08,24,22.1,22.1,0,0,0,24,1.92Z"/><path d="M28.035,39.5h-8.07a.96.96,0,0,1-.96-.96V28.994H9.456a.96.96,0,0,1-.96-.96V19.963a.96.96,0,0,1,.96-.96h9.549V9.457a.96.96,0,0,1,.96-.96h8.07a.959.959,0,0,1,.96.96V19h9.548a.96.96,0,0,1,.96.96v8.071a.959.959,0,0,1-.96.96H29v9.549A.96.96,0,0,1,28.035,39.5Zm-7.11-1.92h6.15V28.034a.96.96,0,0,1,.96-.96h9.548V20.923H28.035a.959.959,0,0,1-.96-.96V10.417h-6.15v9.546a.96.96,0,0,1-.96.96H10.416v6.151h9.549a.96.96,0,0,1,.96.96Z"/><path d="M24,48A24,24,0,1,1,48,24,24.027,24.027,0,0,1,24,48ZM24,1.92A22.08,22.08,0,1,0,46.08,24,22.1,22.1,0,0,0,24,1.92Z"/></svg>