<svg xmlns="http://www.w3.org/2000/svg" viewBox="0 0 64 58.19"><defs><style>.cls-1{fill:#11a668;}</style></defs><g id="레이어_2" data-name="레이어 2"><path class="cls-1" d="M40.24,36.16a8.291,8.291,0,0,1-3.45,6.71l-.01.01a8.224,8.224,0,0,1-3.39,1.4c-.14.031-.29.05-.44.071h-.01c-.31.029-.62.049-.94.049h-.07a8.188,8.188,0,0,1-.85-.049,8.429,8.429,0,0,1-2.94-.911.01.01,0,0,1-.01-.01,6.08,6.08,0,0,1-.88-.55,8.006,8.006,0,0,1-1.41-1.26c-.06-.059-.12-.13-.17-.19-.01-.03-.02-.05-.03-.079a8.674,8.674,0,0,1-.71-3.46A8.762,8.762,0,0,1,33.7,29.12a8.672,8.672,0,0,1,3.63.79l.06.03A8.193,8.193,0,0,1,40.24,36.16Z"/><path class="cls-1" d="M40.51,32.4a.594.594,0,0,1-.04-.08A9.3,9.3,0,0,0,22.7,36.16a9.216,9.216,0,0,0,1.78,5.46h1.36c-.06-.059-.12-.13-.17-.19-.06-.079-.12-.15-.18-.23A8.232,8.232,0,0,1,37.18,29.76l.21.18a8.223,8.223,0,0,1,.78,11.68h1.35a9.216,9.216,0,0,0,1.78-5.46A9.446,9.446,0,0,0,40.51,32.4Z"/><path class="cls-1" d="M62.97,3.46V41.62H41.94a.6.6,0,0,1,.54-.17,1.481,1.481,0,0,0,.98-2.75.618.618,0,0,1,.2-1.15,1.444,1.444,0,0,0,1.22-1.47,1.422,1.422,0,0,0-1.24-1.45.628.628,0,0,1-.51-.5.611.611,0,0,1,.3-.65,1.484,1.484,0,0,0-1.02-2.74.622.622,0,0,1-.59-1.01,1.479,1.479,0,0,0-1.89-2.22.624.624,0,0,1-.9-.75,1.428,1.428,0,0,0-.66-1.79,1.407,1.407,0,0,0-1.87.35.639.639,0,0,1-.7.19.63.63,0,0,1-.41-.59,1.482,1.482,0,0,0-2.88-.49.613.613,0,0,1-.58.42.626.626,0,0,1-.59-.41,1.48,1.48,0,0,0-2.87.52.63.63,0,0,1-.4.6.639.639,0,0,1-.7-.19,1.478,1.478,0,0,0-2.51,1.48.624.624,0,0,1-.18.69.635.635,0,0,1-.72.07,1.478,1.478,0,0,0-1.86,2.24.635.635,0,0,1,.07.72.626.626,0,0,1-.65.3,1.481,1.481,0,0,0-.98,2.75.633.633,0,0,1,.31.65.639.639,0,0,1-.51.51,1.476,1.476,0,0,0,.02,2.91.64.64,0,0,1,.52.5.65.65,0,0,1-.31.661,1.426,1.426,0,0,0-.64,1.79,1.479,1.479,0,0,0,1.14.96.454.454,0,0,1,.11.009,1.47,1.47,0,0,0,.41-.03.607.607,0,0,1,.35.04H3.46V3.46Z"/><path d="M6.784,13.624a.529.529,0,0,1-.529-.529V6.8a.529.529,0,0,1,.529-.529h6.3a.529.529,0,0,1,0,1.058H7.313V13.1A.529.529,0,0,1,6.784,13.624Z"/><path d="M57.21,13.624a.529.529,0,0,1-.529-.529V7.324h-5.77a.529.529,0,1,1,0-1.058h6.3a.529.529,0,0,1,.529.529v6.3A.529.529,0,0,1,57.21,13.624Z"/><path d="M13.084,36.407h-6.3a.529.529,0,0,1-.529-.529v-6.3a.529.529,0,0,1,1.058,0v5.77h5.771a.529.529,0,0,1,0,1.058Z"/><path d="M57.21,36.407h-6.3a.529.529,0,1,1,0-1.058h5.77v-5.77a.529.529,0,1,1,1.058,0v6.3A.529.529,0,0,1,57.21,36.407Z"/><path class="cls-1" d="M43.15,53.33l-.75,1.32-.02-.009-2.16-.8-1.33-.52-2.48,2.87-.29-1.12L34.79,49.8l-.13-.52-.13-.509a1.406,1.406,0,0,0,1-1.411.639.639,0,0,1,.41-.6.628.628,0,0,1,.69.19,1.483,1.483,0,0,0,2.52-1.48.608.608,0,0,1,.18-.69.576.576,0,0,1,.53-.13.636.636,0,0,1,.18.06,1.556,1.556,0,0,0,.76.22,1.635,1.635,0,0,0,.22-.02l.13.52.13.51Z"/><path class="cls-1" d="M32.5,47.65l-.19.73v.011l-.17.67-.12.489-.02.06v.01l-1.73,6.86-1.11.07-1.98-2.3-1.06.4-.38-.44-2.56.97.32-1.25,1.1-4.38.35-1.38.14-.55.15-.58a1.617,1.617,0,0,0,.39.311,1.428,1.428,0,0,0,1.88-.341.616.616,0,0,1,.48-.23.727.727,0,0,1,.21.031.625.625,0,0,1,.41.589,1.439,1.439,0,0,0,1.24,1.46,1.469,1.469,0,0,0,1.38-.49,1.822,1.822,0,0,0,.26-.479.318.318,0,0,1,.05-.1.6.6,0,0,1,.53-.32h.01A.56.56,0,0,1,32.5,47.65Z"/><path d="M43.15,53.33l-1.87-7.39-.13-.51-.13-.52a1.635,1.635,0,0,1-.22.02,1.556,1.556,0,0,1-.76-.22.636.636,0,0,0-.18-.06l.16.64.27,1.05,1.65,6.53.44,1.771L38.89,53.32l-.6-.23a.529.529,0,0,0-.59.15l-1.58,1.83-1.27,1.48-1.72-6.8-.17-.67-.3-1.2a.437.437,0,0,0-.16-.23.56.56,0,0,0-.42-.18h-.01a.6.6,0,0,0-.53.32.318.318,0,0,0-.05.1,1.822,1.822,0,0,1-.26.479l-.21.83-.09.35-.07.28L29.42,55.5l-.26,1.05-1.98-2.3-.88-1.01a.528.528,0,0,0-.4-.19.584.584,0,0,0-.18.04l-2.22.84-1.88.711,1.29-5.091.89-3.51.1-.4.05-.181.16-.67c-.01.01-.03.01-.04.021A1.444,1.444,0,0,1,22.96,45l-.13.51-.03.131-.1.38-.89,3.529-1.46,5.81a.533.533,0,0,0,.16.52.512.512,0,0,0,.54.1l2.13-.8,2.56-.97.38.44,2.9,3.36a.518.518,0,0,0,.4.18.615.615,0,0,0,.13-.01.519.519,0,0,0,.39-.38l.33-1.32L32,49.62l2.08,8.18a.491.491,0,0,0,.39.38.448.448,0,0,0,.12.01.518.518,0,0,0,.4-.18l3.27-3.8,4.7,1.77a.508.508,0,0,0,.54-.1.533.533,0,0,0,.16-.52Z"/><path d="M25.06,42.33a9.026,9.026,0,0,0,1.1,1.05,7.755,7.755,0,0,0,.64.471,8.878,8.878,0,0,0,1.19.689.228.228,0,0,0,.07.04,9.281,9.281,0,0,0,2.88.82,8.472,8.472,0,0,0,1.02.06h.09a6.943,6.943,0,0,0,1.02-.069,3.8,3.8,0,0,0,.58-.08,9.223,9.223,0,0,0,3.58-1.46,8.9,8.9,0,0,0,1.71-1.521l.01-.01a6.143,6.143,0,0,0,.57-.7,9.216,9.216,0,0,0,1.78-5.46,9.446,9.446,0,0,0-.79-3.76.594.594,0,0,1-.04-.08A9.3,9.3,0,0,0,22.7,36.16a9.216,9.216,0,0,0,1.78,5.46A8.134,8.134,0,0,0,25.06,42.33ZM32,27.92a8.2,8.2,0,0,1,5.18,1.84l.21.18a8.253,8.253,0,0,1-.6,12.93l-.01.01a8.224,8.224,0,0,1-3.39,1.4c-.14.031-.29.05-.44.071h-.01c-.31.029-.62.049-.94.049h-.07a8.188,8.188,0,0,1-.85-.049,8.429,8.429,0,0,1-2.94-.911.01.01,0,0,1-.01-.01,6.08,6.08,0,0,1-.88-.55,8.006,8.006,0,0,1-1.41-1.26c-.06-.059-.12-.13-.17-.19-.06-.079-.12-.15-.18-.23A8.231,8.231,0,0,1,32,27.92Z"/><path d="M45.94,36.07a2.516,2.516,0,0,0-1.31-2.22,2.5,2.5,0,0,0,.44-2.54,2.531,2.531,0,0,0-1.99-1.64,2.567,2.567,0,0,0-2.89-3.39,2.5,2.5,0,0,0-1.3-2.23,2.473,2.473,0,0,0-2.57.02,2.565,2.565,0,0,0-4.4-.74,2.556,2.556,0,0,0-4.38.8,2.569,2.569,0,0,0-3.85,2.25,2.5,2.5,0,0,0-2.42.89,2.472,2.472,0,0,0-.42,2.54,2.569,2.569,0,0,0-1.5,4.2,2.568,2.568,0,0,0,.03,4.46,2.479,2.479,0,0,0-.44,2.54,2.805,2.805,0,0,0,.31.591c0,.009.01.009.01.019a2.445,2.445,0,0,0,1.67,1.03v.01a2.46,2.46,0,0,0,.45,2.52,2.631,2.631,0,0,0,1.32.841,2.281,2.281,0,0,0,1.1.019h.01a2.46,2.46,0,0,0,1.14,2.13,1.569,1.569,0,0,0,.16.1,2.493,2.493,0,0,0,2.58-.021,2.5,2.5,0,0,0,1.98,1.65,3.128,3.128,0,0,0,.44.04,2.434,2.434,0,0,0,.75-.11,2.358,2.358,0,0,0,1.04-.63,1.865,1.865,0,0,0,.18-.21.446.446,0,0,0,.06.071,2.376,2.376,0,0,0,.99.689,2.55,2.55,0,0,0,1.66.05,2.5,2.5,0,0,0,1.68-1.61,2.47,2.47,0,0,0,2.57-.01,2.5,2.5,0,0,0,1.25-1.84,1.76,1.76,0,0,0,.02-.4,2.436,2.436,0,0,0,.97,0,2.548,2.548,0,0,0,1.45-.89,2.5,2.5,0,0,0,.48-2.39.91.91,0,0,0-.05-.15,2.411,2.411,0,0,0,1.53-.89.035.035,0,0,0,.01-.019,2.629,2.629,0,0,0,.43-.761,2.512,2.512,0,0,0-.47-2.529A2.53,2.53,0,0,0,45.94,36.07Zm-3.46,5.38a.6.6,0,0,0-.54.17.755.755,0,0,0-.11.14.621.621,0,0,0,.07.71,1.429,1.429,0,0,1,.02,1.91,1.544,1.544,0,0,1-.9.53,1.635,1.635,0,0,1-.22.02,1.556,1.556,0,0,1-.76-.22.636.636,0,0,0-.18-.06.576.576,0,0,0-.53.13.608.608,0,0,0-.18.69,1.483,1.483,0,0,1-2.52,1.48.628.628,0,0,0-.69-.19.639.639,0,0,0-.41.6,1.406,1.406,0,0,1-1,1.411.87.87,0,0,1-.21.059,1.433,1.433,0,0,1-1.66-.95.437.437,0,0,0-.16-.23.56.56,0,0,0-.42-.18h-.01a.6.6,0,0,0-.53.32.318.318,0,0,0-.05.1,1.822,1.822,0,0,1-.26.479,1.469,1.469,0,0,1-1.38.49,1.439,1.439,0,0,1-1.24-1.46.625.625,0,0,0-.41-.589.727.727,0,0,0-.21-.031.616.616,0,0,0-.48.23,1.428,1.428,0,0,1-1.88.341,1.617,1.617,0,0,1-.39-.311,1.412,1.412,0,0,1-.27-1.479.62.62,0,0,0-.86-.771c-.01.01-.03.01-.04.021A1.444,1.444,0,0,1,22.96,45a1.549,1.549,0,0,1-.77-.5,1.435,1.435,0,0,1-.01-1.91.619.619,0,0,0,.06-.71.587.587,0,0,0-.3-.26.607.607,0,0,0-.35-.04,1.47,1.47,0,0,1-.41.03.454.454,0,0,0-.11-.009,1.479,1.479,0,0,1-1.14-.96,1.426,1.426,0,0,1,.64-1.79.65.65,0,0,0,.31-.661.64.64,0,0,0-.52-.5,1.476,1.476,0,0,1-.02-2.91.639.639,0,0,0,.51-.51.633.633,0,0,0-.31-.65,1.481,1.481,0,0,1,.98-2.75.626.626,0,0,0,.65-.3.635.635,0,0,0-.07-.72,1.478,1.478,0,0,1,1.86-2.24.635.635,0,0,0,.72-.07.624.624,0,0,0,.18-.69,1.478,1.478,0,0,1,2.51-1.48.639.639,0,0,0,.7.19.63.63,0,0,0,.4-.6,1.48,1.48,0,0,1,2.87-.52.626.626,0,0,0,.59.41.613.613,0,0,0,.58-.42,1.482,1.482,0,0,1,2.88.49.63.63,0,0,0,.41.59.639.639,0,0,0,.7-.19,1.407,1.407,0,0,1,1.87-.35,1.428,1.428,0,0,1,.66,1.79.624.624,0,0,0,.9.75,1.479,1.479,0,0,1,1.89,2.22.622.622,0,0,0,.59,1.01,1.484,1.484,0,0,1,1.02,2.74.611.611,0,0,0-.3.65.628.628,0,0,0,.51.5,1.422,1.422,0,0,1,1.24,1.45,1.444,1.444,0,0,1-1.22,1.47.618.618,0,0,0-.2,1.15,1.481,1.481,0,0,1-.98,2.75Z"/><path d="M64,.53v41.6a.527.527,0,0,1-.53.53H43.1a.534.534,0,0,1-.53-.53.675.675,0,0,1,.02-.14.533.533,0,0,1,.37-.37.673.673,0,0,1,.14-.019H62.94V1.06H1.06V41.6H21.07a.454.454,0,0,1,.11.009c.01,0,.02.01.03.01a.535.535,0,0,1,.39.49v.02a.527.527,0,0,1-.53.53H.53A.534.534,0,0,1,0,42.13V.53A.527.527,0,0,1,.53,0H63.47A.521.521,0,0,1,64,.53Z"/><path d="M47.671,11.489H16.332a.529.529,0,0,1,0-1.058H47.671a.529.529,0,1,1,0,1.058Z"/><path d="M41.636,16.815H22.367a.529.529,0,0,1,0-1.058H41.636a.529.529,0,0,1,0,1.058Z"/></g></svg>