<svg xmlns="http://www.w3.org/2000/svg" viewBox="0 0 93.001 70.912"><defs><style>.cls-1{fill:#11a668;}</style></defs><g id="레이어_2" data-name="레이어 2"><path class="cls-1" d="M25.24,17.847a4.462,4.462,0,0,0,2.094.546,4.988,4.988,0,0,1-4.893-.191,7.5,7.5,0,0,0-3.88-1.262,5.19,5.19,0,0,1,2.746-.535,11.607,11.607,0,0,1,1.7.864A3.928,3.928,0,0,0,25.24,17.847Z"/><path class="cls-1" d="M40.475,27.245c-.361.064-.727.122-1.092.169-.637-2.724-2.343-8.407-5.852-10.039a4.7,4.7,0,0,0-2.3-.419,6.706,6.706,0,0,1,2.783-.562C38.015,18.276,39.833,24.4,40.475,27.245Z"/><path d="M67.886,48.71A15.148,15.148,0,0,1,57.691,44.8a15.373,15.373,0,0,1-4.875-14.117l-.573-.153a1.982,1.982,0,0,1-1.528-1.927c-.067-2.528.735-8.85,9.6-13.027a.546.546,0,1,1,.465.989c-8.282,3.9-9.034,9.7-8.974,12.005a.889.889,0,0,0,.727.906l1.056.283a.548.548,0,0,1,.395.636l-.035.173a14.241,14.241,0,1,0,28.123,4.315,14.557,14.557,0,0,0-.358-5.024.546.546,0,0,1,.24-.6,2.729,2.729,0,0,0,1.162-1.057,1.04,1.04,0,0,0,.085-.291,8.743,8.743,0,0,0-.46-3.729,11.464,11.464,0,0,0-1.65-3.394,12.539,12.539,0,0,0-5.958-4.287.546.546,0,1,1,.335-1.04A12.7,12.7,0,0,1,77.8,16.5a12.934,12.934,0,0,1,4.178,3.648,12.567,12.567,0,0,1,1.812,3.718,9.642,9.642,0,0,1,.492,4.22,2.1,2.1,0,0,1-.166.564,3.185,3.185,0,0,1-1.248,1.325A15.693,15.693,0,0,1,83.161,35,15.345,15.345,0,0,1,69.654,48.612,15.979,15.979,0,0,1,67.886,48.71Z"/><path d="M57.874,30.956a8.11,8.11,0,0,1-1-.051.546.546,0,0,1-.472-.611.553.553,0,0,1,.612-.473c.32.041,7.864.9,12.793-6.942a.541.541,0,0,1,.547-.249.548.548,0,0,1,.446.4,8.764,8.764,0,0,0,7.814,6.2.548.548,0,0,1,.5.6.542.542,0,0,1-.595.494,9.911,9.911,0,0,1-8.38-5.962,15.324,15.324,0,0,1-8.323,6.032A14.519,14.519,0,0,1,57.874,30.956Z"/><circle cx="62.371" cy="34.997" r="1.516"/><circle cx="74.077" cy="34.997" r="1.516"/><path d="M68.139,39.126a.547.547,0,1,1,0-1.093.689.689,0,0,0,0-1.378.547.547,0,1,1,0-1.093,1.782,1.782,0,1,1,0,3.564Z"/><path d="M68.139,44.458a3.9,3.9,0,0,1-3.9-3.9.547.547,0,0,1,1.094,0,2.8,2.8,0,1,0,5.607,0,.547.547,0,0,1,1.093,0A3.9,3.9,0,0,1,68.139,44.458Z"/><path d="M60.241,41.82a.567.567,0,0,1-.114-.012.547.547,0,0,1-.421-.648,3.453,3.453,0,0,1,2.333-2.629.547.547,0,0,1,.288,1.055,2.363,2.363,0,0,0-1.552,1.8A.547.547,0,0,1,60.241,41.82Z"/><path d="M76.038,41.82a.549.549,0,0,1-.535-.434,2.36,2.36,0,0,0-1.547-1.8.547.547,0,0,1,.284-1.056,3.453,3.453,0,0,1,2.333,2.629.547.547,0,0,1-.421.648A.559.559,0,0,1,76.038,41.82Z"/><path d="M46.251,54.7a12.1,12.1,0,0,1,.67-1.08A15.651,15.651,0,0,1,57,46.682a12.329,12.329,0,0,1,2.02-.17h.81c.03.02.05.03.09.06a14.589,14.589,0,0,0,4.58,1.8,14.216,14.216,0,0,0,1.65.27,15.886,15.886,0,0,0,3.51-.02c.32-.04.64-.09.97-.15a15.061,15.061,0,0,0,1.62-.38,18.254,18.254,0,0,0,3.64-1.52c.04-.02.07-.04.11-.06h.83a12.422,12.422,0,0,1,2.02.17c7.05,1.2,13.06,8.5,13.06,16.45v7.23a.546.546,0,0,0,.54.55.555.555,0,0,0,.55-.55v-7.23c0-9.24-7.24-17.36-15.62-17.71-.18-.01-.36-.01-.55-.01h-1.12l-.12.08c-8.41,4.76-15,.22-15.28.03l-.14-.11h-1.15c-.19,0-.39,0-.58.01a15.935,15.935,0,0,0-11.69,6.46c-.19.24-.37.48-.54.73-.01,0-.01.01-.01.02-.16.21-.3.43-.44.65-.08.13-.16.25-.23.38Z"/><path d="M25.036,49.421a16.084,16.084,0,0,1-10.828-4.149,16.3,16.3,0,0,1-5.1-15.33.546.546,0,1,1,1.071.214,15.213,15.213,0,0,0,4.762,14.3,15.18,15.18,0,0,0,25.222-9.7,15.408,15.408,0,0,0-.2-4.562.547.547,0,0,1,1.073-.211,16.534,16.534,0,0,1,.219,4.885A16.288,16.288,0,0,1,26.912,49.317,16.956,16.956,0,0,1,25.036,49.421Z"/><path d="M49.6,70.91a.546.546,0,0,1-.547-.546V63.953c0-8.7-7.184-16.624-15.074-16.624h-.833a16.159,16.159,0,0,1-11.5,1.866,14.615,14.615,0,0,1-4.67-1.866h-.81c-7.889,0-15.074,7.924-15.074,16.624v6.411a.547.547,0,0,1-1.093,0V63.953c0-9.438,7.554-17.717,16.167-17.717h1.15l.143.1c.276.2,6.872,4.737,15.275-.03l.125-.071h1.12c8.613,0,16.167,8.279,16.167,17.717v6.411A.545.545,0,0,1,49.6,70.91Z"/><path d="M25.306,39.227a.547.547,0,1,1,0-1.093.768.768,0,0,0,0-1.536.547.547,0,1,1,0-1.093,1.861,1.861,0,0,1,0,3.722Z"/><path d="M25.306,44.9a4.115,4.115,0,0,1-4.111-4.11.547.547,0,1,1,1.093,0,3.018,3.018,0,0,0,6.035,0,.547.547,0,1,1,1.093,0A4.115,4.115,0,0,1,25.306,44.9Z"/><path class="cls-1" d="M39.383,27.414a77.3,77.3,0,0,1-11.657.87,77.319,77.319,0,0,1-15.091-1.468c.715-2.9,2.459-8.174,5.926-9.876a7.5,7.5,0,0,1,3.88,1.262,4.988,4.988,0,0,0,4.893.191c.117-.059.228-.122.339-.191a7.688,7.688,0,0,1,3.562-1.246,4.7,4.7,0,0,1,2.3.419C37.04,19.007,38.746,24.69,39.383,27.414Z"/><path d="M40.6,30.622a.832.832,0,0,1-.112.01.544.544,0,0,1-.535-.435l-.27-1.3c-.005-.032-.1-.6-.3-1.485-.637-2.724-2.343-8.407-5.852-10.039a4.7,4.7,0,0,0-2.3-.419A7.688,7.688,0,0,0,27.673,18.2c-.111.069-.222.132-.339.191a4.988,4.988,0,0,1-4.893-.191,7.5,7.5,0,0,0-3.88-1.262,4.781,4.781,0,0,0-1.977.44c-4.654,2.152-6.133,11.4-6.149,11.492l-.26,1.283a.541.541,0,0,1-.641.43.548.548,0,0,1-.43-.642l.255-1.262c.058-.381,1.585-9.9,6.764-12.3a6.348,6.348,0,0,1,5.184.021,11.607,11.607,0,0,1,1.7.864,3.9,3.9,0,0,0,4.1,0c2.513-1.537,4.834-1.834,6.886-.885a.056.056,0,0,0,.026.01c4,1.882,5.815,8.01,6.457,10.851.185.822.27,1.368.286,1.458l.265,1.272A.548.548,0,0,1,40.6,30.622Z"/><path d="M25.4,28.832A76.18,76.18,0,0,1,4.589,26a.547.547,0,0,1,.3-1.052A75.063,75.063,0,0,0,25.4,27.738a75.388,75.388,0,0,0,20.5-2.777.547.547,0,0,1,.3,1.052A76.491,76.491,0,0,1,25.4,28.832Z"/><path d="M20.432,36.3a2.795,2.795,0,1,1,2.794-2.794A2.8,2.8,0,0,1,20.432,36.3Zm0-4.5a1.7,1.7,0,1,0,1.7,1.7A1.7,1.7,0,0,0,20.432,31.809Z"/><path d="M30.36,36.3a2.795,2.795,0,1,1,2.794-2.794A2.8,2.8,0,0,1,30.36,36.3Zm0-4.5a1.7,1.7,0,1,0,1.7,1.7A1.7,1.7,0,0,0,30.36,31.809Z"/><path d="M28.112,34.056H22.679a.547.547,0,0,1,0-1.093h5.433a.547.547,0,0,1,0,1.093Z"/><path d="M16.981,42.045a.543.543,0,0,1-.535-.659,3.647,3.647,0,0,1,2.465-2.779.546.546,0,0,1,.288,1.054,2.562,2.562,0,0,0-1.683,1.951A.548.548,0,0,1,16.981,42.045Z"/><path d="M33.853,42.045a.548.548,0,0,1-.535-.433,2.561,2.561,0,0,0-1.683-1.951.546.546,0,0,1,.288-1.054,3.647,3.647,0,0,1,2.465,2.779.547.547,0,0,1-.421.648A.557.557,0,0,1,33.853,42.045Z"/><path d="M60.548,16.619a.547.547,0,0,1-.523-.39,5.251,5.251,0,0,1-.214-1.514c0-3.711,3.632-6.73,8.1-6.73a8.834,8.834,0,0,1,1.927.2l.559.131c.19.052.349.1.509.155a6.86,6.86,0,0,1,5.11,6.24,5.449,5.449,0,0,1-.183,1.414.547.547,0,0,1-1.056-.285,4.314,4.314,0,0,0,.146-1.129c0-2.277-1.755-4.369-4.368-5.2-.151-.053-.287-.093-.429-.132l-.532-.125a7.754,7.754,0,0,0-1.683-.175c-3.861,0-7,2.528-7,5.636a4.19,4.19,0,0,0,.168,1.2.546.546,0,0,1-.367.68A.533.533,0,0,1,60.548,16.619Z"/><path d="M57.7,18.208a.546.546,0,0,1-.322-.988,17.3,17.3,0,0,1,10.251-2.87.547.547,0,0,1-.058,1.092A16.283,16.283,0,0,0,58.023,18.1.545.545,0,0,1,57.7,18.208Z"/><path d="M25.062,57.757a.542.542,0,0,1-.219-.046L16.75,54.18a.546.546,0,0,1-.284-.714l.749-1.763H15.9a.546.546,0,0,1-.54-.634l.631-3.909a.546.546,0,1,1,1.079.174l-.528,3.276h1.5a.546.546,0,0,1,.5.76l-.86,2.025,6.153,2.684-3.965-7.407a.547.547,0,0,1,.965-.516l4.707,8.8a.548.548,0,0,1-.482.8Z"/><path d="M25.062,57.757a.547.547,0,0,1-.482-.8l4.707-8.8a.547.547,0,0,1,.964.516l-3.964,7.407L32.44,53.4l-.86-2.025a.546.546,0,0,1,.5-.76h1.5l-.529-3.276a.547.547,0,0,1,1.08-.174l.631,3.909a.547.547,0,0,1-.54.634H32.909l.748,1.763a.545.545,0,0,1-.284.714L25.28,57.711A.54.54,0,0,1,25.062,57.757Z"/><path d="M75.333,52.239a4.053,4.053,0,0,1-1.621-.339l-5.786-2.939L62.17,51.887a4.054,4.054,0,0,1-5.7-3.7,2.272,2.272,0,0,1,.581-1.567,3.973,3.973,0,0,1,2.921-1.142.547.547,0,0,1,.054,1.092,3.008,3.008,0,0,0-2.149.767,1.213,1.213,0,0,0-.315.8A2.963,2.963,0,0,0,61.7,50.9l5.974-3.037a.549.549,0,0,1,.5,0l6,3.051a2.962,2.962,0,0,0,4.114-2.728,1.232,1.232,0,0,0-.328-.868,3.049,3.049,0,0,0-2.135-.749.547.547,0,0,1-.519-.573.553.553,0,0,1,.574-.519,3.974,3.974,0,0,1,2.921,1.142,2.281,2.281,0,0,1,.578,1.616,4.056,4.056,0,0,1-4.05,4.006Z"/><path d="M11.058,33.139a.546.546,0,0,1-.225-1.044,5.526,5.526,0,0,0,3.319-4.56.554.554,0,0,1,.568-.523.545.545,0,0,1,.524.565,6.611,6.611,0,0,1-3.961,5.514A.542.542,0,0,1,11.058,33.139Z"/><path d="M46.208,53.507a.547.547,0,0,1-.547-.547V18.853a.547.547,0,1,1,1.093,0V52.96A.546.546,0,0,1,46.208,53.507Z"/><path class="cls-1" d="M57.611,5.87v.006c-.125,3.673-2.722,6.68-5.526,9.4a29.419,29.419,0,0,1-2.853,2.307A24,24,0,0,0,46.291,20a.512.512,0,0,1-.2.131l-.044-.017c-.005,0-.005,0-.011,0-.06-.049-.12-.1-.18-.142h-.006a22.4,22.4,0,0,0-2.793-2.3c-.262-.2-.53-.394-.793-.591-.005,0-.011-.011-.016-.011a21.257,21.257,0,0,1-4.056-5.006,9.562,9.562,0,0,1-.618-1.411.007.007,0,0,0,0-.011.018.018,0,0,1-.005-.011,7.447,7.447,0,0,1-.437-2.613,5.588,5.588,0,0,1,6.685-5.476,5.476,5.476,0,0,1,.913.234c.011.006.027.011.038.017a5.167,5.167,0,0,1,1.957,1.284,5.431,5.431,0,0,1,.388.454.022.022,0,0,1,.005.011A5.5,5.5,0,0,1,48.2,7.822h.016A5.093,5.093,0,0,1,52.38,2.536a5.827,5.827,0,0,1,2.9.208h.011c.169.06.339.125.5.2a5.519,5.519,0,0,1,1.421.929h0a.018.018,0,0,1,.006.016Z"/><path d="M57.611,5.876V5.87c0-.076,0-.147,0-.218-.017-.175-.033-.355-.06-.525-.006-.06-.017-.115-.028-.175-.021-.115-.043-.224-.071-.339-.032-.136-.065-.268-.109-.4a.438.438,0,0,0-.027-.093,1.864,1.864,0,0,0-.082-.235.018.018,0,0,0-.006-.016,1.3,1.3,0,0,0-.049-.131l-.049-.121c-.044-.109-.1-.218-.153-.328a.175.175,0,0,0-.022-.043c-.06-.126-.131-.252-.2-.372a.691.691,0,0,0-.055-.082,3.442,3.442,0,0,0-.2-.29c-.1-.142-.213-.284-.328-.421-.087-.1-.18-.2-.278-.295a1.686,1.686,0,0,0-.143-.137c-.087-.082-.174-.163-.267-.24A6.236,6.236,0,0,0,50.407.1a5.281,5.281,0,0,0-4.039,3.181A5.654,5.654,0,0,0,42.175.1a6.236,6.236,0,0,0-5.067,1.312,5.95,5.95,0,0,0-2.143,4.6c-.044,3.712,2.542,6.723,5.34,9.424a22.406,22.406,0,0,0,1.941,1.628s.011.006.016.011c.263.2.531.394.793.591a22.4,22.4,0,0,1,2.793,2.3h.006l.038.038a.536.536,0,0,0,.142.1c.006,0,.006,0,.011,0l.044.017a.49.49,0,0,0,.2.038.805.805,0,0,0,.109-.011.435.435,0,0,0,.076-.022.5.5,0,0,0,.2-.131,23.226,23.226,0,0,1,2.842-2.34,28.055,28.055,0,0,0,2.755-2.23c2.8-2.706,5.384-5.717,5.346-9.424A1.039,1.039,0,0,0,57.611,5.876Zm-13.9,10.916a26.766,26.766,0,0,1-2.651-2.138q-.361-.351-.722-.71c-.142-.142-.278-.284-.415-.427-.372-.388-.733-.776-1.071-1.18a17.059,17.059,0,0,1-1.143-1.487c-.044-.066-.087-.131-.137-.2a.007.007,0,0,0,0-.011.018.018,0,0,1-.005-.011c-.169-.257-.322-.513-.465-.776-.043-.076-.082-.153-.125-.229l-.049-.1c-.039-.071-.071-.147-.1-.218a7.833,7.833,0,0,1-.655-2c-.022-.12-.039-.235-.055-.355-.016-.143-.033-.279-.038-.421s-.017-.284-.017-.427V6.029A4.9,4.9,0,0,1,37.8,2.252,5.11,5.11,0,0,1,41.06,1.1a5.444,5.444,0,0,1,.929.082c.142.028.279.055.416.093a3.548,3.548,0,0,1,.4.126,4.639,4.639,0,0,1,.65.295c.06.033.12.071.18.11s.142.087.208.136a1.583,1.583,0,0,1,.2.148,1.232,1.232,0,0,1,.191.153,4.991,4.991,0,0,1,.536.552c.044.054.087.109.126.164a1.344,1.344,0,0,1,.142.2c.043.066.087.137.131.208a3.819,3.819,0,0,1,.246.47,1.637,1.637,0,0,1,.109.268.9.9,0,0,1,.06.164,3.132,3.132,0,0,1,.142.519,1.825,1.825,0,0,1,.05.235,2.588,2.588,0,0,1,.043.284l.017.181c.011.114.016.229.016.35a.544.544,0,0,0,.547.541h.011a.547.547,0,0,0,.546-.541,3.627,3.627,0,0,1,.022-.421c.006-.1.017-.2.027-.295a1.389,1.389,0,0,1,.033-.208c.017-.1.038-.2.06-.29a.256.256,0,0,1,.017-.093,1.572,1.572,0,0,1,.066-.24,4.046,4.046,0,0,1,.36-.9,5.157,5.157,0,0,1,.377-.6,1.126,1.126,0,0,1,.148-.18.377.377,0,0,1,.066-.077,1.033,1.033,0,0,1,.153-.164,3.845,3.845,0,0,1,.885-.683,2.18,2.18,0,0,1,.23-.126c.043-.022.087-.044.136-.065l.2-.082.137-.05A1.778,1.778,0,0,1,50.1,1.3a2.851,2.851,0,0,1,.492-.12A5.146,5.146,0,0,1,54.78,2.246a4.007,4.007,0,0,1,.312.285,2.3,2.3,0,0,1,.2.213h.006c.016.022.038.043.054.065a.164.164,0,0,1,.028.033,3.057,3.057,0,0,1,.257.334c.082.114.153.229.224.349.038.066.076.137.115.208s.06.12.087.181c.038.081.071.158.1.24a4.708,4.708,0,0,1,.262.918,2.471,2.471,0,0,1,.049.279,3.121,3.121,0,0,1,.033.334c.011.109.016.224.016.338.033,3.3-2.388,6.1-5.012,8.626a27.392,27.392,0,0,1-2.645,2.137,29.492,29.492,0,0,0-2.58,2.072A29.285,29.285,0,0,0,43.711,16.792Z"/><path d="M39.065,33.227a.546.546,0,0,1-.225-.048,6.612,6.612,0,0,1-3.96-5.514.546.546,0,0,1,.526-.566h.02a.547.547,0,0,1,.546.526,5.522,5.522,0,0,0,3.319,4.559.546.546,0,0,1-.226,1.044Z"/></g></svg>