<svg id="레이어_1" data-name="레이어 1" xmlns="http://www.w3.org/2000/svg" viewBox="0 0 117.248 13.171"><defs><style>.cls-1{fill:#111;}.cls-2{fill:#11a668;}.cls-3{fill:#fff;}</style></defs><path id="패스_52150" data-name="패스 52150" class="cls-1" d="M0,0H21.276V13.171H0Z"/><g id="패스_52152" data-name="패스 52152"><rect class="cls-2" x="21.276" width="55.724" height="13.171"/></g><path id="패스_52151" data-name="패스 52151" class="cls-3" d="M9.38,4.174v-2.1H8.274V7.263H9.38V5.073h1.249v-.9Zm-4.369.9a3.51,3.51,0,0,0,2.03,1.843l.592-.861a2.878,2.878,0,0,1-2.11-2.746v-.78h-1.1v.81A3.089,3.089,0,0,1,2.229,6.3l.592.868A3.646,3.646,0,0,0,5.011,5.073ZM9.38,10.9V7.63H3.6V10.9ZM8.292,8.511v1.5h-3.6v-1.5ZM18.373,7.328V2.071h-1.1V3.8H15.492v.9h1.782V7.326ZM13.627,5.139a3.419,3.419,0,0,0,2.04,1.847l.591-.861a2.838,2.838,0,0,1-2.1-2.778V2.553h-1.1V3.4a3.078,3.078,0,0,1-2.229,2.977l.587.885A3.621,3.621,0,0,0,13.627,5.139Zm1.718,2.428c-1.889,0-3.047.634-3.044,1.723S13.456,11,15.345,11,18.4,10.38,18.4,9.289s-1.158-1.722-3.051-1.722Zm0,2.568c-1.246,0-1.956-.3-1.949-.846-.007-.564.7-.865,1.949-.865s1.955.3,1.959.865c0,.545-.71.85-1.959.846Z"/><path id="패스_52153" data-name="패스 52153" class="cls-1" d="M30.2,5.23V7.561h1.046V2.077H30.2V4.333h-.9V2.241H28.284V7.279h1.022V5.23Zm-2.072.882a2.527,2.527,0,0,1-1.737-2.386v-1.1H25.325v1.1a2.92,2.92,0,0,1-1.8,2.652l.593.85a3.292,3.292,0,0,0,1.76-1.844,2.983,2.983,0,0,0,1.672,1.57Zm.1,1.595c-1.886,0-3.068.616-3.061,1.648S26.342,11,28.229,11c1.872,0,3.061-.615,3.065-1.644S30.1,7.707,28.229,7.707Zm0,2.452c-1.238.008-1.969-.281-1.965-.8s.727-.819,1.966-.815c1.224,0,1.955.287,1.962.815s-.738.812-1.962.8ZM38.551,6.094V7.326h1.1V2.071h-1.1V3.429H36.744V2.736h-4.2V6.788h4.2V6.094Zm-4.914-.189V3.61h2.026v2.3Zm4.914-.7H36.744V4.3h1.807ZM36.622,7.567c-1.889,0-3.047.634-3.044,1.723S34.733,11,36.622,11s3.05-.62,3.05-1.711S38.514,7.567,36.622,7.567Zm0,2.584c-1.246,0-1.956-.308-1.949-.864-.007-.574.7-.873,1.949-.878s1.955.3,1.959.878c0,.558-.711.865-1.959.865ZM47.611,5.615a8.375,8.375,0,0,0,.253-2.381V2.492h-6.2v.872h5.1a8.067,8.067,0,0,1-.238,2.144ZM44.966,4.5H43.878V6.122H40.733v.889h8.116V6.119H44.966Zm-.224,3.163c-1.927,0-3.162.616-3.162,1.676,0,1.042,1.235,1.665,3.162,1.661,1.945,0,3.17-.619,3.177-1.661-.008-1.061-1.232-1.674-3.177-1.677Zm0,2.491c-1.291,0-2.071-.287-2.064-.815s.773-.847,2.064-.85,2.077.308,2.082.85c0,.527-.784.813-2.082.813ZM55.615,2.071V7.339h1.1V2.071Zm-3.771.506a2.213,2.213,0,0,0-2.41,2.152,2.423,2.423,0,0,0,4.817,0,2.215,2.215,0,0,0-2.407-2.149Zm0,.938A1.209,1.209,0,0,1,53.164,4.6q.006.064.006.129a1.208,1.208,0,0,1-1.183,1.233,1.139,1.139,0,0,1-.143-.005,1.208,1.208,0,0,1-1.331-1.071,1.194,1.194,0,0,1-.007-.158,1.21,1.21,0,0,1,1.2-1.221,1.313,1.313,0,0,1,.14.007ZM50.62,7.781v.885h5v2.34h1.1V7.781ZM64.533,5.569h-.912V2.226h-1.04v8.353H63.62v-4.1h.912v4.53h1.057V2.071H64.533Zm-3.925-1.64h1.466V3.044H57.949v.885h1.592v.427c0,1.742-.532,3.306-1.865,4.052l.682.842A4.024,4.024,0,0,0,60.1,6.717a3.7,3.7,0,0,0,1.735,2.218l.636-.839a3.956,3.956,0,0,1-1.86-3.739ZM73.444,2.071h-1.1V8.536h1.1V5.493H74.7V4.581H73.445ZM71.529,5.846a16.721,16.721,0,0,1-3.669.28V3.694h2.909V2.809H66.762V7.021h.728a19.855,19.855,0,0,0,4.16-.283ZM67.714,7.858v2.983h6.079V9.946H68.809V7.858Z"/><path id="패스_52154" data-name="패스 52154" class="cls-1" d="M81.856,10.209a2.233,2.233,0,0,1-2.143-1.352,3.284,3.284,0,0,1,0-2.58,2.278,2.278,0,0,1,.811-.977,2.306,2.306,0,0,1,1.342-.376,2.157,2.157,0,0,1,1.677.684,2.832,2.832,0,0,1,.621,1.976V7.9h-3.58v.077a1.336,1.336,0,0,0,.158.634,1.254,1.254,0,0,0,.443.477,1.219,1.219,0,0,0,1.786-.555h1.145a2.305,2.305,0,0,1-.779,1.2A2.271,2.271,0,0,1,81.856,10.209Zm1.184-3.08A1.448,1.448,0,0,0,82.7,6.115a1.141,1.141,0,0,0-.842-.322,1.153,1.153,0,0,0-.89.361,1.457,1.457,0,0,0-.351.977Zm3.9,3.08a2.354,2.354,0,0,1-1.1-.241,1.747,1.747,0,0,1-.7-.631,1.546,1.546,0,0,1-.241-.822V8.457h1.146v.058a.743.743,0,0,0,.24.539.93.93,0,0,0,.684.24.965.965,0,0,0,.6-.173A.57.57,0,0,0,87.8,8.64a.508.508,0,0,0-.2-.424.983.983,0,0,0-.486-.192l-.608-.116a2.277,2.277,0,0,1-1.035-.438,1.205,1.205,0,0,1-.447-1.025,1.332,1.332,0,0,1,.519-1.114,2.117,2.117,0,0,1,1.338-.406,2.272,2.272,0,0,1,1.035.222,1.64,1.64,0,0,1,.664.577,1.413,1.413,0,0,1,.226.77v.039H87.66V6.5a.741.741,0,0,0-.2-.491.775.775,0,0,0-.621-.231.856.856,0,0,0-.568.178.585.585,0,0,0-.212.467.49.49,0,0,0,.2.406,1.156,1.156,0,0,0,.5.212l.664.115a2.354,2.354,0,0,1,1.049.472,1.2,1.2,0,0,1,.423.991,1.4,1.4,0,0,1-.253.832,1.658,1.658,0,0,1-.7.558,2.458,2.458,0,0,1-1,.2Zm4.547-4.245V8.457a2.892,2.892,0,0,0,.036.509.4.4,0,0,0,.188.26.961.961,0,0,0,.491.1,2.745,2.745,0,0,0,.443-.051v.821a2.268,2.268,0,0,1-.327.051,5.213,5.213,0,0,1-.53.029,1.954,1.954,0,0,1-.981-.193.835.835,0,0,1-.4-.491,3.1,3.1,0,0,1-.082-.78V5.964h-.885V5.052h.885V3.394h1.166V5.05h1.155v.911Zm3.006,4.245a.655.655,0,0,1-.486-.2.71.71,0,0,1,0-.982.65.65,0,0,1,.486-.2.666.666,0,0,1,.5.2.674.674,0,0,1,.2.491.693.693,0,0,1-.693.694Zm5.987-1.1v1.021H96.66V9.111h1.414V4.78h-.038l-1.4,1.29v-1.4l1.406-1.28h1.145V9.111Zm4.179-2-.04-.017-.145.152a1.734,1.734,0,0,1-.52.355,1.8,1.8,0,0,1-.741.134,2.022,2.022,0,0,1-1.068-.279,1.928,1.928,0,0,1-.722-.779,2.442,2.442,0,0,1-.26-1.135,2.285,2.285,0,0,1,.322-1.236,2.087,2.087,0,0,1,.862-.78,2.8,2.8,0,0,1,2.368,0,2.121,2.121,0,0,1,.89.8,2.431,2.431,0,0,1,.341,1.328,3.585,3.585,0,0,1-.293,1.463,9.665,9.665,0,0,1-.842,1.473l-1.02,1.55h-1.251Zm-1.08-.22a1.124,1.124,0,0,0,.924-.4,1.452,1.452,0,0,0,.327-.947A1.423,1.423,0,0,0,104.5,4.6a1.141,1.141,0,0,0-.93-.4,1.234,1.234,0,0,0-.7.192,1.215,1.215,0,0,0-.433.5,1.479,1.479,0,0,0-.145.64,1.527,1.527,0,0,0,.145.655,1.224,1.224,0,0,0,.437.506A1.241,1.241,0,0,0,103.58,6.889Zm5.7,3.377a3.067,3.067,0,0,1-1.39-.279,1.876,1.876,0,0,1-.814-.731,1.905,1.905,0,0,1-.259-.963,1.649,1.649,0,0,1,.2-.828,1.738,1.738,0,0,1,.452-.539,1.454,1.454,0,0,1,.467-.25V6.628a1.479,1.479,0,0,1-.611-.51,1.522,1.522,0,0,1-.294-.953,1.865,1.865,0,0,1,.24-.914,1.807,1.807,0,0,1,.746-.709,3.054,3.054,0,0,1,2.542,0,1.81,1.81,0,0,1,.742.714,1.871,1.871,0,0,1,.234.907,1.564,1.564,0,0,1-.152.712,1.623,1.623,0,0,1-.365.5,1.352,1.352,0,0,1-.385.253v.048a1.454,1.454,0,0,1,.467.25,1.738,1.738,0,0,1,.452.539,1.661,1.661,0,0,1,.2.828,1.916,1.916,0,0,1-.26.963,1.875,1.875,0,0,1-.816.731A3.072,3.072,0,0,1,109.278,10.266Zm0-3.984a1.13,1.13,0,0,0,.861-.3,1.061,1.061,0,0,0,0-1.449,1.352,1.352,0,0,0-1.718,0,1.029,1.029,0,0,0-.284.722,1.019,1.019,0,0,0,.284.731A1.139,1.139,0,0,0,109.278,6.282Zm-.009,3.012a1.283,1.283,0,0,0,.977-.342,1.13,1.13,0,0,0,.323-.8,1.145,1.145,0,0,0-.323-.813,1.27,1.27,0,0,0-.967-.342,1.283,1.283,0,0,0-.977.342,1.158,1.158,0,0,0-.323.822,1.113,1.113,0,0,0,.323.8A1.292,1.292,0,0,0,109.269,9.294Zm3.408-.163,1.251-1.107q.02-.019.327-.27.655-.538,1.013-.876a3.489,3.489,0,0,0,.587-.722,1.5,1.5,0,0,0,.236-.8,1.139,1.139,0,0,0-.28-.78,1.07,1.07,0,0,0-.847-.318.975.975,0,0,0-.914.39,1.606,1.606,0,0,0-.231.833v.106h-1.143a2.652,2.652,0,0,1,.264-1.2,1.975,1.975,0,0,1,.78-.832,2.394,2.394,0,0,1,1.236-.3,2.505,2.505,0,0,1,1.228.279,1.848,1.848,0,0,1,.756.746,2.131,2.131,0,0,1,.25,1.013,2.245,2.245,0,0,1-.265,1.088,3.468,3.468,0,0,1-.611.832q-.346.342-.991.9l-1.1.956v.051h3.023v1.018h-4.563Z"/></svg>