<svg id="레이어_1" data-name="레이어 1" xmlns="http://www.w3.org/2000/svg" viewBox="0 0 143.612 30"><defs><style>.cls-1{fill:#fff;}</style></defs><path id="패스_52156" data-name="패스 52156" class="cls-1" d="M6.577,2.016V0H5.7V4.839h.88v-2.1h1.2V2.015ZM2.539,2.67a3.35,3.35,0,0,0,1.939,1.8l.477-.689A2.778,2.778,0,0,1,2.942,1.2V.429H2.071v.788A2.972,2.972,0,0,1,0,4.015l.474.694A3.467,3.467,0,0,0,2.539,2.67ZM6.577,8.191V5.2h-5.3V8.191Zm-.87-2.284v1.57H2.14V5.907ZM15.167,4.9V0H14.29V1.692H12.543v.723h1.748V4.9Zm-4.385-2.16a3.287,3.287,0,0,0,1.944,1.8l.478-.69a2.737,2.737,0,0,1-2-2.6V.462h-.877v.821a2.95,2.95,0,0,1-2.1,2.8L8.7,4.79A3.444,3.444,0,0,0,10.782,2.739Zm1.607,2.389c-1.741,0-2.808.582-2.8,1.587-.007,1,1.06,1.567,2.8,1.567s2.8-.566,2.8-1.567-1.066-1.587-2.8-1.587Zm0,2.461c-1.214,0-1.939-.321-1.931-.874-.006-.572.717-.9,1.931-.9s1.93.324,1.934.9c0,.553-.723.873-1.934.873Zm10.3-4.7V5.115h.831V.009h-.831V2.168h-.969V.162H20.9V4.85h.818V2.893Zm-2.042.929A2.412,2.412,0,0,1,18.983,1.6V.52h-.851V1.6a2.79,2.79,0,0,1-1.718,2.464l.478.68a3.162,3.162,0,0,0,1.675-1.783A2.841,2.841,0,0,0,20.173,4.5Zm.105,1.453c-1.737,0-2.821.555-2.814,1.505s1.077,1.5,2.814,1.5,2.814-.56,2.814-1.5-1.09-1.5-2.814-1.5Zm0,2.33c-1.211.007-1.947-.3-1.939-.824s.73-.838,1.939-.838,1.934.307,1.938.838-.741.83-1.938.824Zm9.932-3.934V4.9h.877V0h-.877v1.3h-1.81V.626H25.017V4.347h3.851V3.671Zm-4.791-.032V1.331h2.12V3.639Zm4.791-.69h-1.81V2.013h1.81Zm-1.9,2.179c-1.741,0-2.808.582-2.8,1.587s1.06,1.567,2.8,1.567,2.8-.566,2.8-1.567S30.515,5.128,28.777,5.128Zm0,2.47c-1.214,0-1.938-.327-1.931-.883-.006-.583.717-.9,1.931-.905s1.931.324,1.934.905C30.708,7.271,29.988,7.6,28.777,7.6Zm10.439-4.29a7.779,7.779,0,0,0,.232-2.2v-.7h-5.72v.707h4.846a7.458,7.458,0,0,1-.223,2.1ZM36.735,2.261h-.863V3.815H32.848v.714h7.538V3.815H36.735Zm-.157,2.955c-1.78,0-2.919.566-2.919,1.538S34.8,8.282,36.578,8.282,39.5,7.716,39.51,6.754,38.372,5.216,36.578,5.216Zm0,2.382c-1.256,0-2.048-.311-2.042-.844s.786-.871,2.042-.874,2.052.328,2.058.874S37.842,7.6,36.578,7.6ZM47.03,0V4.914h.881V0ZM43.408.488A2.026,2.026,0,0,0,41.2,2.465a2.218,2.218,0,0,0,4.411,0A2.021,2.021,0,0,0,43.408.488Zm0,.753a1.226,1.226,0,0,1,1.336,1.106,1.151,1.151,0,0,1,.006.118A1.225,1.225,0,0,1,43.539,3.7a1.148,1.148,0,0,1-.131,0,1.222,1.222,0,0,1-1.342-1.089,1.164,1.164,0,0,1-.006-.145,1.223,1.223,0,0,1,1.216-1.23q.066,0,.132.006Zm-1.12,4.1v.717H47.03V8.3h.88V5.344ZM55.544,3.3h-.99V.165h-.832V7.886h.832V4.038h.99V8.3h.841V0h-.841Zm-3.8-1.637h1.446V.949H49.335v.717h1.554V2.2a4.078,4.078,0,0,1-1.78,3.757l.547.67a3.868,3.868,0,0,0,1.68-2.461,3.539,3.539,0,0,0,1.656,2.173l.517-.674A3.7,3.7,0,0,1,51.742,2.2ZM63.935,0h-.88V6.005h.881V3.132h1.206V2.4H63.936ZM62.223,3.575a16.3,16.3,0,0,1-3.563.265V1.419h2.834V.7h-3.7V4.565h.658a18.59,18.59,0,0,0,3.877-.272Zm-3.544,1.81v2.74h5.609v-.72H59.554V5.386Z"/><path id="패스_52155" data-name="패스 52155" class="cls-1" d="M2.664,18.786a2.646,2.646,0,0,1-1.332-.318A2.131,2.131,0,0,1,.219,16.6V16.55H1.3V16.6a1.4,1.4,0,0,0,.142.6,1.224,1.224,0,0,0,.455.5,1.41,1.41,0,0,0,.788.2,1.456,1.456,0,0,0,.943-.294.968.968,0,0,0,.364-.8.841.841,0,0,0-.28-.663,1.494,1.494,0,0,0-.706-.332l-.91-.18a3.107,3.107,0,0,1-1.151-.507,1.45,1.45,0,0,1-.555-1.284,1.844,1.844,0,0,1,.28-1.014,1.8,1.8,0,0,1,.782-.668A2.71,2.71,0,0,1,2.6,11.934a2.582,2.582,0,0,1,1.269.294,2.02,2.02,0,0,1,.8.763,1.932,1.932,0,0,1,.27.98v.038H3.858v-.028a1.3,1.3,0,0,0-.123-.531,1.115,1.115,0,0,0-.413-.469,1.322,1.322,0,0,0-.753-.2,1.217,1.217,0,0,0-.867.3.98.98,0,0,0-.318.744.821.821,0,0,0,.271.635,1.426,1.426,0,0,0,.706.331l.843.173a3.176,3.176,0,0,1,1.275.56,1.474,1.474,0,0,1,.545,1.26,1.861,1.861,0,0,1-.3,1.043,1.975,1.975,0,0,1-.835.7A2.861,2.861,0,0,1,2.664,18.786Zm7.117-1.905H7.213L6.578,18.71h-1l2.455-6.634h.929l2.461,6.634h-1Zm-.275-.776-1-2.786H8.464L7.488,16.1Zm2.853-4.029h1.45l1.809,4.748h.028l1.8-4.748H18.9V18.71h-.965V13.545H17.9L15.969,18.71h-.682l-1.924-5.165h-.04V18.71h-.964Zm10.291,6.71a2.639,2.639,0,0,1-1.331-.318A2.135,2.135,0,0,1,20.2,16.6V16.55h1.081V16.6a1.387,1.387,0,0,0,.142.6,1.217,1.217,0,0,0,.455.5,1.41,1.41,0,0,0,.788.2,1.456,1.456,0,0,0,.943-.294.966.966,0,0,0,.363-.8.84.84,0,0,0-.279-.663,1.5,1.5,0,0,0-.706-.332l-.91-.18a3.118,3.118,0,0,1-1.152-.507,1.449,1.449,0,0,1-.554-1.284,1.828,1.828,0,0,1,.28-1.014,1.8,1.8,0,0,1,.781-.668,2.7,2.7,0,0,1,1.148-.232,2.585,2.585,0,0,1,1.27.294,2.034,2.034,0,0,1,.8.763,1.941,1.941,0,0,1,.269.98v.038H23.844v-.028a1.3,1.3,0,0,0-.123-.531,1.12,1.12,0,0,0-.412-.469,1.322,1.322,0,0,0-.753-.194,1.215,1.215,0,0,0-.868.3.981.981,0,0,0-.317.744.818.818,0,0,0,.27.635,1.431,1.431,0,0,0,.706.332l.844.172a3.18,3.18,0,0,1,1.274.56,1.471,1.471,0,0,1,.545,1.258,1.851,1.851,0,0,1-.3,1.042,1.969,1.969,0,0,1-.835.706A2.848,2.848,0,0,1,22.65,18.786Zm6.037.01a2.525,2.525,0,0,1-1.962-.768,3.207,3.207,0,0,1-.7-2.236V12.076h.967v3.677a3.044,3.044,0,0,0,.344,1.455,1.388,1.388,0,0,0,1.352.649,1.362,1.362,0,0,0,1.322-.646,3.038,3.038,0,0,0,.345-1.46V12.076h.975v3.715a3.189,3.189,0,0,1-.706,2.236A2.5,2.5,0,0,1,28.687,18.8Zm3.923-6.72h1.12l3.278,5.089h.028V12.076h.976V18.71H36.875l-3.26-4.985h-.028V18.71H32.61Zm9.411,6.7a2.574,2.574,0,0,1-1.606-.493,2.925,2.925,0,0,1-.962-1.27,4.484,4.484,0,0,1,0-3.3,2.955,2.955,0,0,1,.986-1.28,2.708,2.708,0,0,1,1.663-.5,2.648,2.648,0,0,1,1.815.611,3.157,3.157,0,0,1,.962,1.551H43.849a1.786,1.786,0,0,0-.611-.938,1.812,1.812,0,0,0-1.133-.332,1.707,1.707,0,0,0-1.454.692,3.063,3.063,0,0,0-.517,1.876,2.975,2.975,0,0,0,.543,1.894,1.783,1.783,0,0,0,1.478.683,1.869,1.869,0,0,0,.962-.237,1.559,1.559,0,0,0,.611-.646,2.043,2.043,0,0,0,.218-.91l.01-.228H42.25v-.718h2.644V18.71h-.758V17.648H44.06a4.088,4.088,0,0,1-.3.451,1.9,1.9,0,0,1-.6.438A2.415,2.415,0,0,1,42.021,18.776Zm10.273-.938v.872H48.285V12.076h1l-.009,5.762Zm1.052-5.762h1V18.71h-1Zm3.4.872v2l2.7-.018v.8h-2.7V18.71h-.987V12.076H59.8v.872Zm4.871,0v1.99H64.4v.787H61.62v2.113h3.193v.872H60.625V12.076h4.188v.872Zm8.888-.872a2.493,2.493,0,0,1,1.327.322,1.936,1.936,0,0,1,.758.825,2.473,2.473,0,0,1,.237,1.071,2.4,2.4,0,0,1-.237,1.052,1.923,1.923,0,0,1-.758.81,2.512,2.512,0,0,1-1.327.317H69.143V18.71h-.957V12.076Zm-.133,3.563a1.831,1.831,0,0,0,1.071-.3,1.18,1.18,0,0,0,.436-1.043,1.165,1.165,0,0,0-.436-1.037,1.853,1.853,0,0,0-1.071-.3H69.143v2.682ZM76.327,18.8a2.524,2.524,0,0,1-1.962-.768,3.207,3.207,0,0,1-.7-2.236V12.076h.967v3.677a3.044,3.044,0,0,0,.344,1.455,1.388,1.388,0,0,0,1.352.649,1.362,1.362,0,0,0,1.322-.646,3.05,3.05,0,0,0,.345-1.46V12.076h.978v3.715a3.194,3.194,0,0,1-.706,2.236A2.5,2.5,0,0,1,76.327,18.8Zm3.923-6.72h2.7a2.112,2.112,0,0,1,1.077.246,1.5,1.5,0,0,1,.611.631,1.793,1.793,0,0,1,.19.81,1.445,1.445,0,0,1-.172.72,1.428,1.428,0,0,1-.422.479,1.328,1.328,0,0,1-.479.222v.057a1.707,1.707,0,0,1,.588.2,1.57,1.57,0,0,1,.564.507,1.452,1.452,0,0,1,.241.861,2.051,2.051,0,0,1-.213.91,1.716,1.716,0,0,1-.666.716,2.155,2.155,0,0,1-1.148.28H80.25Zm2.417,2.862a1.445,1.445,0,0,0,.858-.258.92.92,0,0,0,.364-.8.849.849,0,0,0-.35-.758,1.519,1.519,0,0,0-.872-.237h-1.46V14.94Zm.218,2.966a1.62,1.62,0,0,0,.933-.258.97.97,0,0,0,.384-.867.937.937,0,0,0-.384-.844,1.644,1.644,0,0,0-.933-.256H81.207v2.227Zm7.287-.066v.872H86.166V12.076h1l-.01,5.762Zm1.052-5.762h.995V18.71h-.995Zm5.165,6.7A2.76,2.76,0,0,1,93.747,17.1a4.2,4.2,0,0,1-.351-1.744,4.14,4.14,0,0,1,.356-1.744,2.869,2.869,0,0,1,1.034-1.227,2.826,2.826,0,0,1,1.606-.45,2.715,2.715,0,0,1,1.867.646,3.113,3.113,0,0,1,.966,1.715h-.959a1.987,1.987,0,0,0-.668-1.071,1.833,1.833,0,0,0-1.2-.407,1.718,1.718,0,0,0-1.469.692,3.037,3.037,0,0,0-.512,1.848A3.039,3.039,0,0,0,94.93,17.2,1.714,1.714,0,0,0,96.4,17.9a1.806,1.806,0,0,0,1.146-.369,1.993,1.993,0,0,0,.673-.957h.957a3.011,3.011,0,0,1-.977,1.6A2.712,2.712,0,0,1,96.389,18.776Zm5.542-6.7h.977l1.374,5.411h.057l1.723-5.411h.881l1.723,5.411h.057l1.389-5.411h.976l-1.753,6.634h-1.25l-1.544-4.9h-.057l-1.556,4.9h-1.249Zm11.06.872v1.99h2.777v.787h-2.777v2.113h3.194v.872H112V12.076h4.189v.872Zm8.4,4.89v.872H117.38V12.076h1l-.009,5.762Zm2.009-4.89v2l2.7-.018v.8h-2.7V18.71h-.985V12.076h4.037v.872Zm7.553,3.933h-2.568l-.635,1.829h-1l2.455-6.634h.929L132.6,18.71h-1Zm-.275-.776-.995-2.786h-.047l-.976,2.785Zm4.919.038h-1.09V18.71h-.976V12.076h2.322a2.635,2.635,0,0,1,1.326.3,1.843,1.843,0,0,1,.758.762,2.128,2.128,0,0,1,.237.986,2.041,2.041,0,0,1-.387,1.223,1.922,1.922,0,0,1-1.194.72l1.667,2.644H137.2Zm-1.09-.824h1.213a2,2,0,0,0,1.071-.271,1,1,0,0,0,.436-.924.979.979,0,0,0-.436-.909,2.028,2.028,0,0,0-1.071-.266h-1.213Zm5.913-2.369v1.99H143.2v.785h-2.777v2.113h3.194v.872h-4.189V12.076h4.189v.872ZM1.4,24.149v2l2.7-.019v.794H1.4V29.91H.418V23.276H4.455v.872Zm6.691,5.827a2.937,2.937,0,0,1-1.637-.441,2.777,2.777,0,0,1-1.028-1.213,4.188,4.188,0,0,1-.351-1.748,4.25,4.25,0,0,1,.351-1.758,2.825,2.825,0,0,1,1.034-1.232,2.893,2.893,0,0,1,1.631-.45,2.874,2.874,0,0,1,1.616.443,2.807,2.807,0,0,1,1.029,1.229,4.308,4.308,0,0,1,.351,1.777,4.176,4.176,0,0,1-.351,1.753,2.754,2.754,0,0,1-1.028,1.2A2.927,2.927,0,0,1,8.094,29.976Zm-.009-.891a1.74,1.74,0,0,0,1.051-.322,2.03,2.03,0,0,0,.683-.9,3.7,3.7,0,0,0,0-2.606,2.09,2.09,0,0,0-.683-.9,1.83,1.83,0,0,0-2.1,0,2.091,2.091,0,0,0-.683.909,3.418,3.418,0,0,0-.237,1.3,3.38,3.38,0,0,0,.237,1.292,2.062,2.062,0,0,0,.683.9A1.731,1.731,0,0,0,8.085,29.085ZM14.813,30a2.524,2.524,0,0,1-1.963-.769,3.208,3.208,0,0,1-.7-2.236V23.276h.969v3.677a3.044,3.044,0,0,0,.344,1.455,1.39,1.39,0,0,0,1.351.649,1.362,1.362,0,0,0,1.322-.646,3.037,3.037,0,0,0,.344-1.46V23.276h.981v3.715a3.194,3.194,0,0,1-.706,2.236A2.5,2.5,0,0,1,14.813,30Zm3.923-6.72h1.12l3.279,5.089h.029V23.276h.976V29.91H23l-3.261-4.985h-.029V29.91h-.977Zm6.776,0h2.474a2.981,2.981,0,0,1,1.559.4,2.675,2.675,0,0,1,1.037,1.147,3.927,3.927,0,0,1,.37,1.762,3.99,3.99,0,0,1-.37,1.777,2.663,2.663,0,0,1-1.042,1.152,3.025,3.025,0,0,1-1.564.4H25.514Zm2.313,5.733a1.981,1.981,0,0,0,1.516-.606,2.573,2.573,0,0,0,.567-1.82,2.59,2.59,0,0,0-.564-1.819,1.975,1.975,0,0,0-1.521-.607H26.47v4.852Zm7.534-.928H32.791l-.635,1.829h-.995l2.455-6.634h.929l2.463,6.634h-1Zm-.275-.776-1-2.786h-.046L33.065,27.3ZM41.7,24.149H39.794V29.91h-.976V24.148H36.913v-.872H41.7Zm1.042-.871h.995V29.91h-.995Zm5.156,6.7a2.933,2.933,0,0,1-1.637-.441,2.779,2.779,0,0,1-1.029-1.213,4.187,4.187,0,0,1-.35-1.748,4.249,4.249,0,0,1,.35-1.758,2.825,2.825,0,0,1,1.034-1.232,3.165,3.165,0,0,1,3.246,0,2.8,2.8,0,0,1,1.028,1.227,4.292,4.292,0,0,1,.351,1.777,4.176,4.176,0,0,1-.351,1.753,2.748,2.748,0,0,1-1.028,1.2A2.917,2.917,0,0,1,47.9,29.976Zm-.01-.891a1.745,1.745,0,0,0,1.052-.322,2.028,2.028,0,0,0,.682-.9,3.7,3.7,0,0,0,0-2.606,2.1,2.1,0,0,0-.682-.9,1.832,1.832,0,0,0-2.1,0,2.089,2.089,0,0,0-.682.909,3.4,3.4,0,0,0-.237,1.3,3.361,3.361,0,0,0,.237,1.292,2.052,2.052,0,0,0,.682.9A1.733,1.733,0,0,0,47.887,29.085Zm4.132-5.809h1.12l3.279,5.089h.028V23.276h.976V29.91H56.285l-3.26-4.985H53V29.91h-.978Z"/></svg>